<?xml version="1.0" encoding="utf-8"?>
<!-- Generator: Adobe Illustrator 24.1.2, SVG Export Plug-In . SVG Version: 6.00 Build 0)  -->
<svg version="1.1" id="Layer_1" xmlns="http://www.w3.org/2000/svg" xmlns:xlink="http://www.w3.org/1999/xlink" x="0px" y="0px"
	 viewBox="0 0 900 500" style="enable-background:new 0 0 900 500;" xml:space="preserve">
<style type="text/css">
	.st0{clip-path:url(#SVGID_2_);fill:#FFFFFF;}
	.st1{fill:#FFFFFF;}
	.st2{fill:none;stroke:#262626;stroke-width:0.5;stroke-linejoin:round;stroke-miterlimit:10;stroke-opacity:0.149;}
	.st3{fill:none;stroke:#262626;stroke-width:0.5;stroke-linecap:square;stroke-linejoin:round;stroke-miterlimit:10;}
	.st4{fill:#262626;}
	.st5{fill:none;stroke:#2196F3;stroke-width:3;stroke-linejoin:round;stroke-miterlimit:10;}
	.st6{fill:none;stroke:#262626;stroke-width:0.5;stroke-miterlimit:10;}
</style>
<g>
	<g>
		<g>
			<defs>
				<rect id="SVGID_1_" x="-81.2" y="37.5" width="1062.5" height="425"/>
			</defs>
			<clipPath id="SVGID_2_">
				<use xlink:href="#SVGID_1_"  style="overflow:visible;"/>
			</clipPath>
			<rect x="-81.2" y="37.5" class="st0" width="1062.5" height="425"/>
		</g>
	</g>
	<g>
		<rect x="-81.2" y="37.5" class="st1" width="1062.5" height="425"/>
		<path class="st1" d="M56.9,415.8h823.4V80H56.9V415.8z"/>
	</g>
	<g>
		<line class="st2" x1="56.9" y1="415.8" x2="56.9" y2="80"/>
		<line class="st2" x1="331.4" y1="415.8" x2="331.4" y2="80"/>
		<line class="st2" x1="605.8" y1="415.8" x2="605.8" y2="80"/>
		<line class="st2" x1="880.3" y1="415.8" x2="880.3" y2="80"/>
		<line class="st2" x1="880.3" y1="415.8" x2="56.9" y2="415.8"/>
		<line class="st2" x1="880.3" y1="382.2" x2="56.9" y2="382.2"/>
		<line class="st2" x1="880.3" y1="348.6" x2="56.9" y2="348.6"/>
		<line class="st2" x1="880.3" y1="315" x2="56.9" y2="315"/>
		<line class="st2" x1="880.3" y1="281.5" x2="56.9" y2="281.5"/>
		<line class="st2" x1="880.3" y1="247.9" x2="56.9" y2="247.9"/>
		<line class="st2" x1="880.3" y1="214.3" x2="56.9" y2="214.3"/>
		<line class="st2" x1="880.3" y1="180.7" x2="56.9" y2="180.7"/>
		<line class="st2" x1="880.3" y1="147.1" x2="56.9" y2="147.1"/>
		<line class="st2" x1="880.3" y1="113.6" x2="56.9" y2="113.6"/>
		<line class="st2" x1="880.3" y1="80" x2="56.9" y2="80"/>
		<line class="st3" x1="56.9" y1="415.8" x2="880.3" y2="415.8"/>
		<line class="st3" x1="56.9" y1="80" x2="880.3" y2="80"/>
		<line class="st3" x1="56.9" y1="415.8" x2="56.9" y2="407.5"/>
		<line class="st3" x1="331.4" y1="415.8" x2="331.4" y2="407.5"/>
		<line class="st3" x1="605.8" y1="415.8" x2="605.8" y2="407.5"/>
		<line class="st3" x1="880.3" y1="415.8" x2="880.3" y2="407.5"/>
		<line class="st3" x1="56.9" y1="80" x2="56.9" y2="88.2"/>
		<line class="st3" x1="331.4" y1="80" x2="331.4" y2="88.2"/>
		<line class="st3" x1="605.8" y1="80" x2="605.8" y2="88.2"/>
		<line class="st3" x1="880.3" y1="80" x2="880.3" y2="88.2"/>
	</g>
	<g transform="translate(130,360)">
		<path class="st4" d="M-74.9,66.9c0-0.2,0-0.4,0-0.6c0-0.2,0-0.4,0.1-0.7c0-0.2,0.1-0.4,0.1-0.7c0.1-0.2,0.1-0.4,0.3-0.6
			c0.1-0.2,0.3-0.3,0.4-0.4s0.4-0.1,0.6-0.1s0.5,0,0.6,0.1s0.3,0.2,0.4,0.4c0.1,0.2,0.2,0.3,0.3,0.6c0.1,0.2,0.1,0.4,0.1,0.7
			c0,0.2,0,0.4,0.1,0.7c0,0.2,0,0.4,0,0.6c0,0.3,0,0.6,0,1s-0.1,0.7-0.2,1c-0.1,0.3-0.2,0.6-0.5,0.8c-0.2,0.2-0.5,0.3-0.9,0.3
			s-0.7-0.1-0.9-0.3c-0.2-0.2-0.4-0.5-0.5-0.8c-0.1-0.3-0.2-0.6-0.2-1S-74.9,67.2-74.9,66.9z M-75.9,66.9c0,0.3,0,0.6,0,0.9
			s0,0.6,0.1,0.9c0.1,0.3,0.1,0.6,0.2,0.8c0.1,0.3,0.3,0.5,0.4,0.7c0.2,0.2,0.4,0.3,0.7,0.5c0.3,0.1,0.6,0.2,1,0.2
			c0.4,0,0.7-0.1,1-0.2c0.3-0.1,0.5-0.3,0.7-0.5c0.2-0.2,0.3-0.4,0.4-0.7c0.1-0.3,0.2-0.5,0.2-0.8c0.1-0.3,0.1-0.6,0.1-0.9
			s0-0.6,0-0.9c0-0.3,0-0.6,0-0.9c0-0.3,0-0.6-0.1-0.9c-0.1-0.3-0.1-0.6-0.2-0.8c-0.1-0.3-0.3-0.5-0.4-0.7s-0.4-0.3-0.7-0.5
			c-0.3-0.1-0.6-0.2-1-0.2c-0.4,0-0.7,0.1-1,0.2c-0.3,0.1-0.5,0.3-0.7,0.5c-0.2,0.2-0.3,0.4-0.4,0.7c-0.1,0.3-0.2,0.5-0.2,0.8
			c-0.1,0.3-0.1,0.6-0.1,0.9C-75.9,66.4-75.9,66.7-75.9,66.9z"/>
	</g>
	<g transform="translate(388.3333,360)">
		<path class="st4" d="M-63,66.9c0-0.2,0-0.4,0-0.6c0-0.2,0-0.4,0.1-0.7c0-0.2,0.1-0.4,0.1-0.7c0.1-0.2,0.1-0.4,0.3-0.6
			c0.1-0.2,0.3-0.3,0.4-0.4c0.2-0.1,0.4-0.1,0.6-0.1s0.5,0,0.6,0.1s0.3,0.2,0.4,0.4c0.1,0.2,0.2,0.3,0.3,0.6s0.1,0.4,0.1,0.7
			c0,0.2,0,0.4,0.1,0.7c0,0.2,0,0.4,0,0.6c0,0.3,0,0.6,0,1c0,0.4-0.1,0.7-0.2,1c-0.1,0.3-0.2,0.6-0.5,0.8c-0.2,0.2-0.5,0.3-0.9,0.3
			s-0.7-0.1-0.9-0.3c-0.2-0.2-0.4-0.5-0.5-0.8c-0.1-0.3-0.2-0.6-0.2-1S-63,67.2-63,66.9z M-64,66.9c0,0.3,0,0.6,0,0.9
			c0,0.3,0,0.6,0.1,0.9s0.1,0.6,0.2,0.8c0.1,0.3,0.3,0.5,0.4,0.7c0.2,0.2,0.4,0.3,0.7,0.5s0.6,0.2,1,0.2c0.4,0,0.7-0.1,1-0.2
			c0.3-0.1,0.5-0.3,0.7-0.5c0.2-0.2,0.3-0.4,0.4-0.7s0.2-0.5,0.2-0.8c0.1-0.3,0.1-0.6,0.1-0.9c0-0.3,0-0.6,0-0.9c0-0.3,0-0.6,0-0.9
			c0-0.3,0-0.6-0.1-0.9c-0.1-0.3-0.1-0.6-0.2-0.8c-0.1-0.3-0.3-0.5-0.4-0.7c-0.2-0.2-0.4-0.3-0.7-0.5s-0.6-0.2-1-0.2s-0.7,0.1-1,0.2
			s-0.5,0.3-0.7,0.5s-0.3,0.4-0.4,0.7c-0.1,0.3-0.2,0.5-0.2,0.8s-0.1,0.6-0.1,0.9C-64,66.4-64,66.7-64,66.9z M-57.6,69.4v1.2h1.2
			v-1.2H-57.6z M-50.6,64v-0.8h-3.7l-0.7,3.9l0.8,0c0.2-0.2,0.4-0.4,0.6-0.5c0.2-0.1,0.5-0.2,0.8-0.2c0.3,0,0.5,0,0.7,0.1
			s0.4,0.2,0.5,0.4c0.1,0.2,0.3,0.3,0.3,0.5c0.1,0.2,0.1,0.4,0.1,0.7c0,0.3,0,0.6-0.1,0.8c-0.1,0.2-0.2,0.4-0.3,0.6
			c-0.1,0.1-0.3,0.3-0.5,0.3c-0.2,0.1-0.4,0.1-0.6,0.1c-0.2,0-0.4,0-0.6-0.1s-0.4-0.2-0.5-0.3c-0.1-0.1-0.2-0.3-0.3-0.4
			c-0.1-0.2-0.1-0.3-0.1-0.5h-0.9c0,0.3,0.1,0.6,0.2,0.9c0.1,0.3,0.3,0.5,0.5,0.7c0.2,0.2,0.5,0.3,0.8,0.4c0.3,0.1,0.6,0.1,0.9,0.1
			c0.4,0,0.8-0.1,1.2-0.2c0.3-0.1,0.6-0.3,0.8-0.6c0.2-0.2,0.4-0.5,0.5-0.8c0.1-0.3,0.2-0.6,0.2-0.9c0-0.4-0.1-0.8-0.2-1.1
			c-0.1-0.3-0.3-0.6-0.5-0.8c-0.2-0.2-0.5-0.4-0.8-0.5c-0.3-0.1-0.6-0.2-0.9-0.2c-0.3,0-0.5,0-0.8,0.1s-0.5,0.2-0.6,0.4l0,0l0.4-2.2
			H-50.6z"/>
	</g>
	<g transform="translate(646.6667,360)">
		<path class="st4" d="M-40.2,70.6v-7.5h-0.7c0,0.3-0.1,0.5-0.3,0.7s-0.3,0.3-0.5,0.4c-0.2,0.1-0.4,0.2-0.7,0.2
			c-0.2,0-0.5,0.1-0.7,0.1v0.7h2v5.4H-40.2z"/>
	</g>
	<g transform="translate(905,360)">
		<path class="st4" d="M-28.3,70.6v-7.5H-29c0,0.3-0.1,0.5-0.3,0.7c-0.1,0.2-0.3,0.3-0.5,0.4c-0.2,0.1-0.4,0.2-0.7,0.2
			c-0.2,0-0.5,0.1-0.7,0.1v0.7h2v5.4H-28.3z M-25.3,69.4v1.2h1.2v-1.2H-25.3z M-18.3,64v-0.8H-22l-0.7,3.9l0.8,0
			c0.2-0.2,0.4-0.4,0.6-0.5c0.2-0.1,0.5-0.2,0.8-0.2c0.3,0,0.5,0,0.7,0.1c0.2,0.1,0.4,0.2,0.5,0.4s0.3,0.3,0.3,0.5
			c0.1,0.2,0.1,0.4,0.1,0.7c0,0.3,0,0.6-0.1,0.8c-0.1,0.2-0.2,0.4-0.3,0.6s-0.3,0.3-0.5,0.3c-0.2,0.1-0.4,0.1-0.6,0.1
			c-0.2,0-0.4,0-0.6-0.1s-0.4-0.2-0.5-0.3c-0.1-0.1-0.2-0.3-0.3-0.4c-0.1-0.2-0.1-0.3-0.1-0.5h-0.9c0,0.3,0.1,0.6,0.2,0.9
			c0.1,0.3,0.3,0.5,0.5,0.7c0.2,0.2,0.5,0.3,0.8,0.4c0.3,0.1,0.6,0.1,0.9,0.1c0.4,0,0.8-0.1,1.2-0.2c0.3-0.1,0.6-0.3,0.8-0.6
			s0.4-0.5,0.5-0.8c0.1-0.3,0.2-0.6,0.2-0.9c0-0.4-0.1-0.8-0.2-1.1c-0.1-0.3-0.3-0.6-0.5-0.8s-0.5-0.4-0.8-0.5
			c-0.3-0.1-0.6-0.2-0.9-0.2c-0.3,0-0.5,0-0.8,0.1c-0.3,0.1-0.5,0.2-0.6,0.4l0,0l0.4-2.2H-18.3z"/>
	</g>
	<g transform="translate(517.5004,373.5)">
		<path class="st4" d="M-72.3,66.5v-1.8h-1v1.8h-1v0.9h1v3.8c0,0.3,0,0.5,0.1,0.7c0.1,0.2,0.1,0.3,0.3,0.4c0.1,0.1,0.3,0.2,0.4,0.2
			c0.2,0,0.4,0.1,0.7,0.1h0.8v-0.9h-0.5c-0.2,0-0.3,0-0.4,0s-0.2,0-0.2-0.1s-0.1-0.1-0.1-0.2c0-0.1,0-0.2,0-0.3v-3.8h1.2v-0.9H-72.3
			z M-68.9,65.4v-1.2h-1v1.2H-68.9z M-69.9,66.5v6h1v-6H-69.9z M-67.4,66.5v6h1v-3.8c0-0.1,0-0.3,0.1-0.4c0.1-0.2,0.2-0.3,0.3-0.5
			c0.1-0.2,0.3-0.3,0.5-0.4c0.2-0.1,0.5-0.2,0.7-0.2c0.2,0,0.4,0,0.6,0.1c0.1,0.1,0.3,0.2,0.3,0.3c0.1,0.1,0.1,0.3,0.2,0.4
			s0.1,0.3,0.1,0.5v4h1v-3.8c0-0.5,0.1-0.8,0.4-1.1c0.3-0.3,0.7-0.4,1.2-0.4c0.2,0,0.4,0,0.6,0.1c0.2,0.1,0.3,0.2,0.4,0.3
			c0.1,0.1,0.1,0.3,0.2,0.4c0,0.2,0,0.3,0,0.5v4h1v-4.4c0-0.3,0-0.6-0.1-0.8s-0.2-0.4-0.4-0.5c-0.2-0.1-0.4-0.2-0.6-0.3
			s-0.5-0.1-0.8-0.1c-0.4,0-0.8,0.1-1.1,0.3c-0.3,0.2-0.6,0.4-0.8,0.8c-0.1-0.4-0.3-0.6-0.6-0.8s-0.6-0.2-1-0.2c-0.8,0-1.5,0.3-2,1
			h0v-0.9H-67.4z M-53.2,68.9h-3.5c0-0.2,0.1-0.5,0.2-0.7c0.1-0.2,0.2-0.4,0.4-0.5c0.1-0.2,0.3-0.3,0.5-0.4c0.2-0.1,0.4-0.1,0.7-0.1
			c0.2,0,0.5,0,0.7,0.1c0.2,0.1,0.4,0.2,0.5,0.4c0.2,0.2,0.3,0.3,0.4,0.5C-53.3,68.5-53.2,68.7-53.2,68.9z M-52.3,70.6h-1
			c-0.1,0.4-0.3,0.7-0.5,0.9c-0.3,0.2-0.6,0.3-1,0.3c-0.3,0-0.6-0.1-0.9-0.2c-0.2-0.1-0.4-0.3-0.6-0.4s-0.3-0.4-0.3-0.6
			c-0.1-0.2-0.1-0.5-0.1-0.8h4.5c0-0.4,0-0.8-0.1-1.2c-0.1-0.4-0.2-0.8-0.4-1.1c-0.2-0.3-0.5-0.6-0.9-0.8c-0.4-0.2-0.8-0.3-1.3-0.3
			c-0.4,0-0.8,0.1-1.1,0.2s-0.6,0.4-0.9,0.7c-0.3,0.3-0.4,0.6-0.6,1c-0.1,0.4-0.2,0.8-0.2,1.3c0,0.5,0.1,0.9,0.2,1.3
			c0.1,0.4,0.3,0.7,0.5,1c0.2,0.3,0.5,0.5,0.9,0.7c0.4,0.2,0.8,0.2,1.3,0.2c0.7,0,1.3-0.2,1.7-0.5C-52.7,71.8-52.4,71.3-52.3,70.6z
			 M-46.3,74.8h0.8c-0.6-0.9-0.9-1.8-1.2-2.7c-0.2-0.9-0.4-1.8-0.4-2.8c0-1,0.1-1.9,0.4-2.7c0.2-0.9,0.6-1.8,1.2-2.6h-0.8
			c-0.6,0.8-1.1,1.7-1.4,2.6c-0.3,0.9-0.5,1.9-0.5,2.8c0,0.5,0,1,0.1,1.5c0.1,0.5,0.2,0.9,0.4,1.4c0.2,0.4,0.4,0.9,0.6,1.3
			C-46.8,74-46.5,74.4-46.3,74.8z M-44.3,70.6h-1c0,0.4,0.1,0.7,0.2,1c0.1,0.3,0.3,0.5,0.6,0.6s0.5,0.3,0.8,0.3
			c0.3,0.1,0.6,0.1,1,0.1c0.3,0,0.6,0,0.9-0.1c0.3-0.1,0.6-0.2,0.8-0.3s0.4-0.3,0.6-0.6c0.2-0.2,0.2-0.5,0.2-0.9
			c0-0.3-0.1-0.5-0.2-0.7c-0.1-0.2-0.3-0.4-0.4-0.5c-0.2-0.1-0.4-0.2-0.6-0.3c-0.2-0.1-0.5-0.1-0.7-0.2c-0.2-0.1-0.5-0.1-0.7-0.2
			s-0.4-0.1-0.6-0.2c-0.2-0.1-0.3-0.2-0.5-0.3c-0.1-0.1-0.2-0.3-0.2-0.4c0-0.2,0-0.3,0.1-0.4c0.1-0.1,0.2-0.2,0.3-0.2
			c0.1-0.1,0.3-0.1,0.4-0.1c0.2,0,0.3,0,0.4,0c0.2,0,0.3,0,0.5,0.1c0.2,0,0.3,0.1,0.4,0.2c0.1,0.1,0.2,0.2,0.3,0.3s0.1,0.3,0.2,0.5
			h1c0-0.4-0.1-0.7-0.2-0.9s-0.3-0.4-0.5-0.6c-0.2-0.1-0.5-0.2-0.8-0.3c-0.3-0.1-0.6-0.1-0.9-0.1c-0.3,0-0.5,0-0.8,0.1
			c-0.3,0.1-0.5,0.2-0.7,0.3c-0.2,0.1-0.4,0.3-0.5,0.5c-0.1,0.2-0.2,0.5-0.2,0.8c0,0.4,0.1,0.7,0.3,0.9c0.2,0.2,0.4,0.4,0.7,0.5
			s0.6,0.2,1,0.3c0.3,0.1,0.7,0.1,1,0.2c0.3,0.1,0.5,0.2,0.7,0.3c0.2,0.1,0.3,0.3,0.3,0.6c0,0.2,0,0.3-0.1,0.5
			c-0.1,0.1-0.2,0.2-0.4,0.3c-0.1,0.1-0.3,0.1-0.5,0.1c-0.2,0-0.3,0-0.5,0c-0.2,0-0.4,0-0.6-0.1c-0.2,0-0.4-0.1-0.5-0.2
			c-0.2-0.1-0.3-0.2-0.4-0.4C-44.2,71-44.2,70.8-44.3,70.6z M-34.8,68.9h-3.5c0-0.2,0.1-0.5,0.2-0.7c0.1-0.2,0.2-0.4,0.4-0.5
			c0.1-0.2,0.3-0.3,0.5-0.4c0.2-0.1,0.4-0.1,0.7-0.1c0.2,0,0.5,0,0.7,0.1c0.2,0.1,0.4,0.2,0.5,0.4c0.2,0.2,0.3,0.3,0.4,0.5
			S-34.8,68.7-34.8,68.9z M-33.9,70.6h-1c-0.1,0.4-0.3,0.7-0.5,0.9c-0.3,0.2-0.6,0.3-1,0.3c-0.3,0-0.6-0.1-0.9-0.2
			c-0.2-0.1-0.4-0.3-0.6-0.4s-0.3-0.4-0.3-0.6s-0.1-0.5-0.1-0.8h4.5c0-0.4,0-0.8-0.1-1.2s-0.2-0.8-0.4-1.1c-0.2-0.3-0.5-0.6-0.9-0.8
			c-0.4-0.2-0.8-0.3-1.3-0.3c-0.4,0-0.8,0.1-1.1,0.2s-0.6,0.4-0.9,0.7c-0.3,0.3-0.4,0.6-0.6,1c-0.1,0.4-0.2,0.8-0.2,1.3
			c0,0.5,0.1,0.9,0.2,1.3c0.1,0.4,0.3,0.7,0.5,1c0.2,0.3,0.5,0.5,0.9,0.7c0.4,0.2,0.8,0.2,1.3,0.2c0.7,0,1.3-0.2,1.7-0.5
			C-34.3,71.8-34,71.3-33.9,70.6z M-28.6,68.4h1c0-0.4-0.1-0.7-0.3-0.9c-0.1-0.3-0.3-0.5-0.6-0.6s-0.5-0.3-0.8-0.4
			c-0.3-0.1-0.6-0.1-1-0.1c-0.5,0-0.9,0.1-1.3,0.3c-0.4,0.2-0.7,0.4-0.9,0.7c-0.2,0.3-0.4,0.6-0.5,1s-0.2,0.8-0.2,1.3
			c0,0.5,0.1,0.9,0.2,1.2c0.1,0.4,0.3,0.7,0.5,1c0.2,0.3,0.5,0.5,0.9,0.6s0.8,0.2,1.2,0.2c0.8,0,1.4-0.2,1.8-0.6s0.7-1,0.8-1.7h-1
			c-0.1,0.5-0.2,0.8-0.5,1.1c-0.3,0.3-0.7,0.4-1.2,0.4c-0.3,0-0.6-0.1-0.8-0.2c-0.2-0.1-0.4-0.3-0.5-0.5c-0.1-0.2-0.2-0.4-0.3-0.7
			c-0.1-0.3-0.1-0.5-0.1-0.8c0-0.3,0-0.6,0.1-0.9c0.1-0.3,0.2-0.5,0.3-0.8c0.1-0.2,0.3-0.4,0.6-0.5s0.5-0.2,0.9-0.2
			c0.4,0,0.8,0.1,1,0.3C-28.9,67.8-28.7,68-28.6,68.4z M-27.3,74.8h0.7c0.6-0.8,1.1-1.7,1.4-2.6c0.3-0.9,0.5-1.9,0.5-2.8
			c0-0.5,0-1-0.1-1.5c-0.1-0.5-0.2-0.9-0.4-1.4s-0.4-0.9-0.6-1.3c-0.2-0.4-0.5-0.9-0.8-1.3h-0.7c0.5,0.9,0.9,1.8,1.2,2.7
			c0.2,0.9,0.4,1.8,0.4,2.8c0,1-0.1,1.9-0.4,2.7S-26.8,74-27.3,74.8z"/>
	</g>
	<g>
		<line class="st3" x1="56.9" y1="415.8" x2="56.9" y2="80"/>
		<line class="st3" x1="880.3" y1="415.8" x2="880.3" y2="80"/>
		<line class="st3" x1="56.9" y1="415.8" x2="65.1" y2="415.8"/>
		<line class="st3" x1="56.9" y1="382.2" x2="65.1" y2="382.2"/>
		<line class="st3" x1="56.9" y1="348.6" x2="65.1" y2="348.6"/>
		<line class="st3" x1="56.9" y1="315" x2="65.1" y2="315"/>
		<line class="st3" x1="56.9" y1="281.5" x2="65.1" y2="281.5"/>
		<line class="st3" x1="56.9" y1="247.9" x2="65.1" y2="247.9"/>
		<line class="st3" x1="56.9" y1="214.3" x2="65.1" y2="214.3"/>
		<line class="st3" x1="56.9" y1="180.7" x2="65.1" y2="180.7"/>
		<line class="st3" x1="56.9" y1="147.1" x2="65.1" y2="147.1"/>
		<line class="st3" x1="56.9" y1="113.6" x2="65.1" y2="113.6"/>
		<line class="st3" x1="56.9" y1="80" x2="65.1" y2="80"/>
		<line class="st3" x1="880.3" y1="415.8" x2="872.1" y2="415.8"/>
		<line class="st3" x1="880.3" y1="382.2" x2="872.1" y2="382.2"/>
		<line class="st3" x1="880.3" y1="348.6" x2="872.1" y2="348.6"/>
		<line class="st3" x1="880.3" y1="315" x2="872.1" y2="315"/>
		<line class="st3" x1="880.3" y1="281.5" x2="872.1" y2="281.5"/>
		<line class="st3" x1="880.3" y1="247.9" x2="872.1" y2="247.9"/>
		<line class="st3" x1="880.3" y1="214.3" x2="872.1" y2="214.3"/>
		<line class="st3" x1="880.3" y1="180.7" x2="872.1" y2="180.7"/>
		<line class="st3" x1="880.3" y1="147.1" x2="872.1" y2="147.1"/>
		<line class="st3" x1="880.3" y1="113.6" x2="872.1" y2="113.6"/>
		<line class="st3" x1="880.3" y1="80" x2="872.1" y2="80"/>
	</g>
	<g transform="translate(126,356)">
		<path class="st4" d="M-98.3,60.1v0.8h3.1v-0.8H-98.3z M-93.3,59.8c0-0.2,0-0.4,0-0.6c0-0.2,0-0.4,0.1-0.7s0.1-0.4,0.1-0.7
			c0.1-0.2,0.1-0.4,0.3-0.6s0.3-0.3,0.4-0.4s0.4-0.1,0.6-0.1s0.5,0,0.6,0.1s0.3,0.2,0.4,0.4c0.1,0.2,0.2,0.3,0.3,0.6
			c0.1,0.2,0.1,0.4,0.1,0.7s0,0.4,0.1,0.7s0,0.4,0,0.6c0,0.3,0,0.6,0,1s-0.1,0.7-0.2,1c-0.1,0.3-0.2,0.6-0.5,0.8
			c-0.2,0.2-0.5,0.3-0.9,0.3s-0.7-0.1-0.9-0.3c-0.2-0.2-0.4-0.5-0.5-0.8c-0.1-0.3-0.2-0.6-0.2-1S-93.3,60-93.3,59.8z M-94.3,59.8
			c0,0.3,0,0.6,0,0.9s0,0.6,0.1,0.9c0.1,0.3,0.1,0.6,0.2,0.8c0.1,0.3,0.3,0.5,0.4,0.7c0.2,0.2,0.4,0.3,0.7,0.5
			c0.3,0.1,0.6,0.2,1,0.2c0.4,0,0.7-0.1,1-0.2c0.3-0.1,0.5-0.3,0.7-0.5s0.3-0.4,0.4-0.7c0.1-0.3,0.2-0.5,0.2-0.8
			c0.1-0.3,0.1-0.6,0.1-0.9s0-0.6,0-0.9c0-0.3,0-0.6,0-0.9s0-0.6-0.1-0.9c-0.1-0.3-0.1-0.6-0.2-0.8c-0.1-0.3-0.3-0.5-0.4-0.7
			s-0.4-0.3-0.7-0.5c-0.3-0.1-0.6-0.2-1-0.2s-0.7,0.1-1,0.2c-0.3,0.1-0.5,0.3-0.7,0.5c-0.2,0.2-0.3,0.4-0.4,0.7
			c-0.1,0.3-0.2,0.5-0.2,0.8c-0.1,0.3-0.1,0.6-0.1,0.9S-94.3,59.5-94.3,59.8z M-88,62.3v1.2h1.2v-1.2H-88z M-85.4,58.6h0.9
			c0-0.2,0-0.5,0.1-0.7c0.1-0.2,0.1-0.4,0.3-0.6s0.3-0.3,0.5-0.4c0.2-0.1,0.4-0.2,0.7-0.2c0.2,0,0.4,0,0.6,0.1
			c0.2,0.1,0.3,0.2,0.5,0.3c0.1,0.1,0.2,0.3,0.3,0.4c0.1,0.2,0.1,0.4,0.1,0.6c0,0.3,0,0.5-0.1,0.7c-0.1,0.2-0.2,0.4-0.4,0.6
			c-0.2,0.2-0.4,0.3-0.6,0.5s-0.5,0.3-0.8,0.5c-0.3,0.2-0.5,0.3-0.8,0.5s-0.5,0.4-0.6,0.6c-0.2,0.2-0.3,0.5-0.5,0.8
			c-0.1,0.3-0.2,0.7-0.2,1.1h4.9v-0.8h-3.9c0-0.2,0.1-0.4,0.3-0.6c0.1-0.2,0.3-0.3,0.5-0.5c0.2-0.2,0.4-0.3,0.6-0.4
			c0.2-0.1,0.5-0.3,0.7-0.4c0.2-0.1,0.5-0.3,0.7-0.5c0.2-0.2,0.4-0.3,0.6-0.5c0.2-0.2,0.3-0.4,0.4-0.7c0.1-0.3,0.2-0.5,0.2-0.9
			c0-0.4-0.1-0.7-0.2-0.9c-0.1-0.3-0.3-0.5-0.5-0.7s-0.5-0.3-0.7-0.4c-0.3-0.1-0.6-0.1-0.9-0.1c-0.4,0-0.8,0.1-1.1,0.2
			s-0.6,0.3-0.8,0.6c-0.2,0.2-0.4,0.5-0.5,0.8S-85.4,58.2-85.4,58.6z M-75,56.9v-0.8h-3.7l-0.7,3.9l0.8,0c0.2-0.2,0.4-0.4,0.6-0.5
			s0.5-0.2,0.8-0.2c0.3,0,0.5,0,0.7,0.1c0.2,0.1,0.4,0.2,0.5,0.4c0.1,0.2,0.3,0.3,0.3,0.5s0.1,0.4,0.1,0.7c0,0.3,0,0.6-0.1,0.8
			c-0.1,0.2-0.2,0.4-0.3,0.6s-0.3,0.3-0.5,0.3c-0.2,0.1-0.4,0.1-0.6,0.1c-0.2,0-0.4,0-0.6-0.1c-0.2-0.1-0.4-0.2-0.5-0.3
			c-0.1-0.1-0.2-0.3-0.3-0.4s-0.1-0.3-0.1-0.5h-0.9c0,0.3,0.1,0.6,0.2,0.9c0.1,0.3,0.3,0.5,0.5,0.7c0.2,0.2,0.5,0.3,0.8,0.4
			c0.3,0.1,0.6,0.1,0.9,0.1c0.4,0,0.8-0.1,1.2-0.2s0.6-0.3,0.8-0.6c0.2-0.2,0.4-0.5,0.5-0.8c0.1-0.3,0.2-0.6,0.2-0.9
			c0-0.4-0.1-0.8-0.2-1.1c-0.1-0.3-0.3-0.6-0.5-0.8c-0.2-0.2-0.5-0.4-0.8-0.5c-0.3-0.1-0.6-0.2-0.9-0.2c-0.3,0-0.5,0-0.8,0.1
			c-0.3,0.1-0.5,0.2-0.6,0.4l0,0l0.4-2.2H-75z"/>
	</g>
	<g transform="translate(126,324.4)">
		<path class="st4" d="M-92,58.1V59h3.1v-0.9H-92z M-87,57.8c0-0.2,0-0.4,0-0.6s0-0.4,0.1-0.7c0-0.2,0.1-0.4,0.1-0.7
			c0.1-0.2,0.1-0.4,0.3-0.6c0.1-0.2,0.3-0.3,0.4-0.4c0.2-0.1,0.4-0.1,0.6-0.1s0.5,0,0.6,0.1s0.3,0.2,0.4,0.4
			c0.1,0.2,0.2,0.3,0.3,0.6c0.1,0.2,0.1,0.4,0.1,0.7c0,0.2,0,0.4,0.1,0.7s0,0.4,0,0.6c0,0.3,0,0.6,0,1c0,0.4-0.1,0.7-0.2,1
			c-0.1,0.3-0.2,0.6-0.5,0.8c-0.2,0.2-0.5,0.3-0.9,0.3s-0.7-0.1-0.9-0.3c-0.2-0.2-0.4-0.5-0.5-0.8c-0.1-0.3-0.2-0.6-0.2-1
			C-87,58.4-87,58.1-87,57.8z M-87.9,57.8c0,0.3,0,0.6,0,0.9s0,0.6,0.1,0.9c0.1,0.3,0.1,0.6,0.2,0.8c0.1,0.3,0.3,0.5,0.4,0.7
			c0.2,0.2,0.4,0.3,0.7,0.5c0.3,0.1,0.6,0.2,1,0.2c0.4,0,0.7-0.1,1-0.2c0.3-0.1,0.5-0.3,0.7-0.5s0.3-0.4,0.4-0.7
			c0.1-0.3,0.2-0.5,0.2-0.8c0.1-0.3,0.1-0.6,0.1-0.9s0-0.6,0-0.9s0-0.6,0-0.9s0-0.6-0.1-0.9c-0.1-0.3-0.1-0.6-0.2-0.8
			c-0.1-0.3-0.3-0.5-0.4-0.7c-0.2-0.2-0.4-0.3-0.7-0.5c-0.3-0.1-0.6-0.2-1-0.2c-0.4,0-0.7,0.1-1,0.2c-0.3,0.1-0.5,0.3-0.7,0.5
			c-0.2,0.2-0.3,0.4-0.4,0.7c-0.1,0.3-0.2,0.5-0.2,0.8c-0.1,0.3-0.1,0.6-0.1,0.9S-87.9,57.5-87.9,57.8z M-81.6,60.3v1.2h1.2v-1.2
			H-81.6z M-79,56.6h0.9c0-0.2,0-0.5,0.1-0.7c0.1-0.2,0.1-0.4,0.3-0.6c0.1-0.2,0.3-0.3,0.5-0.4s0.4-0.2,0.7-0.2c0.2,0,0.4,0,0.6,0.1
			c0.2,0.1,0.3,0.2,0.5,0.3c0.1,0.1,0.2,0.3,0.3,0.4c0.1,0.2,0.1,0.4,0.1,0.6c0,0.3,0,0.5-0.1,0.7s-0.2,0.4-0.4,0.6
			c-0.2,0.2-0.4,0.3-0.6,0.5s-0.5,0.3-0.8,0.5c-0.3,0.2-0.5,0.3-0.8,0.5c-0.2,0.2-0.5,0.4-0.6,0.6c-0.2,0.2-0.3,0.5-0.5,0.8
			c-0.1,0.3-0.2,0.7-0.2,1.1h4.9v-0.8h-3.9c0-0.2,0.1-0.4,0.3-0.6c0.1-0.2,0.3-0.3,0.5-0.5s0.4-0.3,0.6-0.4c0.2-0.1,0.5-0.3,0.7-0.4
			c0.2-0.1,0.5-0.3,0.7-0.5c0.2-0.2,0.4-0.3,0.6-0.5s0.3-0.4,0.4-0.7c0.1-0.3,0.2-0.5,0.2-0.9c0-0.4-0.1-0.7-0.2-0.9
			c-0.1-0.3-0.3-0.5-0.5-0.7s-0.5-0.3-0.7-0.4C-76,54-76.3,54-76.6,54c-0.4,0-0.8,0.1-1.1,0.2s-0.6,0.3-0.8,0.6
			c-0.2,0.2-0.4,0.5-0.5,0.8C-79,55.9-79.1,56.2-79,56.6z"/>
	</g>
	<g transform="translate(126,292.8)">
		<path class="st4" d="M-98.3,56.1V57h3.1v-0.8H-98.3z M-93.3,55.8c0-0.2,0-0.4,0-0.6c0-0.2,0-0.4,0.1-0.7s0.1-0.4,0.1-0.7
			c0.1-0.2,0.1-0.4,0.3-0.6s0.3-0.3,0.4-0.4s0.4-0.1,0.6-0.1s0.5,0,0.6,0.1s0.3,0.2,0.4,0.4c0.1,0.2,0.2,0.3,0.3,0.6
			c0.1,0.2,0.1,0.4,0.1,0.7s0,0.4,0.1,0.7s0,0.4,0,0.6c0,0.3,0,0.6,0,1s-0.1,0.7-0.2,1c-0.1,0.3-0.2,0.6-0.5,0.8
			c-0.2,0.2-0.5,0.3-0.9,0.3s-0.7-0.1-0.9-0.3c-0.2-0.2-0.4-0.5-0.5-0.8c-0.1-0.3-0.2-0.6-0.2-1S-93.3,56.1-93.3,55.8z M-94.3,55.8
			c0,0.3,0,0.6,0,0.9s0,0.6,0.1,0.9c0.1,0.3,0.1,0.6,0.2,0.8c0.1,0.3,0.3,0.5,0.4,0.7c0.2,0.2,0.4,0.3,0.7,0.5
			c0.3,0.1,0.6,0.2,1,0.2c0.4,0,0.7-0.1,1-0.2c0.3-0.1,0.5-0.3,0.7-0.5s0.3-0.4,0.4-0.7c0.1-0.3,0.2-0.5,0.2-0.8
			c0.1-0.3,0.1-0.6,0.1-0.9s0-0.6,0-0.9c0-0.3,0-0.6,0-0.9s0-0.6-0.1-0.9c-0.1-0.3-0.1-0.6-0.2-0.8c-0.1-0.3-0.3-0.5-0.4-0.7
			s-0.4-0.3-0.7-0.5c-0.3-0.1-0.6-0.2-1-0.2s-0.7,0.1-1,0.2c-0.3,0.1-0.5,0.3-0.7,0.5c-0.2,0.2-0.3,0.4-0.4,0.7
			c-0.1,0.3-0.2,0.5-0.2,0.8c-0.1,0.3-0.1,0.6-0.1,0.9S-94.3,55.5-94.3,55.8z M-88,58.3v1.2h1.2v-1.2H-88z M-82.1,59.5V52h-0.7
			c0,0.3-0.1,0.5-0.3,0.7s-0.3,0.3-0.5,0.4c-0.2,0.1-0.4,0.2-0.7,0.2c-0.2,0-0.5,0.1-0.7,0.1v0.7h2v5.4H-82.1z M-75,52.9v-0.8h-3.7
			l-0.7,3.9l0.8,0c0.2-0.2,0.4-0.4,0.6-0.5s0.5-0.2,0.8-0.2c0.3,0,0.5,0,0.7,0.1c0.2,0.1,0.4,0.2,0.5,0.4c0.1,0.2,0.3,0.3,0.3,0.5
			s0.1,0.4,0.1,0.7c0,0.3,0,0.6-0.1,0.8s-0.2,0.4-0.3,0.6s-0.3,0.3-0.5,0.3c-0.2,0.1-0.4,0.1-0.6,0.1c-0.2,0-0.4,0-0.6-0.1
			c-0.2-0.1-0.4-0.2-0.5-0.3c-0.1-0.1-0.2-0.3-0.3-0.4s-0.1-0.3-0.1-0.5h-0.9c0,0.3,0.1,0.6,0.2,0.9c0.1,0.3,0.3,0.5,0.5,0.7
			c0.2,0.2,0.5,0.3,0.8,0.4c0.3,0.1,0.6,0.1,0.9,0.1c0.4,0,0.8-0.1,1.2-0.2s0.6-0.3,0.8-0.6c0.2-0.2,0.4-0.5,0.5-0.8
			c0.1-0.3,0.2-0.6,0.2-0.9c0-0.4-0.1-0.8-0.2-1.1c-0.1-0.3-0.3-0.6-0.5-0.8c-0.2-0.2-0.5-0.4-0.8-0.5c-0.3-0.1-0.6-0.2-0.9-0.2
			c-0.3,0-0.5,0-0.8,0.1c-0.3,0.1-0.5,0.2-0.6,0.4l0,0l0.4-2.2H-75z"/>
	</g>
	<g transform="translate(126,261.2)">
		<path class="st4" d="M-92,54.2V55h3.1v-0.8H-92z M-87,53.8c0-0.2,0-0.4,0-0.6s0-0.4,0.1-0.7s0.1-0.4,0.1-0.7
			c0.1-0.2,0.1-0.4,0.3-0.6s0.3-0.3,0.4-0.4c0.2-0.1,0.4-0.1,0.6-0.1s0.5,0,0.6,0.1c0.2,0.1,0.3,0.2,0.4,0.4s0.2,0.3,0.3,0.6
			c0.1,0.2,0.1,0.4,0.1,0.7s0,0.4,0.1,0.7s0,0.4,0,0.6c0,0.3,0,0.6,0,1s-0.1,0.7-0.2,1c-0.1,0.3-0.2,0.6-0.5,0.8
			c-0.2,0.2-0.5,0.3-0.9,0.3s-0.7-0.1-0.9-0.3s-0.4-0.5-0.5-0.8c-0.1-0.3-0.2-0.6-0.2-1S-87,54.1-87,53.8z M-87.9,53.8
			c0,0.3,0,0.6,0,0.9s0,0.6,0.1,0.9c0.1,0.3,0.1,0.6,0.2,0.8c0.1,0.3,0.3,0.5,0.4,0.7c0.2,0.2,0.4,0.3,0.7,0.5
			c0.3,0.1,0.6,0.2,1,0.2c0.4,0,0.7-0.1,1-0.2c0.3-0.1,0.5-0.3,0.7-0.5s0.3-0.4,0.4-0.7c0.1-0.3,0.2-0.5,0.2-0.8
			c0.1-0.3,0.1-0.6,0.1-0.9s0-0.6,0-0.9c0-0.3,0-0.6,0-0.9s0-0.6-0.1-0.9c-0.1-0.3-0.1-0.6-0.2-0.8c-0.1-0.3-0.3-0.5-0.4-0.7
			s-0.4-0.3-0.7-0.5s-0.6-0.2-1-0.2c-0.4,0-0.7,0.1-1,0.2c-0.3,0.1-0.5,0.3-0.7,0.5c-0.2,0.2-0.3,0.4-0.4,0.7
			c-0.1,0.3-0.2,0.5-0.2,0.8c-0.1,0.3-0.1,0.6-0.1,0.9S-87.9,53.6-87.9,53.8z M-81.6,56.4v1.2h1.2v-1.2H-81.6z M-75.7,57.5V50h-0.7
			c0,0.3-0.1,0.5-0.3,0.7s-0.3,0.3-0.5,0.4c-0.2,0.1-0.4,0.2-0.7,0.2c-0.2,0-0.5,0.1-0.7,0.1v0.7h2v5.4H-75.7z"/>
	</g>
	<g transform="translate(126,229.6)">
		<path class="st4" d="M-98.3,52.2V53h3.1v-0.9H-98.3z M-93.3,51.9c0-0.2,0-0.4,0-0.6c0-0.2,0-0.4,0.1-0.7c0-0.2,0.1-0.4,0.1-0.7
			c0.1-0.2,0.1-0.4,0.3-0.6c0.1-0.2,0.3-0.3,0.4-0.4s0.4-0.1,0.6-0.1s0.5,0,0.6,0.1s0.3,0.2,0.4,0.4c0.1,0.2,0.2,0.3,0.3,0.6
			c0.1,0.2,0.1,0.4,0.1,0.7c0,0.2,0,0.4,0.1,0.7s0,0.4,0,0.6c0,0.3,0,0.6,0,1c0,0.4-0.1,0.7-0.2,1c-0.1,0.3-0.2,0.6-0.5,0.8
			c-0.2,0.2-0.5,0.3-0.9,0.3s-0.7-0.1-0.9-0.3c-0.2-0.2-0.4-0.5-0.5-0.8c-0.1-0.3-0.2-0.6-0.2-1C-93.3,52.5-93.3,52.1-93.3,51.9z
			 M-94.3,51.9c0,0.3,0,0.6,0,0.9s0,0.6,0.1,0.9c0.1,0.3,0.1,0.6,0.2,0.8c0.1,0.3,0.3,0.5,0.4,0.7c0.2,0.2,0.4,0.3,0.7,0.5
			c0.3,0.1,0.6,0.2,1,0.2c0.4,0,0.7-0.1,1-0.2c0.3-0.1,0.5-0.3,0.7-0.5s0.3-0.4,0.4-0.7c0.1-0.3,0.2-0.5,0.2-0.8
			c0.1-0.3,0.1-0.6,0.1-0.9s0-0.6,0-0.9s0-0.6,0-0.9c0-0.3,0-0.6-0.1-0.9c-0.1-0.3-0.1-0.6-0.2-0.8c-0.1-0.3-0.3-0.5-0.4-0.7
			c-0.2-0.2-0.4-0.3-0.7-0.5c-0.3-0.1-0.6-0.2-1-0.2s-0.7,0.1-1,0.2c-0.3,0.1-0.5,0.3-0.7,0.5c-0.2,0.2-0.3,0.4-0.4,0.7
			c-0.1,0.3-0.2,0.5-0.2,0.8c-0.1,0.3-0.1,0.6-0.1,0.9C-94.3,51.3-94.3,51.6-94.3,51.9z M-88,54.4v1.2h1.2v-1.2H-88z M-84.5,51.9
			c0-0.2,0-0.4,0-0.6c0-0.2,0-0.4,0.1-0.7c0-0.2,0.1-0.4,0.1-0.7c0.1-0.2,0.1-0.4,0.3-0.6c0.1-0.2,0.3-0.3,0.4-0.4
			c0.2-0.1,0.4-0.1,0.6-0.1c0.3,0,0.5,0,0.6,0.1c0.2,0.1,0.3,0.2,0.4,0.4c0.1,0.2,0.2,0.3,0.3,0.6c0.1,0.2,0.1,0.4,0.1,0.7
			c0,0.2,0,0.4,0.1,0.7s0,0.4,0,0.6c0,0.3,0,0.6,0,1c0,0.4-0.1,0.7-0.2,1c-0.1,0.3-0.2,0.6-0.5,0.8c-0.2,0.2-0.5,0.3-0.9,0.3
			s-0.7-0.1-0.9-0.3c-0.2-0.2-0.4-0.5-0.5-0.8c-0.1-0.3-0.2-0.6-0.2-1C-84.5,52.5-84.5,52.1-84.5,51.9z M-85.4,51.9
			c0,0.3,0,0.6,0,0.9s0,0.6,0.1,0.9c0.1,0.3,0.1,0.6,0.2,0.8c0.1,0.3,0.3,0.5,0.4,0.7s0.4,0.3,0.7,0.5s0.6,0.2,1,0.2
			c0.4,0,0.7-0.1,1-0.2c0.3-0.1,0.5-0.3,0.7-0.5s0.3-0.4,0.4-0.7c0.1-0.3,0.2-0.5,0.2-0.8s0.1-0.6,0.1-0.9c0-0.3,0-0.6,0-0.9
			s0-0.6,0-0.9c0-0.3,0-0.6-0.1-0.9c-0.1-0.3-0.1-0.6-0.2-0.8c-0.1-0.3-0.3-0.5-0.4-0.7c-0.2-0.2-0.4-0.3-0.7-0.5
			c-0.3-0.1-0.6-0.2-1-0.2c-0.4,0-0.7,0.1-1,0.2c-0.3,0.1-0.5,0.3-0.7,0.5c-0.2,0.2-0.3,0.4-0.4,0.7s-0.2,0.5-0.2,0.8
			c-0.1,0.3-0.1,0.6-0.1,0.9C-85.4,51.3-85.4,51.6-85.4,51.9z M-75,49v-0.8h-3.7l-0.7,3.9l0.8,0c0.2-0.2,0.4-0.4,0.6-0.5
			c0.2-0.1,0.5-0.2,0.8-0.2c0.3,0,0.5,0,0.7,0.1c0.2,0.1,0.4,0.2,0.5,0.4s0.3,0.3,0.3,0.5s0.1,0.4,0.1,0.7c0,0.3,0,0.6-0.1,0.8
			s-0.2,0.4-0.3,0.6s-0.3,0.3-0.5,0.3c-0.2,0.1-0.4,0.1-0.6,0.1c-0.2,0-0.4,0-0.6-0.1c-0.2-0.1-0.4-0.2-0.5-0.3
			c-0.1-0.1-0.2-0.3-0.3-0.4s-0.1-0.3-0.1-0.5h-0.9c0,0.3,0.1,0.6,0.2,0.9c0.1,0.3,0.3,0.5,0.5,0.7c0.2,0.2,0.5,0.3,0.8,0.4
			c0.3,0.1,0.6,0.1,0.9,0.1c0.4,0,0.8-0.1,1.2-0.2c0.3-0.1,0.6-0.3,0.8-0.6c0.2-0.2,0.4-0.5,0.5-0.8c0.1-0.3,0.2-0.6,0.2-0.9
			c0-0.4-0.1-0.8-0.2-1.1c-0.1-0.3-0.3-0.6-0.5-0.8c-0.2-0.2-0.5-0.4-0.8-0.5s-0.6-0.2-0.9-0.2c-0.3,0-0.5,0-0.8,0.1
			c-0.3,0.1-0.5,0.2-0.6,0.4l0,0L-78,49H-75z"/>
	</g>
	<g transform="translate(126,198)">
		<path class="st4" d="M-78.3,49.9c0-0.2,0-0.4,0-0.6s0-0.4,0.1-0.7s0.1-0.4,0.1-0.7c0.1-0.2,0.1-0.4,0.3-0.6s0.3-0.3,0.4-0.4
			s0.4-0.1,0.6-0.1s0.5,0,0.6,0.1s0.3,0.2,0.4,0.4c0.1,0.2,0.2,0.3,0.3,0.6c0.1,0.2,0.1,0.4,0.1,0.7s0,0.4,0.1,0.7s0,0.4,0,0.6
			c0,0.3,0,0.6,0,1s-0.1,0.7-0.2,1c-0.1,0.3-0.2,0.6-0.5,0.8c-0.2,0.2-0.5,0.3-0.9,0.3s-0.7-0.1-0.9-0.3c-0.2-0.2-0.4-0.5-0.5-0.8
			c-0.1-0.3-0.2-0.6-0.2-1S-78.3,50.2-78.3,49.9z M-79.3,49.9c0,0.3,0,0.6,0,0.9s0,0.6,0.1,0.9c0.1,0.3,0.1,0.6,0.2,0.8
			c0.1,0.3,0.3,0.5,0.4,0.7c0.2,0.2,0.4,0.3,0.7,0.5c0.3,0.1,0.6,0.2,1,0.2c0.4,0,0.7-0.1,1-0.2c0.3-0.1,0.5-0.3,0.7-0.5
			s0.3-0.4,0.4-0.7c0.1-0.3,0.2-0.5,0.2-0.8c0.1-0.3,0.1-0.6,0.1-0.9s0-0.6,0-0.9c0-0.3,0-0.6,0-0.9s0-0.6-0.1-0.9
			c-0.1-0.3-0.1-0.6-0.2-0.8c-0.1-0.3-0.3-0.5-0.4-0.7s-0.4-0.3-0.7-0.5c-0.3-0.1-0.6-0.2-1-0.2c-0.4,0-0.7,0.1-1,0.2
			c-0.3,0.1-0.5,0.3-0.7,0.5c-0.2,0.2-0.3,0.4-0.4,0.7c-0.1,0.3-0.2,0.5-0.2,0.8c-0.1,0.3-0.1,0.6-0.1,0.9S-79.3,49.6-79.3,49.9z"/>
	</g>
	<g transform="translate(126,166.4)">
		<path class="st4" d="M-93.2,47.9c0-0.2,0-0.4,0-0.6s0-0.4,0.1-0.7c0-0.2,0.1-0.4,0.1-0.7c0.1-0.2,0.1-0.4,0.3-0.6
			c0.1-0.2,0.3-0.3,0.4-0.4s0.4-0.1,0.6-0.1s0.5,0,0.6,0.1c0.2,0.1,0.3,0.2,0.4,0.4c0.1,0.2,0.2,0.3,0.3,0.6
			c0.1,0.2,0.1,0.4,0.1,0.7c0,0.2,0,0.4,0.1,0.7s0,0.4,0,0.6c0,0.3,0,0.6,0,1c0,0.4-0.1,0.7-0.2,1c-0.1,0.3-0.2,0.6-0.5,0.8
			c-0.2,0.2-0.5,0.3-0.9,0.3s-0.7-0.1-0.9-0.3c-0.2-0.2-0.4-0.5-0.5-0.8c-0.1-0.3-0.2-0.6-0.2-1C-93.2,48.5-93.2,48.2-93.2,47.9z
			 M-94.2,47.9c0,0.3,0,0.6,0,0.9s0,0.6,0.1,0.9c0.1,0.3,0.1,0.6,0.2,0.8c0.1,0.3,0.3,0.5,0.4,0.7c0.2,0.2,0.4,0.3,0.7,0.5
			c0.3,0.1,0.6,0.2,1,0.2c0.4,0,0.7-0.1,1-0.2c0.3-0.1,0.5-0.3,0.7-0.5s0.3-0.4,0.4-0.7c0.1-0.3,0.2-0.5,0.2-0.8
			c0.1-0.3,0.1-0.6,0.1-0.9s0-0.6,0-0.9s0-0.6,0-0.9s0-0.6-0.1-0.9c-0.1-0.3-0.1-0.6-0.2-0.8c-0.1-0.3-0.3-0.5-0.4-0.7
			c-0.2-0.2-0.4-0.3-0.7-0.5c-0.3-0.1-0.6-0.2-1-0.2s-0.7,0.1-1,0.2c-0.3,0.1-0.5,0.3-0.7,0.5c-0.2,0.2-0.3,0.4-0.4,0.7
			c-0.1,0.3-0.2,0.5-0.2,0.8c-0.1,0.3-0.1,0.6-0.1,0.9S-94.2,47.6-94.2,47.9z M-87.8,50.4v1.2h1.2v-1.2H-87.8z M-84.4,47.9
			c0-0.2,0-0.4,0-0.6c0-0.2,0-0.4,0.1-0.7c0-0.2,0.1-0.4,0.1-0.7c0.1-0.2,0.1-0.4,0.3-0.6c0.1-0.2,0.3-0.3,0.4-0.4
			c0.2-0.1,0.4-0.1,0.6-0.1c0.3,0,0.5,0,0.6,0.1c0.2,0.1,0.3,0.2,0.4,0.4c0.1,0.2,0.2,0.3,0.3,0.6c0.1,0.2,0.1,0.4,0.1,0.7
			c0,0.2,0,0.4,0.1,0.7s0,0.4,0,0.6c0,0.3,0,0.6,0,1c0,0.4-0.1,0.7-0.2,1c-0.1,0.3-0.2,0.6-0.5,0.8c-0.2,0.2-0.5,0.3-0.9,0.3
			s-0.7-0.1-0.9-0.3c-0.2-0.2-0.4-0.5-0.5-0.8s-0.2-0.6-0.2-1C-84.4,48.5-84.4,48.2-84.4,47.9z M-85.3,47.9c0,0.3,0,0.6,0,0.9
			s0,0.6,0.1,0.9c0.1,0.3,0.1,0.6,0.2,0.8c0.1,0.3,0.3,0.5,0.4,0.7s0.4,0.3,0.7,0.5c0.3,0.1,0.6,0.2,1,0.2c0.4,0,0.7-0.1,1-0.2
			c0.3-0.1,0.5-0.3,0.7-0.5s0.3-0.4,0.4-0.7c0.1-0.3,0.2-0.5,0.2-0.8s0.1-0.6,0.1-0.9c0-0.3,0-0.6,0-0.9s0-0.6,0-0.9
			c0-0.3,0-0.6-0.1-0.9c-0.1-0.3-0.1-0.6-0.2-0.8c-0.1-0.3-0.3-0.5-0.4-0.7c-0.2-0.2-0.4-0.3-0.7-0.5c-0.3-0.1-0.6-0.2-1-0.2
			c-0.4,0-0.7,0.1-1,0.2c-0.3,0.1-0.5,0.3-0.7,0.5c-0.2,0.2-0.3,0.4-0.4,0.7s-0.2,0.5-0.2,0.8c-0.1,0.3-0.1,0.6-0.1,0.9
			S-85.3,47.6-85.3,47.9z M-74.9,45v-0.8h-3.7l-0.7,3.9l0.8,0c0.2-0.2,0.4-0.4,0.6-0.5c0.2-0.1,0.5-0.2,0.8-0.2c0.3,0,0.5,0,0.7,0.1
			c0.2,0.1,0.4,0.2,0.5,0.4s0.3,0.3,0.3,0.5s0.1,0.4,0.1,0.7c0,0.3,0,0.6-0.1,0.8s-0.2,0.4-0.3,0.6c-0.1,0.1-0.3,0.3-0.5,0.3
			c-0.2,0.1-0.4,0.1-0.6,0.1c-0.2,0-0.4,0-0.6-0.1c-0.2-0.1-0.4-0.2-0.5-0.3s-0.2-0.3-0.3-0.4s-0.1-0.3-0.1-0.5h-0.9
			c0,0.3,0.1,0.6,0.2,0.9c0.1,0.3,0.3,0.5,0.5,0.7c0.2,0.2,0.5,0.3,0.8,0.4c0.3,0.1,0.6,0.1,0.9,0.1c0.4,0,0.8-0.1,1.2-0.2
			c0.3-0.1,0.6-0.3,0.8-0.6c0.2-0.2,0.4-0.5,0.5-0.8c0.1-0.3,0.2-0.6,0.2-0.9c0-0.4-0.1-0.8-0.2-1.1c-0.1-0.3-0.3-0.6-0.5-0.8
			c-0.2-0.2-0.5-0.4-0.8-0.5s-0.6-0.2-0.9-0.2c-0.3,0-0.5,0-0.8,0.1c-0.3,0.1-0.5,0.2-0.6,0.4l0,0l0.4-2.2H-74.9z"/>
	</g>
	<g transform="translate(126,134.8)">
		<path class="st4" d="M-86.8,45.9c0-0.2,0-0.4,0-0.6s0-0.4,0.1-0.7s0.1-0.4,0.1-0.7c0.1-0.2,0.1-0.4,0.3-0.6
			c0.1-0.2,0.3-0.3,0.4-0.4s0.4-0.1,0.6-0.1s0.5,0,0.6,0.1s0.3,0.2,0.4,0.4c0.1,0.2,0.2,0.3,0.3,0.6c0.1,0.2,0.1,0.4,0.1,0.7
			s0,0.4,0.1,0.7s0,0.4,0,0.6c0,0.3,0,0.6,0,1s-0.1,0.7-0.2,1c-0.1,0.3-0.2,0.6-0.5,0.8c-0.2,0.2-0.5,0.3-0.9,0.3s-0.7-0.1-0.9-0.3
			c-0.2-0.2-0.4-0.5-0.5-0.8c-0.1-0.3-0.2-0.6-0.2-1S-86.8,46.2-86.8,45.9z M-87.8,45.9c0,0.3,0,0.6,0,0.9c0,0.3,0,0.6,0.1,0.9
			c0.1,0.3,0.1,0.6,0.2,0.8c0.1,0.3,0.3,0.5,0.4,0.7c0.2,0.2,0.4,0.3,0.7,0.5c0.3,0.1,0.6,0.2,1,0.2c0.4,0,0.7-0.1,1-0.2
			c0.3-0.1,0.5-0.3,0.7-0.5s0.3-0.4,0.4-0.7c0.1-0.3,0.2-0.5,0.2-0.8c0.1-0.3,0.1-0.6,0.1-0.9c0-0.3,0-0.6,0-0.9s0-0.6,0-0.9
			s0-0.6-0.1-0.9c-0.1-0.3-0.1-0.6-0.2-0.8c-0.1-0.3-0.3-0.5-0.4-0.7s-0.4-0.3-0.7-0.5c-0.3-0.1-0.6-0.2-1-0.2c-0.4,0-0.7,0.1-1,0.2
			c-0.3,0.1-0.5,0.3-0.7,0.5c-0.2,0.2-0.3,0.4-0.4,0.7c-0.1,0.3-0.2,0.5-0.2,0.8c-0.1,0.3-0.1,0.6-0.1,0.9S-87.8,45.7-87.8,45.9z
			 M-81.5,48.5v1.2h1.2v-1.2H-81.5z M-75.6,49.6v-7.5h-0.7c0,0.3-0.1,0.5-0.3,0.7s-0.3,0.3-0.5,0.4c-0.2,0.1-0.4,0.2-0.7,0.2
			c-0.2,0-0.5,0.1-0.7,0.1v0.7h2v5.4H-75.6z"/>
	</g>
	<g transform="translate(126,103.2)">
		<path class="st4" d="M-93.2,44c0-0.2,0-0.4,0-0.6c0-0.2,0-0.4,0.1-0.7s0.1-0.4,0.1-0.7c0.1-0.2,0.1-0.4,0.3-0.6s0.3-0.3,0.4-0.4
			s0.4-0.1,0.6-0.1s0.5,0,0.6,0.1c0.2,0.1,0.3,0.2,0.4,0.4c0.1,0.2,0.2,0.3,0.3,0.6c0.1,0.2,0.1,0.4,0.1,0.7s0,0.4,0.1,0.7
			c0,0.2,0,0.4,0,0.6c0,0.3,0,0.6,0,1c0,0.4-0.1,0.7-0.2,1c-0.1,0.3-0.2,0.6-0.5,0.8c-0.2,0.2-0.5,0.3-0.9,0.3s-0.7-0.1-0.9-0.3
			c-0.2-0.2-0.4-0.5-0.5-0.8c-0.1-0.3-0.2-0.6-0.2-1C-93.2,44.6-93.2,44.2-93.2,44z M-94.2,44c0,0.3,0,0.6,0,0.9s0,0.6,0.1,0.9
			c0.1,0.3,0.1,0.6,0.2,0.8c0.1,0.3,0.3,0.5,0.4,0.7c0.2,0.2,0.4,0.3,0.7,0.5c0.3,0.1,0.6,0.2,1,0.2c0.4,0,0.7-0.1,1-0.2
			c0.3-0.1,0.5-0.3,0.7-0.5s0.3-0.4,0.4-0.7c0.1-0.3,0.2-0.5,0.2-0.8c0.1-0.3,0.1-0.6,0.1-0.9s0-0.6,0-0.9c0-0.3,0-0.6,0-0.9
			c0-0.3,0-0.6-0.1-0.9c-0.1-0.3-0.1-0.6-0.2-0.8c-0.1-0.3-0.3-0.5-0.4-0.7s-0.4-0.3-0.7-0.5c-0.3-0.1-0.6-0.2-1-0.2s-0.7,0.1-1,0.2
			c-0.3,0.1-0.5,0.3-0.7,0.5c-0.2,0.2-0.3,0.4-0.4,0.7c-0.1,0.3-0.2,0.5-0.2,0.8c-0.1,0.3-0.1,0.6-0.1,0.9
			C-94.2,43.4-94.2,43.7-94.2,44z M-87.8,46.5v1.2h1.2v-1.2H-87.8z M-82,47.7v-7.5h-0.7c0,0.3-0.1,0.5-0.3,0.7
			c-0.1,0.2-0.3,0.3-0.5,0.4c-0.2,0.1-0.4,0.2-0.7,0.2c-0.2,0-0.5,0.1-0.7,0.1v0.7h2v5.4H-82z M-74.9,41.1v-0.8h-3.7l-0.7,3.9l0.8,0
			c0.2-0.2,0.4-0.4,0.6-0.5c0.2-0.1,0.5-0.2,0.8-0.2c0.3,0,0.5,0,0.7,0.1c0.2,0.1,0.4,0.2,0.5,0.4c0.1,0.2,0.3,0.3,0.3,0.5
			c0.1,0.2,0.1,0.4,0.1,0.7c0,0.3,0,0.6-0.1,0.8s-0.2,0.4-0.3,0.6c-0.1,0.1-0.3,0.3-0.5,0.3C-76.6,47-76.8,47-77,47
			c-0.2,0-0.4,0-0.6-0.1c-0.2-0.1-0.4-0.2-0.5-0.3s-0.2-0.3-0.3-0.4s-0.1-0.3-0.1-0.5h-0.9c0,0.3,0.1,0.6,0.2,0.9
			c0.1,0.3,0.3,0.5,0.5,0.7c0.2,0.2,0.5,0.3,0.8,0.4c0.3,0.1,0.6,0.1,0.9,0.1c0.4,0,0.8-0.1,1.2-0.2s0.6-0.3,0.8-0.6
			c0.2-0.2,0.4-0.5,0.5-0.8c0.1-0.3,0.2-0.6,0.2-0.9c0-0.4-0.1-0.8-0.2-1.1s-0.3-0.6-0.5-0.8c-0.2-0.2-0.5-0.4-0.8-0.5
			s-0.6-0.2-0.9-0.2c-0.3,0-0.5,0-0.8,0.1c-0.3,0.1-0.5,0.2-0.6,0.4l0,0l0.4-2.2H-74.9z"/>
	</g>
	<g transform="translate(126,71.6)">
		<path class="st4" d="M-86.8,42c0-0.2,0-0.4,0-0.6s0-0.4,0.1-0.7c0-0.2,0.1-0.4,0.1-0.7c0.1-0.2,0.1-0.4,0.3-0.6
			c0.1-0.2,0.3-0.3,0.4-0.4s0.4-0.1,0.6-0.1s0.5,0,0.6,0.1s0.3,0.2,0.4,0.4c0.1,0.2,0.2,0.3,0.3,0.6c0.1,0.2,0.1,0.4,0.1,0.7
			c0,0.2,0,0.4,0.1,0.7s0,0.4,0,0.6c0,0.3,0,0.6,0,1c0,0.4-0.1,0.7-0.2,1c-0.1,0.3-0.2,0.6-0.5,0.8c-0.2,0.2-0.5,0.3-0.9,0.3
			s-0.7-0.1-0.9-0.3c-0.2-0.2-0.4-0.5-0.5-0.8c-0.1-0.3-0.2-0.6-0.2-1C-86.8,42.6-86.8,42.3-86.8,42z M-87.8,42c0,0.3,0,0.6,0,0.9
			s0,0.6,0.1,0.9c0.1,0.3,0.1,0.6,0.2,0.8c0.1,0.3,0.3,0.5,0.4,0.7c0.2,0.2,0.4,0.3,0.7,0.5c0.3,0.1,0.6,0.2,1,0.2
			c0.4,0,0.7-0.1,1-0.2c0.3-0.1,0.5-0.3,0.7-0.5s0.3-0.4,0.4-0.7c0.1-0.3,0.2-0.5,0.2-0.8c0.1-0.3,0.1-0.6,0.1-0.9s0-0.6,0-0.9
			s0-0.6,0-0.9c0-0.3,0-0.6-0.1-0.9c-0.1-0.3-0.1-0.6-0.2-0.8c-0.1-0.3-0.3-0.5-0.4-0.7c-0.2-0.2-0.4-0.3-0.7-0.5
			c-0.3-0.1-0.6-0.2-1-0.2c-0.4,0-0.7,0.1-1,0.2c-0.3,0.1-0.5,0.3-0.7,0.5c-0.2,0.2-0.3,0.4-0.4,0.7c-0.1,0.3-0.2,0.5-0.2,0.8
			c-0.1,0.3-0.1,0.6-0.1,0.9C-87.8,41.4-87.8,41.7-87.8,42z M-81.5,44.5v1.2h1.2v-1.2H-81.5z M-78.9,40.8h0.9c0-0.2,0-0.5,0.1-0.7
			c0.1-0.2,0.1-0.4,0.3-0.6c0.1-0.2,0.3-0.3,0.5-0.4s0.4-0.2,0.7-0.2c0.2,0,0.4,0,0.6,0.1c0.2,0.1,0.3,0.2,0.5,0.3
			c0.1,0.1,0.2,0.3,0.3,0.4c0.1,0.2,0.1,0.4,0.1,0.6c0,0.3,0,0.5-0.1,0.7s-0.2,0.4-0.4,0.6c-0.2,0.2-0.4,0.3-0.6,0.5
			c-0.2,0.2-0.5,0.3-0.8,0.5c-0.3,0.2-0.5,0.3-0.8,0.5c-0.2,0.2-0.5,0.4-0.6,0.6s-0.3,0.5-0.5,0.8c-0.1,0.3-0.2,0.7-0.2,1.1h4.9
			v-0.8h-3.9c0-0.2,0.1-0.4,0.3-0.6c0.1-0.2,0.3-0.3,0.5-0.5s0.4-0.3,0.6-0.4c0.2-0.1,0.5-0.3,0.7-0.4c0.2-0.1,0.5-0.3,0.7-0.5
			c0.2-0.2,0.4-0.3,0.6-0.5s0.3-0.4,0.4-0.7c0.1-0.3,0.2-0.5,0.2-0.9c0-0.4-0.1-0.7-0.2-0.9c-0.1-0.3-0.3-0.5-0.5-0.7
			c-0.2-0.2-0.5-0.3-0.7-0.4c-0.3-0.1-0.6-0.1-0.9-0.1c-0.4,0-0.8,0.1-1.1,0.2c-0.3,0.1-0.6,0.3-0.8,0.6c-0.2,0.2-0.4,0.5-0.5,0.8
			C-78.9,40.1-78.9,40.4-78.9,40.8z"/>
	</g>
	<g transform="translate(126,40)">
		<path class="st4" d="M-93.2,40c0-0.2,0-0.4,0-0.6s0-0.4,0.1-0.7s0.1-0.4,0.1-0.7c0.1-0.2,0.1-0.4,0.3-0.6s0.3-0.3,0.4-0.4
			s0.4-0.1,0.6-0.1s0.5,0,0.6,0.1c0.2,0.1,0.3,0.2,0.4,0.4c0.1,0.2,0.2,0.3,0.3,0.6c0.1,0.2,0.1,0.4,0.1,0.7s0,0.4,0.1,0.7
			s0,0.4,0,0.6c0,0.3,0,0.6,0,1s-0.1,0.7-0.2,1c-0.1,0.3-0.2,0.6-0.5,0.8c-0.2,0.2-0.5,0.3-0.9,0.3s-0.7-0.1-0.9-0.3
			c-0.2-0.2-0.4-0.5-0.5-0.8c-0.1-0.3-0.2-0.6-0.2-1S-93.2,40.3-93.2,40z M-94.2,40c0,0.3,0,0.6,0,0.9s0,0.6,0.1,0.9
			c0.1,0.3,0.1,0.6,0.2,0.8c0.1,0.3,0.3,0.5,0.4,0.7c0.2,0.2,0.4,0.3,0.7,0.5c0.3,0.1,0.6,0.2,1,0.2c0.4,0,0.7-0.1,1-0.2
			c0.3-0.1,0.5-0.3,0.7-0.5s0.3-0.4,0.4-0.7c0.1-0.3,0.2-0.5,0.2-0.8c0.1-0.3,0.1-0.6,0.1-0.9s0-0.6,0-0.9c0-0.3,0-0.6,0-0.9
			s0-0.6-0.1-0.9c-0.1-0.3-0.1-0.6-0.2-0.8c-0.1-0.3-0.3-0.5-0.4-0.7s-0.4-0.3-0.7-0.5c-0.3-0.1-0.6-0.2-1-0.2s-0.7,0.1-1,0.2
			c-0.3,0.1-0.5,0.3-0.7,0.5c-0.2,0.2-0.3,0.4-0.4,0.7c-0.1,0.3-0.2,0.5-0.2,0.8c-0.1,0.3-0.1,0.6-0.1,0.9S-94.2,39.7-94.2,40z
			 M-87.8,42.5v1.2h1.2v-1.2H-87.8z M-85.3,38.9h0.9c0-0.2,0-0.5,0.1-0.7c0.1-0.2,0.1-0.4,0.3-0.6s0.3-0.3,0.5-0.4
			c0.2-0.1,0.4-0.2,0.7-0.2c0.2,0,0.4,0,0.6,0.1c0.2,0.1,0.3,0.2,0.5,0.3c0.1,0.1,0.2,0.3,0.3,0.4c0.1,0.2,0.1,0.4,0.1,0.6
			c0,0.3,0,0.5-0.1,0.7c-0.1,0.2-0.2,0.4-0.4,0.6c-0.2,0.2-0.4,0.3-0.6,0.5s-0.5,0.3-0.8,0.5c-0.3,0.2-0.5,0.3-0.8,0.5
			s-0.5,0.4-0.6,0.6s-0.3,0.5-0.5,0.8c-0.1,0.3-0.2,0.7-0.2,1.1h4.9v-0.8h-3.9c0-0.2,0.1-0.4,0.3-0.6c0.1-0.2,0.3-0.3,0.5-0.5
			c0.2-0.2,0.4-0.3,0.6-0.4c0.2-0.1,0.5-0.3,0.7-0.4c0.2-0.1,0.5-0.3,0.7-0.5c0.2-0.2,0.4-0.3,0.6-0.5c0.2-0.2,0.3-0.4,0.4-0.7
			c0.1-0.3,0.2-0.5,0.2-0.9c0-0.4-0.1-0.7-0.2-0.9c-0.1-0.3-0.3-0.5-0.5-0.7c-0.2-0.2-0.5-0.3-0.7-0.4c-0.3-0.1-0.6-0.1-0.9-0.1
			c-0.4,0-0.8,0.1-1.1,0.2s-0.6,0.3-0.8,0.6c-0.2,0.2-0.4,0.5-0.5,0.8S-85.3,38.5-85.3,38.9z M-74.9,37.1v-0.8h-3.7l-0.7,3.9l0.8,0
			c0.2-0.2,0.4-0.4,0.6-0.5s0.5-0.2,0.8-0.2c0.3,0,0.5,0,0.7,0.1c0.2,0.1,0.4,0.2,0.5,0.4c0.1,0.2,0.3,0.3,0.3,0.5s0.1,0.4,0.1,0.7
			c0,0.3,0,0.6-0.1,0.8c-0.1,0.2-0.2,0.4-0.3,0.6c-0.1,0.1-0.3,0.3-0.5,0.3C-76.6,43-76.8,43-77,43c-0.2,0-0.4,0-0.6-0.1
			c-0.2-0.1-0.4-0.2-0.5-0.3s-0.2-0.3-0.3-0.4s-0.1-0.3-0.1-0.5h-0.9c0,0.3,0.1,0.6,0.2,0.9c0.1,0.3,0.3,0.5,0.5,0.7
			c0.2,0.2,0.5,0.3,0.8,0.4c0.3,0.1,0.6,0.1,0.9,0.1c0.4,0,0.8-0.1,1.2-0.2s0.6-0.3,0.8-0.6c0.2-0.2,0.4-0.5,0.5-0.8
			c0.1-0.3,0.2-0.6,0.2-0.9c0-0.4-0.1-0.8-0.2-1.1s-0.3-0.6-0.5-0.8c-0.2-0.2-0.5-0.4-0.8-0.5c-0.3-0.1-0.6-0.2-0.9-0.2
			c-0.3,0-0.5,0-0.8,0.1c-0.3,0.1-0.5,0.2-0.6,0.4l0,0l0.4-2.2H-74.9z"/>
	</g>
	<g transform="translate(99.5,197.9998) rotate(-90)">
		<path class="st4" d="M-99.4-81.2c0-0.3,0-0.6,0.1-0.9c0.1-0.3,0.2-0.5,0.3-0.7c0.1-0.2,0.3-0.4,0.6-0.5c0.2-0.1,0.5-0.2,0.9-0.2
			c0.3,0,0.6,0.1,0.9,0.2c0.2,0.1,0.4,0.3,0.6,0.5s0.3,0.5,0.3,0.7c0.1,0.3,0.1,0.6,0.1,0.9c0,0.3,0,0.6-0.1,0.8s-0.2,0.5-0.3,0.7
			s-0.3,0.4-0.6,0.5c-0.2,0.1-0.5,0.2-0.9,0.2c-0.3,0-0.6-0.1-0.8-0.2c-0.2-0.1-0.4-0.3-0.6-0.5c-0.2-0.2-0.3-0.4-0.3-0.7
			C-99.4-80.6-99.4-80.9-99.4-81.2z M-94.7-78.2v-8.3h-1v3.1h0c-0.1-0.2-0.2-0.3-0.4-0.4c-0.2-0.1-0.3-0.2-0.5-0.3s-0.4-0.1-0.5-0.2
			c-0.2,0-0.3,0-0.5,0c-0.5,0-0.9,0.1-1.2,0.3c-0.3,0.2-0.6,0.4-0.9,0.7c-0.2,0.3-0.4,0.6-0.5,1s-0.2,0.8-0.2,1.2s0.1,0.8,0.2,1.2
			s0.3,0.7,0.5,1c0.2,0.3,0.5,0.5,0.9,0.7s0.8,0.3,1.2,0.3c0.4,0,0.8-0.1,1.2-0.2s0.6-0.4,0.8-0.7h0v0.8H-94.7z M-92.1-85.3v-1.2h-1
			v1.2H-92.1z M-93.1-84.3v6h1v-6H-93.1z M-90-80.1h-1c0,0.4,0.1,0.7,0.2,1c0.1,0.3,0.3,0.5,0.6,0.6s0.5,0.3,0.8,0.3
			c0.3,0.1,0.6,0.1,1,0.1c0.3,0,0.6,0,0.9-0.1c0.3-0.1,0.6-0.2,0.8-0.3s0.4-0.3,0.6-0.6s0.2-0.5,0.2-0.9c0-0.3-0.1-0.5-0.2-0.7
			c-0.1-0.2-0.3-0.4-0.4-0.5c-0.2-0.1-0.4-0.2-0.6-0.3c-0.2-0.1-0.5-0.1-0.7-0.2c-0.2-0.1-0.5-0.1-0.7-0.2S-89-82-89.2-82
			c-0.2-0.1-0.3-0.2-0.5-0.3c-0.1-0.1-0.2-0.3-0.2-0.4c0-0.2,0-0.3,0.1-0.4s0.2-0.2,0.3-0.2c0.1-0.1,0.3-0.1,0.4-0.1
			c0.2,0,0.3,0,0.4,0c0.2,0,0.3,0,0.5,0.1c0.2,0,0.3,0.1,0.4,0.2c0.1,0.1,0.2,0.2,0.3,0.3s0.1,0.3,0.2,0.5h1c0-0.4-0.1-0.7-0.2-0.9
			c-0.1-0.2-0.3-0.4-0.5-0.6c-0.2-0.1-0.5-0.2-0.8-0.3c-0.3-0.1-0.6-0.1-0.9-0.1c-0.3,0-0.5,0-0.8,0.1c-0.3,0.1-0.5,0.2-0.7,0.3
			c-0.2,0.1-0.4,0.3-0.5,0.5c-0.1,0.2-0.2,0.5-0.2,0.8c0,0.4,0.1,0.7,0.3,0.9c0.2,0.2,0.4,0.4,0.7,0.5c0.3,0.1,0.6,0.2,1,0.3
			c0.3,0.1,0.7,0.1,1,0.2c0.3,0.1,0.5,0.2,0.7,0.3c0.2,0.1,0.3,0.3,0.3,0.6c0,0.2,0,0.3-0.1,0.5c-0.1,0.1-0.2,0.2-0.4,0.3
			c-0.1,0.1-0.3,0.1-0.5,0.1c-0.2,0-0.3,0-0.5,0c-0.2,0-0.4,0-0.6-0.1c-0.2,0-0.4-0.1-0.5-0.2s-0.3-0.2-0.4-0.4S-90-79.9-90-80.1z
			 M-84.7-84.3v8.3h1V-79h0c0.1,0.2,0.2,0.3,0.4,0.4s0.3,0.2,0.5,0.3c0.2,0.1,0.4,0.1,0.5,0.2s0.3,0,0.5,0c0.5,0,0.9-0.1,1.2-0.2
			c0.3-0.2,0.6-0.4,0.9-0.7c0.2-0.3,0.4-0.6,0.5-1c0.1-0.4,0.2-0.8,0.2-1.2s-0.1-0.8-0.2-1.2c-0.1-0.4-0.3-0.7-0.5-1
			c-0.2-0.3-0.5-0.5-0.9-0.7c-0.3-0.2-0.8-0.3-1.2-0.3c-0.4,0-0.8,0.1-1.2,0.2s-0.6,0.4-0.8,0.7h0v-0.8H-84.7z M-80-81.3
			c0,0.3,0,0.6-0.1,0.9c-0.1,0.3-0.2,0.5-0.3,0.7s-0.3,0.4-0.6,0.5c-0.2,0.1-0.5,0.2-0.9,0.2c-0.3,0-0.6-0.1-0.9-0.2
			c-0.2-0.1-0.4-0.3-0.6-0.5c-0.2-0.2-0.3-0.5-0.3-0.7c-0.1-0.3-0.1-0.6-0.1-0.9c0-0.3,0-0.6,0.1-0.8c0.1-0.3,0.2-0.5,0.3-0.7
			s0.3-0.4,0.6-0.5s0.5-0.2,0.9-0.2c0.3,0,0.6,0.1,0.8,0.2s0.4,0.3,0.6,0.5s0.3,0.4,0.3,0.7C-80.1-81.8-80-81.6-80-81.3z
			 M-77.8-86.6v8.3h1v-8.3H-77.8z M-69.9-78.2c-0.2,0.1-0.4,0.2-0.7,0.2c-0.3,0-0.5-0.1-0.6-0.2c-0.2-0.1-0.2-0.4-0.2-0.7
			c-0.3,0.3-0.6,0.6-1,0.7c-0.4,0.1-0.8,0.2-1.2,0.2c-0.3,0-0.5,0-0.8-0.1s-0.5-0.2-0.6-0.3c-0.2-0.1-0.3-0.3-0.4-0.5
			c-0.1-0.2-0.2-0.5-0.2-0.8c0-0.3,0.1-0.6,0.2-0.8c0.1-0.2,0.3-0.4,0.5-0.5c0.2-0.1,0.4-0.2,0.7-0.3c0.2-0.1,0.5-0.1,0.8-0.2
			c0.3-0.1,0.5-0.1,0.8-0.1s0.5-0.1,0.6-0.1c0.2-0.1,0.3-0.1,0.4-0.2s0.2-0.2,0.2-0.4c0-0.2,0-0.4-0.1-0.5c-0.1-0.1-0.2-0.2-0.3-0.3
			c-0.1-0.1-0.3-0.1-0.4-0.1c-0.2,0-0.3,0-0.5,0c-0.4,0-0.8,0.1-1.1,0.2s-0.4,0.5-0.5,0.9h-1c0-0.4,0.1-0.7,0.2-0.9s0.3-0.5,0.6-0.6
			s0.5-0.3,0.8-0.3c0.3-0.1,0.6-0.1,1-0.1c0.3,0,0.5,0,0.8,0.1c0.3,0,0.5,0.1,0.7,0.2c0.2,0.1,0.4,0.3,0.5,0.5
			c0.1,0.2,0.2,0.5,0.2,0.9v3.1c0,0.2,0,0.4,0,0.5c0,0.1,0.1,0.2,0.3,0.2c0.1,0,0.2,0,0.3-0.1V-78.2z M-71.5-81.3
			c-0.1,0.1-0.3,0.2-0.5,0.2s-0.4,0.1-0.6,0.1c-0.2,0-0.4,0.1-0.7,0.1c-0.2,0-0.4,0.1-0.6,0.2s-0.3,0.2-0.4,0.3
			c-0.1,0.1-0.2,0.3-0.2,0.6c0,0.2,0,0.3,0.1,0.4c0.1,0.1,0.2,0.2,0.3,0.3c0.1,0.1,0.2,0.1,0.4,0.2c0.1,0,0.3,0,0.4,0
			c0.3,0,0.6,0,0.8-0.1c0.2-0.1,0.4-0.2,0.6-0.3s0.3-0.3,0.3-0.4c0.1-0.2,0.1-0.3,0.1-0.4V-81.3z M-64.9-82.3h1
			c0-0.4-0.1-0.7-0.3-0.9c-0.1-0.3-0.3-0.5-0.6-0.6c-0.2-0.2-0.5-0.3-0.8-0.4s-0.6-0.1-1-0.1c-0.5,0-0.9,0.1-1.3,0.3
			c-0.4,0.2-0.7,0.4-0.9,0.7c-0.2,0.3-0.4,0.6-0.5,1s-0.2,0.8-0.2,1.3c0,0.5,0.1,0.9,0.2,1.2c0.1,0.4,0.3,0.7,0.5,1
			c0.2,0.3,0.5,0.5,0.9,0.6s0.8,0.2,1.2,0.2c0.8,0,1.4-0.2,1.8-0.6s0.7-1,0.8-1.7h-1c-0.1,0.5-0.2,0.8-0.5,1.1
			c-0.3,0.3-0.7,0.4-1.2,0.4c-0.3,0-0.6-0.1-0.8-0.2c-0.2-0.1-0.4-0.3-0.5-0.5c-0.1-0.2-0.2-0.4-0.3-0.7c-0.1-0.3-0.1-0.5-0.1-0.8
			c0-0.3,0-0.6,0.1-0.9c0.1-0.3,0.2-0.5,0.3-0.8c0.1-0.2,0.3-0.4,0.6-0.5c0.2-0.1,0.5-0.2,0.9-0.2c0.4,0,0.8,0.1,1,0.3
			C-65.1-83-64.9-82.7-64.9-82.3z M-58.5-81.8H-62c0-0.2,0.1-0.5,0.2-0.7c0.1-0.2,0.2-0.4,0.4-0.5c0.1-0.2,0.3-0.3,0.5-0.4
			c0.2-0.1,0.4-0.1,0.7-0.1c0.2,0,0.5,0,0.7,0.1c0.2,0.1,0.4,0.2,0.5,0.4c0.2,0.2,0.3,0.3,0.4,0.5C-58.6-82.3-58.5-82.1-58.5-81.8z
			 M-57.5-80.1h-1c-0.1,0.4-0.3,0.7-0.5,0.9c-0.3,0.2-0.6,0.3-1,0.3c-0.3,0-0.6-0.1-0.9-0.2c-0.2-0.1-0.4-0.3-0.6-0.4
			s-0.3-0.4-0.3-0.6c-0.1-0.2-0.1-0.5-0.1-0.8h4.5c0-0.4,0-0.8-0.1-1.2c-0.1-0.4-0.2-0.8-0.4-1.1s-0.5-0.6-0.9-0.8
			c-0.4-0.2-0.8-0.3-1.3-0.3c-0.4,0-0.8,0.1-1.1,0.2s-0.6,0.4-0.9,0.7c-0.3,0.3-0.4,0.6-0.6,1c-0.1,0.4-0.2,0.8-0.2,1.3
			c0,0.5,0.1,0.9,0.2,1.3c0.1,0.4,0.3,0.7,0.5,1c0.2,0.3,0.5,0.5,0.9,0.7c0.4,0.2,0.8,0.2,1.3,0.2c0.7,0,1.3-0.2,1.7-0.5
			C-58-78.9-57.7-79.5-57.5-80.1z M-56.4-84.3v6h1V-82c0-0.1,0-0.3,0.1-0.4c0.1-0.2,0.2-0.3,0.3-0.5c0.1-0.2,0.3-0.3,0.5-0.4
			s0.5-0.2,0.7-0.2c0.2,0,0.4,0,0.6,0.1s0.3,0.2,0.3,0.3c0.1,0.1,0.1,0.3,0.2,0.4c0,0.2,0.1,0.3,0.1,0.5v4h1V-82
			c0-0.5,0.1-0.8,0.4-1.1s0.7-0.4,1.2-0.4c0.2,0,0.4,0,0.6,0.1c0.2,0.1,0.3,0.2,0.4,0.3c0.1,0.1,0.1,0.3,0.2,0.4s0,0.3,0,0.5v4h1
			v-4.4c0-0.3,0-0.6-0.1-0.8s-0.2-0.4-0.4-0.5c-0.2-0.1-0.4-0.2-0.6-0.3s-0.5-0.1-0.8-0.1c-0.4,0-0.8,0.1-1.1,0.3
			c-0.3,0.2-0.6,0.4-0.8,0.8c-0.1-0.4-0.3-0.6-0.6-0.8s-0.6-0.2-1-0.2c-0.8,0-1.5,0.3-2,1h0v-0.9H-56.4z M-42.2-81.8h-3.5
			c0-0.2,0.1-0.5,0.2-0.7s0.2-0.4,0.4-0.5c0.1-0.2,0.3-0.3,0.5-0.4c0.2-0.1,0.4-0.1,0.7-0.1c0.2,0,0.5,0,0.7,0.1
			c0.2,0.1,0.4,0.2,0.5,0.4c0.2,0.2,0.3,0.3,0.4,0.5C-42.3-82.3-42.3-82.1-42.2-81.8z M-41.3-80.1h-1c-0.1,0.4-0.3,0.7-0.5,0.9
			c-0.3,0.2-0.6,0.3-1,0.3c-0.3,0-0.6-0.1-0.9-0.2c-0.2-0.1-0.4-0.3-0.6-0.4s-0.3-0.4-0.3-0.6c-0.1-0.2-0.1-0.5-0.1-0.8h4.5
			c0-0.4,0-0.8-0.1-1.2c-0.1-0.4-0.2-0.8-0.4-1.1s-0.5-0.6-0.9-0.8c-0.4-0.2-0.8-0.3-1.3-0.3c-0.4,0-0.8,0.1-1.1,0.2
			s-0.6,0.4-0.9,0.7c-0.3,0.3-0.4,0.6-0.6,1c-0.1,0.4-0.2,0.8-0.2,1.3c0,0.5,0.1,0.9,0.2,1.3c0.1,0.4,0.3,0.7,0.5,1
			c0.2,0.3,0.5,0.5,0.9,0.7c0.4,0.2,0.8,0.2,1.3,0.2c0.7,0,1.3-0.2,1.7-0.5C-41.7-78.9-41.4-79.5-41.3-80.1z M-40.2-84.3v6h1v-3.4
			c0-0.3,0-0.5,0.1-0.8c0.1-0.2,0.2-0.4,0.3-0.6s0.3-0.3,0.6-0.4c0.2-0.1,0.5-0.1,0.8-0.1c0.4,0,0.7,0.1,0.9,0.3
			c0.2,0.2,0.3,0.5,0.3,0.9v4.1h1v-4c0-0.3,0-0.6-0.1-0.9c-0.1-0.3-0.2-0.5-0.3-0.7c-0.2-0.2-0.4-0.3-0.6-0.5
			c-0.3-0.1-0.6-0.2-1-0.2c-0.9,0-1.6,0.4-2,1.1h0v-1H-40.2z M-32.3-84.3v-1.8h-1v1.8h-1v0.9h1v3.8c0,0.3,0,0.5,0.1,0.7
			c0.1,0.2,0.1,0.3,0.3,0.4s0.3,0.2,0.4,0.2c0.2,0,0.4,0.1,0.7,0.1h0.8v-0.9h-0.5c-0.2,0-0.3,0-0.4,0c-0.1,0-0.2,0-0.2-0.1
			s-0.1-0.1-0.1-0.2c0-0.1,0-0.2,0-0.3v-3.8h1.2v-0.9H-32.3z M-29.8-79.5v1.3h0.7c0,0.1,0,0.2,0,0.3c0,0.1-0.1,0.2-0.1,0.3
			c-0.1,0.1-0.1,0.2-0.2,0.3c-0.1,0.1-0.2,0.2-0.3,0.2v0.6c0.5-0.1,0.8-0.4,1-0.7s0.3-0.7,0.3-1.1v-1.2H-29.8z M-18.5-78.2v-6h-1
			v3.4c0,0.3,0,0.5-0.1,0.8c-0.1,0.2-0.2,0.4-0.3,0.6c-0.1,0.2-0.3,0.3-0.6,0.4C-20.7-79-21-79-21.3-79c-0.4,0-0.7-0.1-0.9-0.3
			c-0.2-0.2-0.3-0.5-0.3-0.9v-4.1h-1v4c0,0.3,0,0.6,0.1,0.9c0.1,0.3,0.2,0.5,0.3,0.7c0.2,0.2,0.4,0.3,0.6,0.4c0.3,0.1,0.6,0.2,1,0.2
			c0.4,0,0.8-0.1,1.2-0.3c0.3-0.2,0.6-0.4,0.8-0.8h0v1H-18.5z M-12.1-75.9h0.8c-0.6-0.9-0.9-1.8-1.2-2.7c-0.2-0.9-0.4-1.8-0.4-2.8
			c0-1,0.1-1.9,0.4-2.7c0.2-0.9,0.6-1.8,1.2-2.6h-0.8c-0.6,0.8-1.1,1.7-1.4,2.6c-0.3,0.9-0.5,1.9-0.5,2.8c0,0.5,0,1,0.1,1.5
			c0.1,0.5,0.2,0.9,0.4,1.4c0.2,0.4,0.4,0.9,0.6,1.3C-12.6-76.8-12.4-76.4-12.1-75.9z M-9.7-85.3v-1.2h-1v1.2H-9.7z M-10.6-84.3v6h1
			v-6H-10.6z M-8.1-84.3v6h1v-3.4c0-0.3,0-0.5,0.1-0.8c0.1-0.2,0.2-0.4,0.3-0.6c0.1-0.2,0.3-0.3,0.6-0.4c0.2-0.1,0.5-0.1,0.8-0.1
			c0.4,0,0.7,0.1,0.9,0.3c0.2,0.2,0.3,0.5,0.3,0.9v4.1h1v-4c0-0.3,0-0.6-0.1-0.9s-0.2-0.5-0.3-0.7c-0.2-0.2-0.4-0.3-0.6-0.5
			c-0.3-0.1-0.6-0.2-1-0.2c-0.9,0-1.6,0.4-2,1.1h0v-1H-8.1z M-2.5-75.9h0.7c0.6-0.8,1.1-1.7,1.4-2.6c0.3-0.9,0.5-1.9,0.5-2.8
			c0-0.5,0-1-0.1-1.5s-0.2-0.9-0.4-1.4C-0.5-84.6-0.7-85-1-85.5c-0.2-0.4-0.5-0.9-0.8-1.3h-0.7c0.5,0.9,0.9,1.8,1.2,2.7
			c0.2,0.9,0.4,1.8,0.4,2.8c0,1-0.1,1.9-0.4,2.7C-1.5-77.7-1.9-76.8-2.5-75.9z"/>
	</g>
	<g transform="translate(517.5005,38)">
		<path d="M-281.4,13.4v-0.6c1.2,0,1.8-0.2,1.8-0.5V2.9c0-0.4-0.6-0.5-1.8-0.5V1.7h5.2v0.6c-1.2,0-1.8,0.2-1.8,0.5v9.3
			c0,0.4,0.6,0.5,1.8,0.5v0.6H-281.4z"/>
		<path d="M-275.2,13.4v-0.6c0.4,0,0.7,0,1-0.1c0.2-0.1,0.4-0.2,0.4-0.5V7.6c0-0.3,0-0.5-0.1-0.7s-0.2-0.2-0.4-0.2
			c-0.2,0-0.4,0-0.8,0V6l2.5-0.2v1.7c0.2-0.5,0.6-0.9,1-1.2s0.9-0.5,1.5-0.5c0.8,0,1.4,0.2,1.8,0.6c0.4,0.4,0.6,1,0.6,1.7v4.1
			c0,0.2,0.1,0.4,0.4,0.5c0.2,0.1,0.6,0.1,1,0.1v0.6h-3.9v-0.6c0.4,0,0.7,0,1-0.1c0.2-0.1,0.4-0.2,0.4-0.5v-4c0-0.6-0.1-1-0.2-1.4
			c-0.2-0.4-0.5-0.5-1-0.5c-0.7,0-1.2,0.3-1.6,0.8c-0.4,0.5-0.6,1.1-0.6,1.8v3.4c0,0.2,0.1,0.4,0.4,0.5c0.2,0.1,0.6,0.1,0.9,0.1v0.6
			H-275.2z"/>
		<path d="M-265.8,16.7v-0.6c0.4,0,0.7,0,1-0.1c0.2-0.1,0.4-0.2,0.4-0.4V7.3c0-0.3-0.1-0.5-0.3-0.6c-0.2-0.1-0.6-0.1-1-0.1V6
			l2.5-0.2v1.1c0.3-0.3,0.7-0.6,1.1-0.8c0.4-0.2,0.9-0.3,1.3-0.3c0.7,0,1.3,0.2,1.8,0.5c0.5,0.4,1,0.8,1.3,1.4s0.5,1.2,0.5,1.9
			c0,0.7-0.2,1.3-0.5,1.9c-0.3,0.6-0.8,1.1-1.4,1.4c-0.6,0.4-1.2,0.5-1.9,0.5c-0.8,0-1.5-0.3-2.1-1v3c0,0.2,0.1,0.4,0.4,0.4
			c0.3,0.1,0.6,0.1,0.9,0.1v0.6H-265.8z M-263.2,11.7c0.2,0.4,0.5,0.7,0.8,1c0.4,0.3,0.7,0.4,1.2,0.4c0.4,0,0.7-0.1,1-0.3
			c0.3-0.2,0.6-0.5,0.8-0.8c0.2-0.4,0.4-0.7,0.5-1.1c0.1-0.4,0.1-0.8,0.1-1.1c0-0.5-0.1-0.9-0.2-1.5c-0.2-0.5-0.4-1-0.7-1.3
			c-0.3-0.4-0.7-0.5-1.2-0.5c-0.5,0-0.9,0.1-1.3,0.3c-0.4,0.2-0.7,0.6-0.9,1V11.7z"/>
		<path d="M-254.9,11.3V7.6c0-0.3,0-0.5-0.1-0.7c-0.1-0.1-0.2-0.2-0.4-0.2c-0.2,0-0.4,0-0.8,0V6l2.6-0.2v5.5c0,0.4,0,0.8,0.1,1
			c0.1,0.2,0.2,0.4,0.4,0.5c0.2,0.1,0.5,0.2,1,0.2c0.6,0,1.1-0.3,1.5-0.8c0.4-0.5,0.5-1.1,0.5-1.7v-3c0-0.3,0-0.5-0.1-0.7
			c-0.1-0.1-0.2-0.2-0.4-0.2c-0.2,0-0.4,0-0.8,0V6l2.6-0.2v6c0,0.3,0,0.5,0.1,0.6c0.1,0.1,0.2,0.2,0.4,0.2c0.2,0,0.4,0,0.8,0v0.6
			l-2.5,0.2v-1.4c-0.2,0.4-0.5,0.8-0.9,1c-0.4,0.3-0.8,0.4-1.2,0.4c-0.8,0-1.5-0.2-1.9-0.5C-254.7,12.7-254.9,12.1-254.9,11.3z"/>
		<path d="M-245.6,11.3V6.6h-1.4V6.2c0.7,0,1.3-0.3,1.6-1c0.3-0.7,0.5-1.4,0.5-2.2h0.5V6h2.4v0.6h-2.4v4.7c0,0.5,0.1,0.9,0.2,1.2
			c0.2,0.4,0.4,0.5,0.9,0.5c0.4,0,0.7-0.2,0.8-0.6c0.2-0.4,0.3-0.8,0.3-1.2v-1h0.5v1c0,0.4-0.1,0.7-0.2,1c-0.1,0.3-0.3,0.6-0.6,0.9
			c-0.3,0.2-0.6,0.3-0.9,0.3c-0.7,0-1.2-0.2-1.6-0.6C-245.4,12.5-245.6,12-245.6,11.3z"/>
		<path d="M-239.3,12.4c0-0.3,0.1-0.5,0.3-0.7c0.2-0.2,0.4-0.3,0.7-0.3c0.2,0,0.3,0,0.5,0.1c0.1,0.1,0.3,0.2,0.3,0.3
			c0.1,0.1,0.1,0.3,0.1,0.5c0,0.3-0.1,0.5-0.3,0.7c-0.2,0.2-0.4,0.3-0.7,0.3c-0.3,0-0.5-0.1-0.7-0.3
			C-239.2,12.9-239.3,12.7-239.3,12.4z M-239.3,7c0-0.2,0-0.3,0.1-0.5c0.1-0.1,0.2-0.3,0.3-0.3c0.1-0.1,0.3-0.1,0.5-0.1
			c0.2,0,0.3,0,0.5,0.1c0.1,0.1,0.3,0.2,0.3,0.3s0.1,0.3,0.1,0.5c0,0.3-0.1,0.5-0.3,0.7c-0.2,0.2-0.4,0.3-0.7,0.3
			c-0.3,0-0.5-0.1-0.7-0.3C-239.2,7.4-239.3,7.2-239.3,7z"/>
		<path d="M-212.9,13.4v-0.6c0.4,0,0.7,0,1-0.1c0.2-0.1,0.4-0.2,0.4-0.5V3.3c0-0.3,0-0.5-0.1-0.7c-0.1-0.1-0.2-0.2-0.4-0.2
			c-0.2,0-0.4,0-0.8,0V1.7l2.5-0.2v8.1l2.3-2c0.2-0.2,0.3-0.4,0.3-0.6c0-0.1,0-0.2-0.1-0.3c-0.1-0.1-0.2-0.1-0.3-0.1V6h3.2v0.6
			c-0.8,0-1.5,0.3-2.3,1l-1.2,1l2.2,3.1c0.3,0.4,0.6,0.7,0.8,0.8c0.2,0.1,0.5,0.2,1,0.2v0.6h-3.4v-0.6c0.4,0,0.6-0.1,0.6-0.4
			c0-0.2-0.1-0.4-0.3-0.6l-1.6-2.3l-1,0.9v1.9c0,0.2,0.1,0.4,0.4,0.5c0.3,0.1,0.6,0.1,0.9,0.1v0.6H-212.9z"/>
		<path d="M-197.4,11.1c-0.1,0-0.2,0-0.2-0.1c-0.1-0.1-0.1-0.2-0.1-0.2c0-0.1,0-0.2,0.1-0.2c0.1-0.1,0.1-0.1,0.2-0.1h10.7
			c0.1,0,0.2,0,0.2,0.1c0.1,0.1,0.1,0.1,0.1,0.2c0,0.1,0,0.2-0.1,0.2c-0.1,0.1-0.1,0.1-0.2,0.1H-197.4z M-197.4,7.8
			c-0.1,0-0.2,0-0.2-0.1c-0.1-0.1-0.1-0.1-0.1-0.2c0-0.1,0-0.2,0.1-0.2c0.1-0.1,0.1-0.1,0.2-0.1h10.7c0.1,0,0.2,0,0.2,0.1
			c0.1,0.1,0.1,0.1,0.1,0.2c0,0.1,0,0.2-0.1,0.2c-0.1,0.1-0.1,0.1-0.2,0.1H-197.4z"/>
		<path d="M-179.3,10.5V10l5.2-7.8c0-0.1,0.1-0.1,0.2-0.1h0.2c0.1,0,0.2,0.1,0.2,0.2V10h1.7v0.6h-1.7v1.7c0,0.2,0.2,0.4,0.5,0.4
			c0.3,0.1,0.7,0.1,1.2,0.1v0.6h-4.7v-0.6c0.4,0,0.8,0,1.1-0.1c0.3-0.1,0.5-0.2,0.5-0.4v-1.7H-179.3z M-178.8,10h4v-6L-178.8,10z"/>
		<path d="M-167.1,13.7c-1.4,0-2.3-0.6-2.8-1.7s-0.8-2.5-0.8-4.1c0-1,0.1-1.9,0.3-2.8c0.2-0.9,0.5-1.6,1.1-2.2
			c0.5-0.6,1.3-0.9,2.2-0.9c0.8,0,1.4,0.2,1.8,0.5c0.5,0.4,0.8,0.8,1.1,1.4c0.2,0.6,0.4,1.2,0.5,1.9c0.1,0.7,0.1,1.4,0.1,2.1
			c0,1-0.1,1.9-0.3,2.7c-0.2,0.9-0.5,1.6-1.1,2.2C-165.3,13.4-166.1,13.7-167.1,13.7z M-167.1,13.3c0.6,0,1.1-0.3,1.4-1
			c0.3-0.6,0.5-1.4,0.6-2.1c0.1-0.8,0.1-1.6,0.1-2.5c0-0.9,0-1.6-0.1-2.4c-0.1-0.7-0.3-1.4-0.6-2c-0.3-0.6-0.8-0.9-1.4-0.9
			c-0.6,0-1.1,0.3-1.4,0.9c-0.3,0.6-0.5,1.2-0.6,2c-0.1,0.7-0.1,1.5-0.1,2.4c0,0.6,0,1.2,0,1.8c0,0.6,0.1,1.1,0.2,1.7
			c0.1,0.6,0.3,1.1,0.6,1.5C-167.9,13.1-167.5,13.3-167.1,13.3z"/>
		<path d="M-158.6,13.7c-0.7,0-1.3-0.2-1.8-0.6c-0.5-0.4-0.8-0.9-1.1-1.5c-0.3-0.6-0.4-1.2-0.5-1.9c-0.1-0.7-0.1-1.3-0.1-2
			c0-0.9,0.2-1.8,0.5-2.7c0.3-0.9,0.9-1.6,1.5-2.2c0.7-0.6,1.5-0.9,2.4-0.9c0.4,0,0.7,0.1,1.1,0.2c0.3,0.1,0.6,0.4,0.8,0.6
			c0.2,0.3,0.3,0.6,0.3,1c0,0.2-0.1,0.4-0.2,0.6c-0.2,0.2-0.4,0.2-0.6,0.2c-0.2,0-0.4-0.1-0.6-0.2c-0.2-0.2-0.2-0.4-0.2-0.6
			c0-0.2,0.1-0.4,0.2-0.6c0.2-0.2,0.4-0.2,0.6-0.2h0.1c-0.1-0.2-0.3-0.3-0.6-0.4c-0.3-0.1-0.5-0.1-0.8-0.1c-0.3,0-0.7,0.1-1,0.2
			c-0.3,0.1-0.6,0.4-0.8,0.6c-0.2,0.3-0.4,0.5-0.6,0.8c-0.2,0.3-0.3,0.7-0.4,1.1c-0.1,0.4-0.1,0.8-0.2,1.1c0,0.3,0,0.8,0,1.3
			c0.2-0.5,0.5-0.8,0.8-1.1c0.4-0.3,0.8-0.4,1.2-0.4c0.5,0,1,0.1,1.4,0.3c0.4,0.2,0.8,0.5,1.1,0.9c0.3,0.4,0.5,0.8,0.7,1.2
			c0.2,0.5,0.2,0.9,0.2,1.4c0,0.7-0.1,1.3-0.4,1.9c-0.3,0.6-0.7,1.1-1.2,1.4C-157.3,13.6-157.9,13.7-158.6,13.7z M-158.6,13.2
			c0.4,0,0.8-0.1,1.1-0.3c0.3-0.2,0.5-0.5,0.6-0.8c0.1-0.3,0.2-0.7,0.2-1c0-0.3,0-0.7,0-1.2c0-0.6,0-1.2-0.1-1.6
			c-0.1-0.5-0.2-0.9-0.5-1.2s-0.7-0.5-1.3-0.5c-0.5,0-0.8,0.2-1.1,0.5s-0.5,0.7-0.6,1.2c-0.1,0.5-0.2,0.9-0.2,1.4c0,0.2,0,0.3,0,0.3
			c0,0,0,0,0,0c0,0,0,0,0,0c0,0.5,0,1,0.1,1.5c0.1,0.5,0.3,0.9,0.6,1.3C-159.5,13-159.1,13.2-158.6,13.2z"/>
		<path d="M-152.9,12.4c0-0.3,0.1-0.5,0.3-0.7c0.2-0.2,0.4-0.3,0.7-0.3c0.2,0,0.3,0,0.5,0.1c0.1,0.1,0.3,0.2,0.3,0.3
			c0.1,0.1,0.1,0.3,0.1,0.5c0,0.3-0.1,0.5-0.3,0.7c-0.2,0.2-0.4,0.3-0.7,0.3s-0.5-0.1-0.7-0.3C-152.8,12.9-152.9,12.7-152.9,12.4z"
			/>
		<path d="M-146.6,12.9c0-0.6,0.1-1.2,0.2-1.9c0.1-0.6,0.3-1.2,0.5-1.8c0.2-0.6,0.5-1.2,0.8-1.7c0.3-0.6,0.6-1.1,1-1.6l1.5-2.2h-1.9
			c-2,0-3,0-3.1,0.1c-0.2,0.2-0.3,0.7-0.4,1.6h-0.5l0.5-3.6h0.5v0c0,0.2,0.3,0.3,1,0.4c0.7,0.1,1.4,0.1,2,0.1h3.2v0.4c0,0,0,0,0,0
			c0,0,0,0,0,0l-2.3,3.3c-0.6,0.9-0.9,1.8-1.1,2.8c-0.1,1-0.2,2.3-0.2,3.9c0,0.2-0.1,0.4-0.2,0.6c-0.2,0.2-0.4,0.2-0.6,0.2
			c-0.2,0-0.4-0.1-0.6-0.2C-146.6,13.3-146.6,13.1-146.6,12.9z"/>
		<path d="M-140.6,10.5V10l5.2-7.8c0-0.1,0.1-0.1,0.2-0.1h0.2c0.1,0,0.2,0.1,0.2,0.2V10h1.7v0.6h-1.7v1.7c0,0.2,0.2,0.4,0.5,0.4
			c0.3,0.1,0.7,0.1,1.2,0.1v0.6h-4.7v-0.6c0.4,0,0.8,0,1.1-0.1c0.3-0.1,0.5-0.2,0.5-0.4v-1.7H-140.6z M-140,10h4v-6L-140,10z"/>
		<path d="M-109.4,13.4v-0.6c0.4,0,0.7,0,1-0.1c0.2-0.1,0.4-0.2,0.4-0.5V7.6c0-0.3,0-0.5-0.1-0.7c-0.1-0.1-0.2-0.2-0.4-0.2
			c-0.2,0-0.4,0-0.8,0V6l2.5-0.2v1.7c0.2-0.5,0.6-0.9,1-1.2s0.9-0.5,1.5-0.5c1.3,0,2.1,0.5,2.3,1.6c0.2-0.5,0.6-0.9,1-1.2
			c0.4-0.3,0.9-0.4,1.4-0.4c0.5,0,0.9,0.1,1.3,0.2c0.4,0.2,0.6,0.4,0.8,0.8c0.2,0.3,0.3,0.8,0.3,1.3v4.1c0,0.2,0.1,0.4,0.4,0.5
			c0.2,0.1,0.6,0.1,1,0.1v0.6h-3.9v-0.6c0.4,0,0.7,0,1-0.1c0.2-0.1,0.4-0.2,0.4-0.5v-4c0-0.6-0.1-1-0.2-1.4c-0.2-0.3-0.5-0.5-1-0.5
			c-0.7,0-1.2,0.3-1.6,0.8c-0.4,0.5-0.6,1.1-0.6,1.8v3.4c0,0.2,0.1,0.4,0.4,0.5c0.2,0.1,0.6,0.1,1,0.1v0.6h-3.9v-0.6
			c0.4,0,0.7,0,1-0.1c0.2-0.1,0.4-0.2,0.4-0.5v-4c0-0.6-0.1-1-0.2-1.4c-0.2-0.4-0.5-0.5-1-0.5c-0.7,0-1.2,0.3-1.6,0.8
			c-0.4,0.5-0.6,1.1-0.6,1.8v3.4c0,0.2,0.1,0.4,0.4,0.5c0.2,0.1,0.6,0.1,0.9,0.1v0.6H-109.4z"/>
		<path d="M-88.8,11.1c-0.1,0-0.2,0-0.2-0.1c-0.1-0.1-0.1-0.2-0.1-0.2c0-0.1,0-0.2,0.1-0.2c0.1-0.1,0.1-0.1,0.2-0.1h10.7
			c0.1,0,0.2,0,0.2,0.1c0.1,0.1,0.1,0.1,0.1,0.2c0,0.1,0,0.2-0.1,0.2c-0.1,0.1-0.1,0.1-0.2,0.1H-88.8z M-88.8,7.8
			c-0.1,0-0.2,0-0.2-0.1c-0.1-0.1-0.1-0.1-0.1-0.2c0-0.1,0-0.2,0.1-0.2c0.1-0.1,0.1-0.1,0.2-0.1h10.7c0.1,0,0.2,0,0.2,0.1
			s0.1,0.1,0.1,0.2c0,0.1,0,0.2-0.1,0.2C-78,7.8-78,7.8-78.1,7.8H-88.8z"/>
		<path d="M-67,13.7c-1.4,0-2.3-0.6-2.8-1.7s-0.8-2.5-0.8-4.1c0-1,0.1-1.9,0.3-2.8c0.2-0.9,0.5-1.6,1.1-2.2C-68.7,2.3-67.9,2-67,2
			c0.8,0,1.4,0.2,1.8,0.5c0.5,0.4,0.8,0.8,1.1,1.4c0.2,0.6,0.4,1.2,0.5,1.9s0.1,1.4,0.1,2.1c0,1-0.1,1.9-0.3,2.7s-0.5,1.6-1.1,2.2
			C-65.2,13.4-66,13.7-67,13.7z M-67,13.3c0.6,0,1.1-0.3,1.4-1c0.3-0.6,0.5-1.4,0.6-2.1c0.1-0.8,0.1-1.6,0.1-2.5
			c0-0.9,0-1.6-0.1-2.4c-0.1-0.7-0.3-1.4-0.6-2c-0.3-0.6-0.8-0.9-1.4-0.9c-0.6,0-1.1,0.3-1.4,0.9c-0.3,0.6-0.5,1.2-0.6,2
			C-69,6-69.1,6.8-69.1,7.7c0,0.6,0,1.2,0,1.8c0,0.6,0.1,1.1,0.2,1.7c0.1,0.6,0.3,1.1,0.6,1.5C-67.8,13.1-67.4,13.3-67,13.3z"/>
		<path d="M-61.3,12.4c0-0.3,0.1-0.5,0.3-0.7c0.2-0.2,0.4-0.3,0.7-0.3c0.2,0,0.3,0,0.5,0.1c0.1,0.1,0.3,0.2,0.3,0.3
			c0.1,0.1,0.1,0.3,0.1,0.5c0,0.3-0.1,0.5-0.3,0.7c-0.2,0.2-0.4,0.3-0.7,0.3c-0.3,0-0.5-0.1-0.7-0.3C-61.2,12.9-61.3,12.7-61.3,12.4
			z"/>
		<path d="M-55,12.9c0-0.6,0.1-1.2,0.2-1.9c0.1-0.6,0.3-1.2,0.5-1.8s0.5-1.2,0.8-1.7c0.3-0.6,0.6-1.1,1-1.6l1.5-2.2H-53
			c-2,0-3,0-3.1,0.1c-0.2,0.2-0.3,0.7-0.4,1.6H-57l0.5-3.6h0.5v0c0,0.2,0.3,0.3,1,0.4c0.7,0.1,1.4,0.1,2,0.1h3.2v0.4c0,0,0,0,0,0
			c0,0,0,0,0,0l-2.3,3.3C-52.7,7-53,8-53.2,9c-0.1,1-0.2,2.3-0.2,3.9c0,0.2-0.1,0.4-0.2,0.6c-0.2,0.2-0.4,0.2-0.6,0.2
			c-0.2,0-0.4-0.1-0.6-0.2C-54.9,13.3-55,13.1-55,12.9z"/>
		<path d="M-45.2,13.7c-0.7,0-1.3-0.2-1.8-0.6c-0.5-0.4-0.8-0.9-1.1-1.5c-0.3-0.6-0.4-1.2-0.5-1.9c-0.1-0.7-0.1-1.3-0.1-2
			c0-0.9,0.2-1.8,0.5-2.7c0.3-0.9,0.9-1.6,1.5-2.2C-46,2.3-45.2,2-44.3,2c0.4,0,0.7,0.1,1.1,0.2c0.3,0.1,0.6,0.4,0.8,0.6
			c0.2,0.3,0.3,0.6,0.3,1c0,0.2-0.1,0.4-0.2,0.6c-0.2,0.2-0.4,0.2-0.6,0.2c-0.2,0-0.4-0.1-0.6-0.2c-0.2-0.2-0.2-0.4-0.2-0.6
			c0-0.2,0.1-0.4,0.2-0.6c0.2-0.2,0.4-0.2,0.6-0.2h0.1c-0.1-0.2-0.3-0.3-0.6-0.4c-0.3-0.1-0.5-0.1-0.8-0.1c-0.3,0-0.7,0.1-1,0.2
			c-0.3,0.1-0.6,0.4-0.8,0.6c-0.2,0.3-0.4,0.5-0.6,0.8c-0.2,0.3-0.3,0.7-0.4,1.1C-47,5.6-47.1,6-47.1,6.3c0,0.3,0,0.8,0,1.3
			c0.2-0.5,0.5-0.8,0.8-1.1c0.4-0.3,0.8-0.4,1.2-0.4c0.5,0,1,0.1,1.4,0.3c0.4,0.2,0.8,0.5,1.1,0.9c0.3,0.4,0.5,0.8,0.7,1.2
			c0.2,0.5,0.2,0.9,0.2,1.4c0,0.7-0.1,1.3-0.4,1.9c-0.3,0.6-0.7,1.1-1.2,1.4C-43.9,13.6-44.5,13.7-45.2,13.7z M-45.2,13.2
			c0.4,0,0.8-0.1,1.1-0.3c0.3-0.2,0.5-0.5,0.6-0.8c0.1-0.3,0.2-0.7,0.2-1c0-0.3,0-0.7,0-1.2c0-0.6,0-1.2-0.1-1.6
			c-0.1-0.5-0.2-0.9-0.5-1.2s-0.7-0.5-1.3-0.5c-0.5,0-0.8,0.2-1.1,0.5c-0.3,0.3-0.5,0.7-0.6,1.2c-0.1,0.5-0.2,0.9-0.2,1.4
			c0,0.2,0,0.3,0,0.3c0,0,0,0,0,0c0,0,0,0,0,0c0,0.5,0,1,0.1,1.5c0.1,0.5,0.3,0.9,0.6,1.3C-46.1,13-45.7,13.2-45.2,13.2z"/>
		<path d="M-39.4,13.4v-0.6c1.4,0,2.1-0.2,2.1-0.5V3.3c-0.6,0.3-1.3,0.4-2.2,0.4V3.1c1.4,0,2.4-0.4,3.2-1.1h0.2c0,0,0.1,0,0.1,0
			c0,0,0,0.1,0,0.1v10c0,0.4,0.7,0.5,2.1,0.5v0.6H-39.4z"/>
		<path d="M-30.6,12.6c0.3,0.4,0.8,0.5,1.6,0.5c0.4,0,0.8-0.1,1.2-0.4c0.4-0.3,0.7-0.7,0.9-1.1c0.2-0.5,0.4-1,0.5-1.5
			c0.1-0.5,0.1-1.2,0.1-2c-0.2,0.5-0.5,0.8-0.8,1.1c-0.4,0.3-0.8,0.4-1.3,0.4c-0.7,0-1.2-0.2-1.8-0.5c-0.5-0.4-0.9-0.8-1.2-1.4
			c-0.3-0.6-0.4-1.2-0.4-1.9c0-0.7,0.2-1.3,0.5-1.9c0.3-0.6,0.7-1.1,1.3-1.4c0.5-0.3,1.2-0.5,1.9-0.5c0.7,0,1.3,0.2,1.7,0.6
			C-26,3-25.6,3.4-25.4,4c0.2,0.6,0.4,1.2,0.5,1.9c0.1,0.7,0.1,1.3,0.1,2c0,0.9-0.2,1.8-0.5,2.7c-0.3,0.9-0.8,1.7-1.4,2.3
			c-0.6,0.6-1.4,0.9-2.3,0.9c-0.7,0-1.2-0.2-1.7-0.5c-0.5-0.3-0.7-0.8-0.7-1.4c0-0.2,0.1-0.4,0.2-0.6c0.2-0.2,0.3-0.2,0.6-0.2
			c0.2,0,0.4,0.1,0.6,0.2c0.2,0.2,0.2,0.4,0.2,0.6c0,0.2-0.1,0.4-0.2,0.6C-30.1,12.6-30.3,12.6-30.6,12.6L-30.6,12.6z M-28.3,9.2
			c0.5,0,0.8-0.2,1.1-0.5c0.3-0.3,0.5-0.7,0.6-1.2c0.1-0.5,0.2-0.9,0.2-1.4V5.9V5.8c0-0.9-0.1-1.6-0.4-2.3c-0.2-0.7-0.7-1-1.4-1
			c-0.4,0-0.8,0.1-1.1,0.3c-0.3,0.2-0.5,0.5-0.6,0.8c-0.1,0.3-0.2,0.7-0.2,1c0,0.4,0,0.8,0,1.2c0,0.6,0,1.2,0.1,1.6
			c0.1,0.5,0.2,0.9,0.5,1.2C-29.3,9-28.9,9.2-28.3,9.2z"/>
		<path d="M-4,16c0-0.1,0.1-0.2,0.2-0.2c0,0,0.1,0.1,0.3,0.2c0.2,0.1,0.4,0.2,0.6,0.3c0.2,0.1,0.4,0.1,0.6,0.1
			c0.2,0,0.4-0.1,0.6-0.3c0.2-0.2,0.2-0.5,0.2-0.7c0-0.3-0.1-0.5-0.3-0.7c-0.2-0.2-0.4-0.3-0.6-0.4L-4,13.7
			c-0.7-0.3-1.2-0.6-1.6-1.2C-6,12-6.2,11.3-6.2,10.6c0-0.7,0.1-1.3,0.4-2.1c0.2-0.7,0.6-1.4,1-2.1C-4.4,5.6-4,5-3.4,4.5
			c0.5-0.5,1.1-1,1.7-1.3C-1.9,3-1.9,2.7-1.9,2.4c0-0.6,0.1-0.9,0.4-0.9c0.1,0,0.1,0,0.1,0.1s0.1,0.1,0.1,0.1c0,0.1,0,0.2,0,0.4
			c0,0.2,0,0.3,0,0.3c0,0.2,0,0.4,0.1,0.6C-1,2.9-0.7,2.8-0.5,2.8c1.1,0,1.6,0.2,1.6,0.5c0,0.4-0.6,0.6-1.7,0.6
			c-0.3,0-0.6-0.1-0.8-0.3c-0.5,0.3-1,0.7-1.4,1.2c-0.4,0.5-0.8,1.1-1.2,1.7C-4.4,7-4.7,7.7-4.9,8.3s-0.3,1.2-0.3,1.8
			c0,1.2,0.6,2,1.7,2.4l1.8,0.6c0.4,0.1,0.7,0.3,0.9,0.6c0.2,0.3,0.4,0.6,0.4,1c0,0.3-0.1,0.7-0.2,1c-0.2,0.3-0.4,0.6-0.7,0.8
			c-0.3,0.2-0.6,0.3-0.9,0.3c-0.3,0-0.6-0.1-1.1-0.3C-3.8,16.4-4,16.2-4,16z M-1,3.4c0,0,0,0,0.1,0.1c0,0,0.1,0,0.1,0
			c0,0,0.1,0,0.1,0c0.5,0,0.9,0,1.2-0.1c-0.2,0-0.6-0.1-1-0.1C-0.7,3.3-0.8,3.3-1,3.4z"/>
		<path d="M8.7,11.1c-0.1,0-0.2,0-0.2-0.1c-0.1-0.1-0.1-0.2-0.1-0.2c0-0.1,0-0.2,0.1-0.2c0.1-0.1,0.1-0.1,0.2-0.1h10.7
			c0.1,0,0.2,0,0.2,0.1c0.1,0.1,0.1,0.1,0.1,0.2c0,0.1,0,0.2-0.1,0.2c-0.1,0.1-0.1,0.1-0.2,0.1H8.7z M8.7,7.8c-0.1,0-0.2,0-0.2-0.1
			C8.4,7.6,8.3,7.5,8.3,7.4c0-0.1,0-0.2,0.1-0.2c0.1-0.1,0.1-0.1,0.2-0.1h10.7c0.1,0,0.2,0,0.2,0.1c0.1,0.1,0.1,0.1,0.1,0.2
			c0,0.1,0,0.2-0.1,0.2c-0.1,0.1-0.1,0.1-0.2,0.1H8.7z"/>
		<path d="M30.5,13.7c-1.4,0-2.3-0.6-2.8-1.7c-0.5-1.1-0.8-2.5-0.8-4.1c0-1,0.1-1.9,0.3-2.8c0.2-0.9,0.5-1.6,1.1-2.2
			C28.8,2.3,29.6,2,30.5,2c0.8,0,1.4,0.2,1.8,0.5c0.5,0.4,0.8,0.8,1.1,1.4c0.2,0.6,0.4,1.2,0.5,1.9c0.1,0.7,0.1,1.4,0.1,2.1
			c0,1-0.1,1.9-0.3,2.7c-0.2,0.9-0.5,1.6-1.1,2.2C32.2,13.4,31.5,13.7,30.5,13.7z M30.5,13.3c0.6,0,1.1-0.3,1.4-1
			c0.3-0.6,0.5-1.4,0.6-2.1c0.1-0.8,0.1-1.6,0.1-2.5c0-0.9,0-1.6-0.1-2.4c-0.1-0.7-0.3-1.4-0.6-2c-0.3-0.6-0.8-0.9-1.4-0.9
			c-0.6,0-1.1,0.3-1.4,0.9c-0.3,0.6-0.5,1.2-0.6,2c-0.1,0.7-0.1,1.5-0.1,2.4c0,0.6,0,1.2,0,1.8c0,0.6,0.1,1.1,0.2,1.7
			c0.1,0.6,0.3,1.1,0.6,1.5C29.6,13.1,30,13.3,30.5,13.3z"/>
		<path d="M36.2,12.4c0-0.3,0.1-0.5,0.3-0.7c0.2-0.2,0.4-0.3,0.7-0.3c0.2,0,0.3,0,0.5,0.1c0.1,0.1,0.3,0.2,0.3,0.3
			c0.1,0.1,0.1,0.3,0.1,0.5c0,0.3-0.1,0.5-0.3,0.7c-0.2,0.2-0.4,0.3-0.7,0.3c-0.3,0-0.5-0.1-0.7-0.3C36.3,12.9,36.2,12.7,36.2,12.4z
			"/>
		<path d="M43.7,13.7c-1.4,0-2.3-0.6-2.8-1.7s-0.8-2.5-0.8-4.1c0-1,0.1-1.9,0.3-2.8c0.2-0.9,0.5-1.6,1.1-2.2C42,2.3,42.8,2,43.7,2
			c0.8,0,1.4,0.2,1.8,0.5c0.5,0.4,0.8,0.8,1.1,1.4c0.2,0.6,0.4,1.2,0.5,1.9c0.1,0.7,0.1,1.4,0.1,2.1c0,1-0.1,1.9-0.3,2.7
			c-0.2,0.9-0.5,1.6-1.1,2.2C45.5,13.4,44.7,13.7,43.7,13.7z M43.7,13.3c0.6,0,1.1-0.3,1.4-1c0.3-0.6,0.5-1.4,0.6-2.1
			c0.1-0.8,0.1-1.6,0.1-2.5c0-0.9,0-1.6-0.1-2.4c-0.1-0.7-0.3-1.4-0.6-2c-0.3-0.6-0.8-0.9-1.4-0.9c-0.6,0-1.1,0.3-1.4,0.9
			c-0.3,0.6-0.5,1.2-0.6,2c-0.1,0.7-0.1,1.5-0.1,2.4c0,0.6,0,1.2,0,1.8c0,0.6,0.1,1.1,0.2,1.7c0.1,0.6,0.3,1.1,0.6,1.5
			C42.9,13.1,43.3,13.3,43.7,13.3z"/>
		<path d="M49.5,11.4c0.1,0.3,0.3,0.6,0.5,0.9c0.2,0.3,0.5,0.5,0.9,0.6c0.3,0.2,0.7,0.2,1,0.2c0.8,0,1.4-0.3,1.7-1
			c0.3-0.6,0.5-1.4,0.5-2.3c0-0.4,0-0.7,0-1c0-0.3-0.1-0.5-0.1-0.8c-0.1-0.4-0.3-0.7-0.6-1c-0.3-0.3-0.6-0.4-1-0.4
			c-0.4,0-0.7,0.1-1,0.2c-0.3,0.1-0.5,0.3-0.7,0.4c-0.2,0.2-0.3,0.3-0.5,0.5C50.1,7.9,50.1,8,50,8h-0.2c0,0-0.1,0-0.1,0
			c0,0-0.1-0.1-0.1-0.1V2.2c0,0,0-0.1,0-0.1c0,0,0.1,0,0.1,0h0c0.8,0.4,1.6,0.5,2.4,0.5c0.8,0,1.7-0.2,2.4-0.5h0c0,0,0.1,0,0.1,0
			c0,0,0,0.1,0,0.1v0.1c0,0.1,0,0.1,0,0.1c-0.4,0.5-0.9,0.9-1.5,1.2C52.9,3.9,52.3,4,51.7,4c-0.5,0-0.9-0.1-1.4-0.2v3.2
			c0.4-0.3,0.7-0.5,1-0.7c0.3-0.1,0.7-0.2,1.1-0.2c0.6,0,1.2,0.2,1.7,0.5c0.5,0.4,0.9,0.8,1.1,1.4c0.3,0.6,0.4,1.2,0.4,1.8
			c0,0.7-0.2,1.3-0.5,1.9c-0.3,0.6-0.8,1-1.4,1.4c-0.6,0.3-1.2,0.5-1.9,0.5c-0.6,0-1.1-0.1-1.5-0.4c-0.5-0.3-0.8-0.7-1.1-1.2
			c-0.3-0.5-0.4-1-0.4-1.5c0-0.3,0.1-0.5,0.2-0.6c0.2-0.2,0.4-0.2,0.6-0.2c0.2,0,0.5,0.1,0.6,0.2c0.2,0.2,0.3,0.4,0.3,0.6
			c0,0.2-0.1,0.4-0.3,0.6c-0.2,0.2-0.4,0.2-0.6,0.2c0,0-0.1,0-0.1,0C49.5,11.4,49.5,11.4,49.5,11.4z"/>
		<path d="M75.3,11.5c0-0.4,0-0.7,0.1-1.1c0.1-0.4,0.2-0.8,0.4-1.3c0.2-0.5,0.3-0.9,0.5-1.2c0.2-0.4,0.2-0.8,0.2-1
			c0-0.3-0.1-0.5-0.4-0.5c-0.4,0-0.8,0.2-1.1,0.7c-0.3,0.5-0.5,1-0.6,1.6c0,0.1-0.1,0.1-0.1,0.1h-0.2c-0.1,0-0.1,0-0.1-0.1v0
			c0.2-0.7,0.5-1.3,0.8-1.8c0.4-0.5,0.9-0.8,1.4-0.8c0.4,0,0.8,0.1,1,0.4c0.3,0.3,0.4,0.6,0.4,1c0,0.2,0,0.4-0.1,0.7
			c-0.1,0.1-0.2,0.4-0.3,0.9C77,9.3,76.9,9.7,76.8,10c-0.1,0.3-0.2,0.6-0.2,0.9c-0.1,0.3-0.1,0.6-0.1,0.9c0,0.4,0.1,0.7,0.2,1
			c0.2,0.3,0.4,0.4,0.8,0.4c0.7,0,1.4-0.4,1.9-1.3c0,0,0-0.1,0-0.1c0,0,0-0.1,0-0.1l1.2-4.9c0-0.1,0.1-0.3,0.3-0.4
			C81.1,6.1,81.2,6,81.4,6c0.1,0,0.3,0,0.4,0.1c0.1,0.1,0.1,0.2,0.1,0.3c0,0.1,0,0.1,0,0.1l-1.2,4.9c-0.1,0.3-0.1,0.6-0.1,0.8
			c0,0.5,0.2,0.7,0.5,0.7c0.4,0,0.6-0.2,0.8-0.7c0.2-0.4,0.3-1,0.5-1.6c0-0.1,0.1-0.1,0.1-0.1h0.2c0,0,0.1,0,0.1,0.1
			c0,0,0,0.1,0,0.1c-0.1,0.5-0.2,0.9-0.3,1.3c-0.1,0.3-0.3,0.7-0.5,1c-0.2,0.3-0.5,0.4-0.9,0.4c-0.4,0-0.7-0.1-1-0.3
			c-0.3-0.2-0.5-0.5-0.6-0.8c-0.3,0.3-0.6,0.6-0.9,0.8c-0.3,0.2-0.7,0.3-1.1,0.3c-0.7,0-1.2-0.2-1.6-0.5
			C75.5,12.7,75.3,12.1,75.3,11.5z"/>
		<path d="M86.1,16.2c-1,0-1.6-0.4-1.9-1.2c-0.3-0.8-0.5-1.7-0.5-2.8c0-0.7,0.1-1.3,0.2-1.9c0.1-0.6,0.4-1.1,0.7-1.5
			c0.4-0.4,0.9-0.6,1.5-0.6c0.5,0,0.9,0.1,1.3,0.4c0.3,0.2,0.6,0.6,0.7,1c0.2,0.4,0.3,0.8,0.3,1.3c0.1,0.5,0.1,0.9,0.1,1.4
			c0,0.7-0.1,1.3-0.2,1.9c-0.1,0.6-0.4,1.1-0.7,1.5C87.3,16,86.8,16.2,86.1,16.2z M86.1,15.9c0.4,0,0.8-0.2,1-0.7
			c0.2-0.4,0.3-0.9,0.4-1.5c0-0.5,0.1-1.1,0.1-1.7c0-0.6,0-1.1-0.1-1.6c0-0.5-0.2-0.9-0.4-1.3c-0.2-0.4-0.5-0.6-1-0.6
			s-0.8,0.2-1,0.6c-0.2,0.4-0.3,0.9-0.4,1.3c0,0.5-0.1,1-0.1,1.6c0,0.4,0,0.8,0,1.2c0,0.4,0.1,0.8,0.2,1.2c0.1,0.4,0.2,0.8,0.4,1
			C85.5,15.7,85.8,15.9,86.1,15.9z"/>
		<path d="M97,11.1c-0.1,0-0.2,0-0.2-0.1c-0.1-0.1-0.1-0.2-0.1-0.2c0-0.1,0-0.2,0.1-0.2c0.1-0.1,0.1-0.1,0.2-0.1h10.7
			c0.1,0,0.2,0,0.2,0.1c0.1,0.1,0.1,0.1,0.1,0.2c0,0.1,0,0.2-0.1,0.2c-0.1,0.1-0.1,0.1-0.2,0.1H97z M97,7.8c-0.1,0-0.2,0-0.2-0.1
			c-0.1-0.1-0.1-0.1-0.1-0.2c0-0.1,0-0.2,0.1-0.2c0.1-0.1,0.1-0.1,0.2-0.1h10.7c0.1,0,0.2,0,0.2,0.1c0.1,0.1,0.1,0.1,0.1,0.2
			c0,0.1,0,0.2-0.1,0.2c-0.1,0.1-0.1,0.1-0.2,0.1H97z"/>
		<path d="M118.8,13.7c-1.4,0-2.3-0.6-2.8-1.7c-0.5-1.1-0.8-2.5-0.8-4.1c0-1,0.1-1.9,0.3-2.8c0.2-0.9,0.5-1.6,1.1-2.2
			c0.5-0.6,1.3-0.9,2.2-0.9c0.8,0,1.4,0.2,1.8,0.5c0.5,0.4,0.8,0.8,1.1,1.4c0.2,0.6,0.4,1.2,0.5,1.9c0.1,0.7,0.1,1.4,0.1,2.1
			c0,1-0.1,1.9-0.3,2.7c-0.2,0.9-0.5,1.6-1.1,2.2C120.6,13.4,119.8,13.7,118.8,13.7z M118.8,13.3c0.6,0,1.1-0.3,1.4-1
			c0.3-0.6,0.5-1.4,0.6-2.1c0.1-0.8,0.1-1.6,0.1-2.5c0-0.9,0-1.6-0.1-2.4c-0.1-0.7-0.3-1.4-0.6-2c-0.3-0.6-0.8-0.9-1.4-0.9
			c-0.6,0-1.1,0.3-1.4,0.9c-0.3,0.6-0.5,1.2-0.6,2c-0.1,0.7-0.1,1.5-0.1,2.4c0,0.6,0,1.2,0,1.8c0,0.6,0.1,1.1,0.2,1.7
			c0.1,0.6,0.3,1.1,0.6,1.5C118,13.1,118.3,13.3,118.8,13.3z"/>
		<path d="M147.4,2.9c0-0.2,0.1-0.5,0.3-0.6c0.2-0.2,0.4-0.3,0.7-0.3c0.2,0,0.3,0,0.5,0.1c0.1,0.1,0.3,0.2,0.3,0.3
			c0.1,0.1,0.1,0.3,0.1,0.5c0,0.2-0.1,0.5-0.3,0.6c-0.2,0.2-0.4,0.3-0.7,0.3c-0.3,0-0.5-0.1-0.7-0.3C147.5,3.4,147.4,3.2,147.4,2.9z
			"/>
		<path d="M141.9,11.5c0-0.4,0-0.7,0.1-1.1c0.1-0.4,0.2-0.8,0.4-1.3c0.2-0.5,0.3-0.9,0.5-1.2c0.2-0.4,0.2-0.8,0.2-1
			c0-0.3-0.1-0.5-0.4-0.5c-0.4,0-0.8,0.2-1.1,0.7c-0.3,0.5-0.5,1-0.6,1.6c0,0.1-0.1,0.1-0.1,0.1h-0.2c-0.1,0-0.1,0-0.1-0.1v0
			c0.2-0.7,0.5-1.3,0.8-1.8c0.4-0.5,0.9-0.8,1.4-0.8c0.4,0,0.8,0.1,1,0.4s0.4,0.6,0.4,1c0,0.2,0,0.4-0.1,0.7
			c-0.1,0.1-0.2,0.4-0.3,0.9c-0.2,0.5-0.3,0.8-0.4,1.2c-0.1,0.3-0.2,0.6-0.2,0.9c-0.1,0.3-0.1,0.6-0.1,0.9c0,0.4,0.1,0.7,0.2,1
			c0.2,0.3,0.4,0.4,0.8,0.4c0.7,0,1.4-0.4,1.9-1.3c0,0,0-0.1,0-0.1c0,0,0-0.1,0-0.1l1.2-4.9c0-0.1,0.1-0.3,0.3-0.4
			c0.1-0.1,0.3-0.2,0.4-0.2c0.1,0,0.3,0,0.4,0.1c0.1,0.1,0.1,0.2,0.1,0.3c0,0.1,0,0.1,0,0.1l-1.2,4.9c-0.1,0.3-0.1,0.6-0.1,0.8
			c0,0.5,0.2,0.7,0.5,0.7c0.4,0,0.6-0.2,0.8-0.7c0.2-0.4,0.3-1,0.5-1.6c0-0.1,0.1-0.1,0.1-0.1h0.2c0,0,0.1,0,0.1,0.1
			c0,0,0,0.1,0,0.1c-0.1,0.5-0.2,0.9-0.3,1.3c-0.1,0.3-0.3,0.7-0.5,1c-0.2,0.3-0.5,0.4-0.9,0.4c-0.4,0-0.7-0.1-1-0.3
			c-0.3-0.2-0.5-0.5-0.6-0.8c-0.3,0.3-0.6,0.6-0.9,0.8c-0.3,0.2-0.7,0.3-1.1,0.3c-0.7,0-1.2-0.2-1.6-0.5
			C142.1,12.7,141.9,12.1,141.9,11.5z"/>
		<path d="M152.7,16.2c-1,0-1.6-0.4-1.9-1.2c-0.3-0.8-0.5-1.7-0.5-2.8c0-0.7,0.1-1.3,0.2-1.9c0.1-0.6,0.4-1.1,0.7-1.5
			c0.4-0.4,0.9-0.6,1.5-0.6c0.5,0,0.9,0.1,1.3,0.4c0.3,0.2,0.6,0.6,0.7,1c0.2,0.4,0.3,0.8,0.3,1.3c0.1,0.5,0.1,0.9,0.1,1.4
			c0,0.7-0.1,1.3-0.2,1.9c-0.1,0.6-0.4,1.1-0.7,1.5C153.9,16,153.4,16.2,152.7,16.2z M152.7,15.9c0.4,0,0.8-0.2,1-0.7
			c0.2-0.4,0.3-0.9,0.4-1.5c0-0.5,0.1-1.1,0.1-1.7c0-0.6,0-1.1-0.1-1.6s-0.2-0.9-0.4-1.3c-0.2-0.4-0.5-0.6-1-0.6
			c-0.4,0-0.8,0.2-1,0.6c-0.2,0.4-0.3,0.9-0.4,1.3c0,0.5-0.1,1-0.1,1.6c0,0.4,0,0.8,0,1.2c0,0.4,0.1,0.8,0.2,1.2
			c0.1,0.4,0.2,0.8,0.4,1C152.1,15.7,152.4,15.9,152.7,15.9z"/>
		<path d="M157.9,11.1c-0.1,0-0.2,0-0.2-0.1c-0.1-0.1-0.1-0.2-0.1-0.2c0-0.1,0-0.2,0.1-0.2c0.1-0.1,0.1-0.1,0.2-0.1h10.7
			c0.1,0,0.2,0,0.2,0.1c0.1,0.1,0.1,0.1,0.1,0.2c0,0.1,0,0.2-0.1,0.2c-0.1,0.1-0.1,0.1-0.2,0.1H157.9z M157.9,7.8
			c-0.1,0-0.2,0-0.2-0.1c-0.1-0.1-0.1-0.1-0.1-0.2c0-0.1,0-0.2,0.1-0.2c0.1-0.1,0.1-0.1,0.2-0.1h10.7c0.1,0,0.2,0,0.2,0.1
			s0.1,0.1,0.1,0.2c0,0.1,0,0.2-0.1,0.2c-0.1,0.1-0.1,0.1-0.2,0.1H157.9z"/>
		<path d="M177,11.4c0.1,0.3,0.3,0.6,0.5,0.9c0.2,0.3,0.5,0.5,0.9,0.6c0.3,0.2,0.7,0.2,1,0.2c0.8,0,1.4-0.3,1.7-1
			c0.3-0.6,0.5-1.4,0.5-2.3c0-0.4,0-0.7,0-1c0-0.3-0.1-0.5-0.1-0.8c-0.1-0.4-0.3-0.7-0.6-1c-0.3-0.3-0.6-0.4-1-0.4
			c-0.4,0-0.7,0.1-1,0.2c-0.3,0.1-0.5,0.3-0.7,0.4c-0.2,0.2-0.3,0.3-0.5,0.5c-0.1,0.2-0.2,0.3-0.2,0.3h-0.2c0,0-0.1,0-0.1,0
			c0,0-0.1-0.1-0.1-0.1V2.2c0,0,0-0.1,0-0.1c0,0,0.1,0,0.1,0h0c0.8,0.4,1.6,0.5,2.4,0.5c0.8,0,1.7-0.2,2.4-0.5h0c0,0,0.1,0,0.1,0
			c0,0,0,0.1,0,0.1v0.1c0,0.1,0,0.1,0,0.1c-0.4,0.5-0.9,0.9-1.5,1.2c-0.6,0.3-1.2,0.4-1.8,0.4c-0.5,0-0.9-0.1-1.4-0.2v3.2
			c0.4-0.3,0.7-0.5,1-0.7c0.3-0.1,0.7-0.2,1.1-0.2c0.6,0,1.2,0.2,1.7,0.5c0.5,0.4,0.9,0.8,1.1,1.4c0.3,0.6,0.4,1.2,0.4,1.8
			c0,0.7-0.2,1.3-0.5,1.9c-0.3,0.6-0.8,1-1.4,1.4c-0.6,0.3-1.2,0.5-1.9,0.5c-0.6,0-1.1-0.1-1.5-0.4c-0.5-0.3-0.8-0.7-1.1-1.2
			c-0.3-0.5-0.4-1-0.4-1.5c0-0.3,0.1-0.5,0.2-0.6c0.2-0.2,0.4-0.2,0.6-0.2c0.2,0,0.5,0.1,0.6,0.2c0.2,0.2,0.3,0.4,0.3,0.6
			c0,0.2-0.1,0.4-0.3,0.6c-0.2,0.2-0.4,0.2-0.6,0.2c0,0-0.1,0-0.1,0C177,11.4,177,11.4,177,11.4z"/>
		<path d="M-295.6,31.9c0.4,0.5,0.9,0.9,1.5,1.2c0.6,0.3,1.2,0.4,1.8,0.4c0.5,0,1-0.1,1.5-0.3c0.4-0.2,0.8-0.5,1.2-0.9
			c0.3-0.4,0.6-0.8,0.8-1.3c0.2-0.5,0.3-1,0.3-1.5c0-0.1,0-0.1,0.1-0.1h0.2c0.1,0,0.1,0.1,0.1,0.2c0,0.6-0.1,1.2-0.3,1.7
			c-0.2,0.6-0.5,1-1,1.5c-0.4,0.4-0.9,0.7-1.4,1c-0.5,0.2-1.1,0.4-1.7,0.4c-0.8,0-1.6-0.2-2.3-0.5c-0.7-0.3-1.4-0.8-1.9-1.4
			c-0.5-0.6-1-1.2-1.3-2c-0.3-0.8-0.4-1.5-0.4-2.3c0-0.8,0.1-1.6,0.4-2.4c0.3-0.8,0.7-1.4,1.3-2c0.5-0.6,1.2-1,1.9-1.3
			c0.7-0.3,1.5-0.5,2.3-0.5c0.6,0,1.1,0.1,1.7,0.4c0.5,0.2,1,0.6,1.4,1.1l1-1.4c0.1,0,0.1,0,0.1,0h0.1c0,0,0.1,0,0.1,0
			c0,0,0,0.1,0,0.1v4.6c0,0.1,0,0.1-0.1,0.1h-0.3c-0.1,0-0.2,0-0.2-0.1c0-0.3-0.1-0.7-0.2-1.1c-0.1-0.4-0.3-0.8-0.5-1.1
			c-0.2-0.4-0.4-0.7-0.7-1c-0.6-0.6-1.4-0.9-2.2-0.9c-0.6,0-1.2,0.1-1.8,0.4c-0.6,0.3-1.1,0.7-1.4,1.2c-0.4,0.5-0.7,1.1-0.9,1.8
			c-0.2,0.7-0.2,1.4-0.2,2.2c0,0.8,0.1,1.5,0.2,2.2C-296.3,30.8-296,31.4-295.6,31.9z"/>
		<path d="M-283,34c-0.7,0-1.3-0.2-1.9-0.5c-0.6-0.3-1-0.8-1.4-1.4c-0.3-0.6-0.5-1.2-0.5-1.9c0-0.5,0.1-1,0.3-1.5
			c0.2-0.5,0.4-0.9,0.8-1.3c0.3-0.4,0.8-0.7,1.2-0.9c0.5-0.2,1-0.3,1.5-0.3c0.7,0,1.3,0.2,1.9,0.5s1,0.9,1.4,1.5
			c0.3,0.6,0.5,1.3,0.5,2c0,0.7-0.2,1.3-0.5,1.9c-0.3,0.6-0.8,1.1-1.4,1.4C-281.7,33.8-282.3,34-283,34z M-283,33.4
			c0.9,0,1.5-0.3,1.8-1c0.3-0.7,0.5-1.5,0.5-2.5c0-0.6,0-1-0.1-1.4c-0.1-0.4-0.2-0.7-0.4-1c-0.1-0.2-0.3-0.4-0.5-0.5
			c-0.2-0.1-0.4-0.3-0.6-0.3c-0.2-0.1-0.4-0.1-0.7-0.1c-0.4,0-0.7,0.1-1,0.2c-0.3,0.2-0.6,0.4-0.8,0.7c-0.2,0.3-0.3,0.7-0.4,1.1
			c-0.1,0.4-0.1,0.8-0.1,1.4c0,0.6,0.1,1.2,0.2,1.7c0.1,0.5,0.3,0.9,0.7,1.3C-284.1,33.3-283.6,33.4-283,33.4z"/>
		<path d="M-278.2,33.8v-0.6c0.4,0,0.7,0,1-0.1c0.2-0.1,0.4-0.2,0.4-0.5V28c0-0.3,0-0.5-0.1-0.7c-0.1-0.1-0.2-0.2-0.4-0.2
			c-0.2,0-0.4,0-0.8,0v-0.6l2.5-0.2v1.7c0.2-0.5,0.6-0.9,1-1.2c0.4-0.3,0.9-0.5,1.5-0.5c1.3,0,2.1,0.5,2.3,1.6
			c0.2-0.5,0.6-0.9,1-1.2c0.4-0.3,0.9-0.4,1.4-0.4c0.5,0,0.9,0.1,1.3,0.2s0.6,0.4,0.8,0.8c0.2,0.3,0.3,0.8,0.3,1.3v4.1
			c0,0.2,0.1,0.4,0.4,0.5c0.2,0.1,0.6,0.1,1,0.1v0.6h-3.9v-0.6c0.4,0,0.7,0,1-0.1c0.2-0.1,0.4-0.2,0.4-0.5v-4c0-0.6-0.1-1-0.2-1.4
			c-0.2-0.3-0.5-0.5-1-0.5c-0.7,0-1.2,0.3-1.6,0.8c-0.4,0.5-0.6,1.1-0.6,1.8v3.4c0,0.2,0.1,0.4,0.4,0.5c0.2,0.1,0.6,0.1,1,0.1v0.6
			h-3.9v-0.6c0.4,0,0.7,0,1-0.1c0.2-0.1,0.4-0.2,0.4-0.5v-4c0-0.6-0.1-1-0.2-1.4c-0.2-0.4-0.5-0.5-1-0.5c-0.7,0-1.2,0.3-1.6,0.8
			c-0.4,0.5-0.6,1.1-0.6,1.8v3.4c0,0.2,0.1,0.4,0.4,0.5c0.2,0.1,0.6,0.1,0.9,0.1v0.6H-278.2z"/>
		<path d="M-264.1,37.1v-0.6c0.4,0,0.7,0,1-0.1c0.2-0.1,0.4-0.2,0.4-0.4v-8.2c0-0.3-0.1-0.5-0.3-0.6c-0.2-0.1-0.6-0.1-1-0.1v-0.6
			l2.5-0.2v1.1c0.3-0.3,0.7-0.6,1.1-0.8c0.4-0.2,0.9-0.3,1.3-0.3c0.7,0,1.3,0.2,1.8,0.5c0.5,0.4,1,0.8,1.3,1.4
			c0.3,0.6,0.5,1.2,0.5,1.9c0,0.7-0.2,1.3-0.5,1.9c-0.3,0.6-0.8,1.1-1.4,1.4c-0.6,0.4-1.2,0.5-1.9,0.5c-0.8,0-1.5-0.3-2.1-1v3
			c0,0.2,0.1,0.4,0.4,0.4c0.3,0.1,0.6,0.1,0.9,0.1v0.6H-264.1z M-261.5,32.1c0.2,0.4,0.5,0.7,0.8,1c0.4,0.3,0.7,0.4,1.2,0.4
			c0.4,0,0.7-0.1,1-0.3c0.3-0.2,0.6-0.5,0.8-0.8c0.2-0.4,0.4-0.7,0.5-1.1c0.1-0.4,0.1-0.8,0.1-1.1c0-0.5-0.1-0.9-0.2-1.5
			c-0.2-0.5-0.4-1-0.7-1.3c-0.3-0.4-0.7-0.5-1.2-0.5c-0.5,0-0.9,0.1-1.3,0.3c-0.4,0.2-0.7,0.6-0.9,1V32.1z"/>
		<path d="M-253.3,31.7V28c0-0.3,0-0.5-0.1-0.7c-0.1-0.1-0.2-0.2-0.4-0.2c-0.2,0-0.4,0-0.8,0v-0.6l2.6-0.2v5.5c0,0.4,0,0.8,0.1,1
			c0.1,0.2,0.2,0.4,0.4,0.5c0.2,0.1,0.5,0.2,1,0.2c0.6,0,1.1-0.3,1.5-0.8c0.4-0.5,0.5-1.1,0.5-1.7v-3c0-0.3,0-0.5-0.1-0.7
			c-0.1-0.1-0.2-0.2-0.4-0.2c-0.2,0-0.4,0-0.8,0v-0.6l2.6-0.2v6c0,0.3,0,0.5,0.1,0.6c0.1,0.1,0.2,0.2,0.4,0.2c0.2,0,0.4,0,0.8,0v0.6
			l-2.5,0.2v-1.4c-0.2,0.4-0.5,0.8-0.9,1c-0.4,0.3-0.8,0.4-1.2,0.4c-0.8,0-1.5-0.2-1.9-0.5C-253,33.1-253.3,32.5-253.3,31.7z"/>
		<path d="M-243.9,31.7V27h-1.4v-0.4c0.7,0,1.3-0.3,1.6-1c0.3-0.7,0.5-1.4,0.5-2.2h0.5v3.1h2.4V27h-2.4v4.7c0,0.5,0.1,0.9,0.2,1.2
			c0.2,0.4,0.4,0.5,0.9,0.5c0.4,0,0.7-0.2,0.8-0.6c0.2-0.4,0.3-0.8,0.3-1.2v-1h0.5v1c0,0.4-0.1,0.7-0.2,1c-0.1,0.3-0.3,0.6-0.6,0.9
			c-0.3,0.2-0.6,0.3-0.9,0.3c-0.7,0-1.2-0.2-1.6-0.6C-243.7,32.9-243.9,32.4-243.9,31.7z"/>
		<path d="M-234.8,34c-0.7,0-1.3-0.2-1.9-0.5s-1-0.9-1.4-1.5c-0.3-0.6-0.5-1.3-0.5-1.9c0-0.7,0.1-1.3,0.4-1.9
			c0.3-0.6,0.7-1.1,1.3-1.4s1.1-0.5,1.8-0.5c0.5,0,1,0.1,1.4,0.3c0.4,0.2,0.7,0.4,0.9,0.7c0.2,0.3,0.4,0.7,0.6,1.1
			c0.1,0.4,0.2,0.9,0.2,1.4c0,0.1-0.1,0.2-0.2,0.2h-4.9V30c0,0.9,0.2,1.7,0.6,2.4c0.4,0.7,1,1,1.9,1c0.4,0,0.7-0.1,1-0.2
			c0.3-0.2,0.6-0.4,0.8-0.6c0.2-0.3,0.4-0.6,0.4-0.9c0,0,0-0.1,0.1-0.1c0,0,0.1,0,0.1,0h0.1c0.1,0,0.2,0.1,0.2,0.2
			c-0.2,0.6-0.5,1.2-1,1.6S-234.1,34-234.8,34z M-237.1,29.4h3.9c0-0.4-0.1-0.9-0.2-1.3c-0.1-0.4-0.3-0.8-0.6-1.1
			c-0.3-0.3-0.6-0.4-1.1-0.4c-0.6,0-1.1,0.3-1.5,0.9C-236.9,28.1-237.1,28.7-237.1,29.4z"/>
		<path d="M-227.3,34c-0.7,0-1.3-0.2-1.8-0.5c-0.6-0.4-1-0.8-1.3-1.4c-0.3-0.6-0.5-1.2-0.5-1.9c0-0.7,0.2-1.3,0.5-1.9
			c0.3-0.6,0.8-1.1,1.4-1.4c0.6-0.3,1.2-0.5,1.9-0.5c0.4,0,0.8,0.1,1.2,0.3c0.4,0.2,0.7,0.4,1,0.7v-3.5c0-0.3,0-0.5-0.1-0.7
			c-0.1-0.1-0.2-0.2-0.4-0.2c-0.2,0-0.4,0-0.8,0v-0.6l2.5-0.2v10.3c0,0.3,0,0.5,0.1,0.6s0.2,0.2,0.4,0.2c0.2,0,0.4,0,0.8,0v0.6
			l-2.6,0.2v-1.1c-0.3,0.3-0.6,0.6-1,0.8C-226.5,33.9-226.9,34-227.3,34z M-229.1,32.3c0.2,0.4,0.4,0.7,0.8,0.9
			c0.3,0.2,0.7,0.3,1.1,0.3c0.5,0,0.9-0.1,1.3-0.4c0.4-0.3,0.7-0.6,0.9-1.1V28c-0.1-0.3-0.3-0.5-0.5-0.7c-0.2-0.2-0.4-0.3-0.7-0.4
			c-0.3-0.1-0.5-0.2-0.8-0.2c-0.6,0-1.1,0.2-1.4,0.5c-0.4,0.3-0.6,0.8-0.8,1.3c-0.1,0.5-0.2,1.1-0.2,1.6c0,0.5,0,0.8,0.1,1.2
			C-229.3,31.6-229.2,32-229.1,32.3z"/>
		<path d="M-220.6,32.8c0-0.3,0.1-0.5,0.3-0.7c0.2-0.2,0.4-0.3,0.7-0.3c0.2,0,0.3,0,0.5,0.1c0.1,0.1,0.3,0.2,0.3,0.3
			c0.1,0.1,0.1,0.3,0.1,0.5c0,0.3-0.1,0.5-0.3,0.7c-0.2,0.2-0.4,0.3-0.7,0.3s-0.5-0.1-0.7-0.3S-220.6,33.1-220.6,32.8z M-220.6,27.4
			c0-0.2,0-0.3,0.1-0.5c0.1-0.1,0.2-0.3,0.3-0.3c0.1-0.1,0.3-0.1,0.5-0.1c0.2,0,0.3,0,0.5,0.1c0.1,0.1,0.3,0.2,0.3,0.3
			c0.1,0.1,0.1,0.3,0.1,0.5c0,0.3-0.1,0.5-0.3,0.7c-0.2,0.2-0.4,0.3-0.7,0.3s-0.5-0.1-0.7-0.3C-220.5,27.8-220.6,27.6-220.6,27.4z"
			/>
		<path d="M-198.3,34c-0.6,0-1.1-0.2-1.4-0.7c-0.3-0.5-0.4-1.1-0.4-1.7c0-0.5,0-0.9,0.1-1.3c0.1-0.4,0.2-0.9,0.4-1.3
			s0.4-0.9,0.6-1.2c0.2-0.4,0.4-0.8,0.7-1.1c0.1-0.1,0.1-0.1,0.2-0.1c0.1,0,0.1,0,0.2,0.1c0,0,0.1,0.1,0.1,0.2c0,0.1,0,0.1,0,0.2
			c-1,1.4-1.6,2.7-1.6,3.9c0,0.5,0.1,1,0.4,1.3c0.2,0.4,0.6,0.6,1.1,0.6c0.4,0,0.8-0.1,1.2-0.4c0.4-0.2,0.7-0.6,0.9-1
			c0-0.2,0-0.5,0.1-0.9c0.1-0.4,0.2-0.8,0.3-1.1c0.1-0.3,0.3-0.5,0.5-0.5c0.3,0,0.4,0.1,0.4,0.4c0,0.2,0,0.4-0.1,0.7
			c-0.1,0.3-0.2,0.5-0.2,0.8c-0.1,0.2-0.2,0.5-0.3,0.8c0.1,0.8,0.5,1.2,1.2,1.2c0.4,0,0.8-0.1,1.2-0.3c0.4-0.2,0.7-0.5,1-0.9
			c0.3-0.4,0.5-0.8,0.7-1.2c0.2-0.4,0.3-0.8,0.3-1.2c0-0.3-0.1-0.6-0.2-0.8c-0.1-0.2-0.3-0.4-0.4-0.6s-0.3-0.4-0.3-0.5
			c0-0.2,0.1-0.4,0.3-0.6c0.2-0.2,0.4-0.3,0.6-0.3c0.3,0,0.5,0.1,0.6,0.4c0.1,0.3,0.2,0.5,0.2,0.9c0,0.5-0.1,1.2-0.3,2
			c-0.2,0.8-0.4,1.4-0.7,2c-0.4,0.7-0.8,1.3-1.4,1.8c-0.5,0.5-1.2,0.7-1.9,0.7c-0.4,0-0.8-0.1-1.1-0.4s-0.4-0.6-0.5-1.1
			c-0.3,0.4-0.7,0.8-1.1,1.1C-197.3,33.8-197.8,34-198.3,34z"/>
		<path d="M-182.2,31.5c-0.1,0-0.2,0-0.2-0.1c-0.1-0.1-0.1-0.2-0.1-0.2s0-0.2,0.1-0.2c0.1-0.1,0.1-0.1,0.2-0.1h10.7
			c0.1,0,0.2,0,0.2,0.1c0.1,0.1,0.1,0.1,0.1,0.2s0,0.2-0.1,0.2c-0.1,0.1-0.1,0.1-0.2,0.1H-182.2z M-182.2,28.2c-0.1,0-0.2,0-0.2-0.1
			c-0.1-0.1-0.1-0.1-0.1-0.2c0-0.1,0-0.2,0.1-0.2c0.1-0.1,0.1-0.1,0.2-0.1h10.7c0.1,0,0.2,0,0.2,0.1c0.1,0.1,0.1,0.1,0.1,0.2
			c0,0.1,0,0.2-0.1,0.2c-0.1,0.1-0.1,0.1-0.2,0.1H-182.2z"/>
		<path d="M-163.7,33.8v-0.5c0,0,0,0,0-0.1l2.6-2.9c0.4-0.4,0.7-0.8,1-1.1c0.2-0.3,0.5-0.6,0.7-1c0.2-0.4,0.4-0.8,0.6-1.2
			c0.1-0.4,0.2-0.8,0.2-1.3c0-0.5-0.1-0.9-0.3-1.3c-0.2-0.4-0.4-0.8-0.8-1c-0.3-0.3-0.8-0.4-1.2-0.4c-0.5,0-0.9,0.1-1.3,0.4
			c-0.4,0.3-0.7,0.7-0.8,1.2c0,0,0.1,0,0.2,0c0.3,0,0.5,0.1,0.6,0.3c0.2,0.2,0.3,0.4,0.3,0.7s-0.1,0.5-0.3,0.7
			c-0.2,0.2-0.4,0.3-0.6,0.3c-0.3,0-0.5-0.1-0.7-0.3c-0.2-0.2-0.3-0.4-0.3-0.7c0-0.4,0.1-0.8,0.2-1.2c0.2-0.4,0.4-0.7,0.7-1
			c0.3-0.3,0.6-0.5,1-0.7c0.4-0.2,0.8-0.2,1.2-0.2c0.6,0,1.2,0.1,1.8,0.4c0.6,0.3,1,0.7,1.3,1.2c0.3,0.5,0.5,1.1,0.5,1.8
			c0,0.5-0.1,1-0.3,1.4c-0.2,0.4-0.5,0.8-0.8,1.2c-0.3,0.4-0.8,0.8-1.3,1.2c-0.5,0.5-0.9,0.8-1,0.9l-1.9,1.9h1.6c0.8,0,1.5,0,2,0
			c0.5,0,0.8,0,0.9-0.1c0.1-0.1,0.3-0.7,0.4-1.6h0.5l-0.5,3H-163.7z"/>
		<path d="M-154.4,32.4c0.3,0.4,0.6,0.7,1.1,0.9c0.4,0.2,0.9,0.3,1.4,0.3c0.7,0,1.1-0.3,1.4-0.8c0.3-0.6,0.4-1.2,0.4-1.9
			c0-0.3,0-0.6-0.1-1c-0.1-0.3-0.2-0.6-0.3-0.9c-0.1-0.3-0.3-0.5-0.6-0.7c-0.2-0.2-0.5-0.2-0.9-0.2h-1.1c-0.1,0-0.1-0.1-0.1-0.2
			v-0.1c0-0.1,0-0.1,0.1-0.1l0.9-0.1c0.4,0,0.7-0.1,1-0.4c0.3-0.3,0.5-0.7,0.6-1.1c0.1-0.4,0.2-0.8,0.2-1.2c0-0.5-0.1-1-0.4-1.3
			c-0.3-0.3-0.6-0.5-1.2-0.5c-0.4,0-0.8,0.1-1.2,0.2c-0.4,0.2-0.7,0.4-0.9,0.7c0,0,0,0,0.1,0c0,0,0,0,0.1,0c0.3,0,0.5,0.1,0.6,0.3
			c0.2,0.2,0.3,0.4,0.3,0.6c0,0.2-0.1,0.5-0.3,0.6c-0.2,0.2-0.4,0.3-0.6,0.3c-0.2,0-0.5-0.1-0.6-0.3c-0.2-0.2-0.3-0.4-0.3-0.6
			c0-0.5,0.1-0.9,0.4-1.3c0.3-0.4,0.7-0.6,1.1-0.8c0.5-0.2,0.9-0.3,1.4-0.3c0.3,0,0.7,0,1.1,0.1c0.4,0.1,0.7,0.2,1,0.4
			c0.3,0.2,0.6,0.4,0.8,0.7c0.2,0.3,0.3,0.6,0.3,1c0,0.5-0.1,0.9-0.3,1.3c-0.2,0.4-0.5,0.8-0.9,1c-0.4,0.3-0.8,0.5-1.2,0.7
			c0.5,0.1,1,0.3,1.4,0.6c0.4,0.3,0.8,0.6,1.1,1.1c0.3,0.4,0.4,0.9,0.4,1.4c0,0.6-0.2,1.2-0.5,1.7c-0.3,0.5-0.8,0.9-1.4,1.2
			c-0.6,0.3-1.1,0.4-1.8,0.4c-0.5,0-1.1-0.1-1.6-0.3c-0.5-0.2-1-0.5-1.3-0.9c-0.3-0.4-0.5-0.9-0.5-1.5c0-0.3,0.1-0.5,0.3-0.7
			c0.2-0.2,0.4-0.3,0.7-0.3c0.2,0,0.3,0,0.5,0.1c0.2,0.1,0.3,0.2,0.4,0.4c0.1,0.2,0.1,0.3,0.1,0.5c0,0.3-0.1,0.5-0.3,0.7
			C-153.9,32.3-154.1,32.4-154.4,32.4L-154.4,32.4z"/>
		<path d="M-146.1,32.8c0-0.3,0.1-0.5,0.3-0.7c0.2-0.2,0.4-0.3,0.7-0.3c0.2,0,0.3,0,0.5,0.1c0.1,0.1,0.3,0.2,0.3,0.3
			c0.1,0.1,0.1,0.3,0.1,0.5c0,0.3-0.1,0.5-0.3,0.7c-0.2,0.2-0.4,0.3-0.7,0.3c-0.3,0-0.5-0.1-0.7-0.3
			C-146.1,33.3-146.1,33.1-146.1,32.8z"/>
		<path d="M-141.3,33.8v-0.6c1.4,0,2.1-0.2,2.1-0.5v-8.9c-0.6,0.3-1.3,0.4-2.2,0.4v-0.6c1.4,0,2.4-0.4,3.2-1.1h0.2c0,0,0.1,0,0.1,0
			c0,0,0,0.1,0,0.1v10c0,0.4,0.7,0.5,2.1,0.5v0.6H-141.3z"/>
		<path d="M-130.1,34.1c-1.4,0-2.3-0.6-2.8-1.7c-0.5-1.1-0.8-2.5-0.8-4.1c0-1,0.1-1.9,0.3-2.8c0.2-0.9,0.5-1.6,1.1-2.2
			c0.5-0.6,1.3-0.9,2.2-0.9c0.8,0,1.4,0.2,1.8,0.5c0.5,0.4,0.8,0.8,1.1,1.4c0.2,0.6,0.4,1.2,0.5,1.9c0.1,0.7,0.1,1.4,0.1,2.1
			c0,1-0.1,1.9-0.3,2.7c-0.2,0.9-0.5,1.6-1.1,2.2C-128.4,33.8-129.1,34.1-130.1,34.1z M-130.1,33.7c0.6,0,1.1-0.3,1.4-1
			c0.3-0.6,0.5-1.4,0.6-2.1c0.1-0.8,0.1-1.6,0.1-2.5c0-0.9,0-1.6-0.1-2.4c-0.1-0.7-0.3-1.4-0.6-2c-0.3-0.6-0.8-0.9-1.4-0.9
			c-0.6,0-1.1,0.3-1.4,0.9c-0.3,0.6-0.5,1.2-0.6,2c-0.1,0.7-0.1,1.5-0.1,2.4c0,0.6,0,1.2,0,1.8c0,0.6,0.1,1.1,0.2,1.7
			c0.1,0.6,0.3,1.1,0.6,1.5C-131,33.5-130.6,33.7-130.1,33.7z"/>
		<path d="M-124.4,31.8c0.1,0.3,0.3,0.6,0.5,0.9c0.2,0.3,0.5,0.5,0.9,0.6c0.3,0.2,0.7,0.2,1,0.2c0.8,0,1.4-0.3,1.7-1
			c0.3-0.6,0.5-1.4,0.5-2.3c0-0.4,0-0.7,0-1c0-0.3-0.1-0.5-0.1-0.8c-0.1-0.4-0.3-0.7-0.6-1c-0.3-0.3-0.6-0.4-1-0.4
			c-0.4,0-0.7,0.1-1,0.2c-0.3,0.1-0.5,0.3-0.7,0.4c-0.2,0.2-0.3,0.3-0.5,0.5c-0.1,0.2-0.2,0.3-0.2,0.3h-0.2c0,0-0.1,0-0.1,0
			c0,0-0.1-0.1-0.1-0.1v-5.7c0,0,0-0.1,0-0.1c0,0,0.1,0,0.1,0h0c0.8,0.4,1.6,0.5,2.4,0.5c0.8,0,1.7-0.2,2.4-0.5h0c0,0,0.1,0,0.1,0
			c0,0,0,0.1,0,0.1v0.1c0,0.1,0,0.1,0,0.1c-0.4,0.5-0.9,0.9-1.5,1.2c-0.6,0.3-1.2,0.4-1.8,0.4c-0.5,0-0.9-0.1-1.4-0.2v3.2
			c0.4-0.3,0.7-0.5,1-0.7c0.3-0.1,0.7-0.2,1.1-0.2c0.6,0,1.2,0.2,1.7,0.5c0.5,0.4,0.9,0.8,1.1,1.4s0.4,1.2,0.4,1.8
			c0,0.7-0.2,1.3-0.5,1.9c-0.3,0.6-0.8,1-1.4,1.4c-0.6,0.3-1.2,0.5-1.9,0.5c-0.6,0-1.1-0.1-1.5-0.4c-0.5-0.3-0.8-0.7-1.1-1.2
			c-0.3-0.5-0.4-1-0.4-1.5c0-0.3,0.1-0.5,0.2-0.6c0.2-0.2,0.4-0.2,0.6-0.2c0.2,0,0.5,0.1,0.6,0.2c0.2,0.2,0.3,0.4,0.3,0.6
			c0,0.2-0.1,0.4-0.3,0.6c-0.2,0.2-0.4,0.2-0.6,0.2c0,0-0.1,0-0.1,0C-124.3,31.8-124.4,31.8-124.4,31.8z"/>
		<path d="M-98.3,34c-0.6,0-1.1-0.2-1.4-0.7c-0.3-0.5-0.4-1.1-0.4-1.7c0-0.5,0-0.9,0.1-1.3c0.1-0.4,0.2-0.9,0.4-1.3
			c0.2-0.4,0.4-0.9,0.6-1.2c0.2-0.4,0.4-0.8,0.7-1.1c0.1-0.1,0.1-0.1,0.2-0.1c0.1,0,0.1,0,0.2,0.1c0,0,0.1,0.1,0.1,0.2
			c0,0.1,0,0.1,0,0.2c-1,1.4-1.6,2.7-1.6,3.9c0,0.5,0.1,1,0.4,1.3c0.2,0.4,0.6,0.6,1.1,0.6c0.4,0,0.8-0.1,1.2-0.4s0.7-0.6,0.9-1
			c0-0.2,0-0.5,0.1-0.9c0.1-0.4,0.2-0.8,0.3-1.1c0.1-0.3,0.3-0.5,0.5-0.5c0.3,0,0.4,0.1,0.4,0.4c0,0.2,0,0.4-0.1,0.7
			c-0.1,0.3-0.2,0.5-0.2,0.8c-0.1,0.2-0.2,0.5-0.3,0.8c0.1,0.8,0.5,1.2,1.2,1.2c0.4,0,0.8-0.1,1.2-0.3c0.4-0.2,0.7-0.5,1-0.9
			c0.3-0.4,0.5-0.8,0.7-1.2c0.2-0.4,0.3-0.8,0.3-1.2c0-0.3-0.1-0.6-0.2-0.8c-0.1-0.2-0.3-0.4-0.4-0.6c-0.2-0.2-0.3-0.4-0.3-0.5
			c0-0.2,0.1-0.4,0.3-0.6c0.2-0.2,0.4-0.3,0.6-0.3c0.3,0,0.5,0.1,0.6,0.4c0.1,0.3,0.2,0.5,0.2,0.9c0,0.5-0.1,1.2-0.3,2
			c-0.2,0.8-0.4,1.4-0.7,2c-0.4,0.7-0.8,1.3-1.4,1.8c-0.5,0.5-1.2,0.7-1.9,0.7c-0.4,0-0.8-0.1-1.1-0.4s-0.4-0.6-0.5-1.1
			c-0.3,0.4-0.7,0.8-1.1,1.1C-97.4,33.8-97.8,34-98.3,34z"/>
		<path d="M-87.7,36.4c-0.5,0-0.9-0.2-1.2-0.6c-0.3-0.4-0.4-0.8-0.4-1.3c0-0.5,0.1-1,0.4-1.6c0.3-0.5,0.6-1,1-1.3
			c0.4-0.4,0.9-0.5,1.4-0.5c0.2,0,0.4,0.1,0.6,0.2c0.2,0.1,0.3,0.3,0.4,0.5l0.6-2.6c0-0.1,0.1-0.2,0.1-0.3c0-0.1-0.3-0.2-0.8-0.2
			c-0.1,0-0.1,0-0.1-0.1c0,0,0-0.1,0-0.1c0,0,0-0.1,0.1-0.1c0,0,0,0,0.1,0l1.6-0.1c0.1,0,0.1,0,0.1,0.1l-1.7,6.7
			c-0.1,0.1-0.1,0.3-0.1,0.6c0,0.3,0.1,0.5,0.3,0.5c0.2,0,0.4-0.2,0.6-0.5s0.2-0.7,0.3-1.1c0-0.1,0.1-0.1,0.1-0.1h0.1c0,0,0,0,0.1,0
			c0,0,0,0.1,0,0.1c-0.1,0.5-0.3,1-0.5,1.3c-0.2,0.3-0.4,0.5-0.8,0.5c-0.3,0-0.5-0.1-0.7-0.2c-0.2-0.2-0.3-0.4-0.4-0.6
			C-86.7,36.2-87.2,36.4-87.7,36.4z M-87.7,36.1c0.3,0,0.6-0.1,0.8-0.3c0.3-0.2,0.5-0.5,0.7-0.7c0,0,0,0,0,0l0.6-2.6
			c0-0.3-0.1-0.5-0.3-0.7c-0.2-0.2-0.4-0.3-0.6-0.3c-0.3,0-0.5,0.1-0.7,0.3c-0.2,0.2-0.4,0.5-0.6,0.8c-0.1,0.3-0.3,0.8-0.4,1.3
			c-0.1,0.5-0.2,1-0.2,1.3c0,0.3,0.1,0.5,0.2,0.7C-88.2,36-88,36.1-87.7,36.1z"/>
		<path d="M-75.8,31.5c-0.1,0-0.2,0-0.2-0.1c-0.1-0.1-0.1-0.2-0.1-0.2s0-0.2,0.1-0.2c0.1-0.1,0.1-0.1,0.2-0.1h10.7
			c0.1,0,0.2,0,0.2,0.1c0.1,0.1,0.1,0.1,0.1,0.2s0,0.2-0.1,0.2c-0.1,0.1-0.1,0.1-0.2,0.1H-75.8z M-75.8,28.2c-0.1,0-0.2,0-0.2-0.1
			c-0.1-0.1-0.1-0.1-0.1-0.2c0-0.1,0-0.2,0.1-0.2c0.1-0.1,0.1-0.1,0.2-0.1h10.7c0.1,0,0.2,0,0.2,0.1c0.1,0.1,0.1,0.1,0.1,0.2
			c0,0.1,0,0.2-0.1,0.2c-0.1,0.1-0.1,0.1-0.2,0.1H-75.8z"/>
		<path d="M-57.3,33.8v-0.5c0,0,0,0,0-0.1l2.6-2.9c0.4-0.4,0.7-0.8,1-1.1c0.2-0.3,0.5-0.6,0.7-1c0.2-0.4,0.4-0.8,0.6-1.2
			c0.1-0.4,0.2-0.8,0.2-1.3c0-0.5-0.1-0.9-0.3-1.3c-0.2-0.4-0.4-0.8-0.8-1c-0.3-0.3-0.8-0.4-1.2-0.4c-0.5,0-0.9,0.1-1.3,0.4
			c-0.4,0.3-0.7,0.7-0.8,1.2c0,0,0.1,0,0.2,0c0.3,0,0.5,0.1,0.6,0.3c0.2,0.2,0.3,0.4,0.3,0.7c0,0.3-0.1,0.5-0.3,0.7
			c-0.2,0.2-0.4,0.3-0.6,0.3c-0.3,0-0.5-0.1-0.7-0.3c-0.2-0.2-0.3-0.4-0.3-0.7c0-0.4,0.1-0.8,0.2-1.2c0.2-0.4,0.4-0.7,0.7-1
			c0.3-0.3,0.6-0.5,1-0.7c0.4-0.2,0.8-0.2,1.2-0.2c0.6,0,1.2,0.1,1.8,0.4c0.6,0.3,1,0.7,1.3,1.2c0.3,0.5,0.5,1.1,0.5,1.8
			c0,0.5-0.1,1-0.3,1.4s-0.5,0.8-0.8,1.2c-0.3,0.4-0.8,0.8-1.3,1.2c-0.5,0.5-0.9,0.8-1,0.9l-1.9,1.9h1.6c0.8,0,1.5,0,2,0
			c0.5,0,0.8,0,0.9-0.1c0.1-0.1,0.3-0.7,0.4-1.6h0.5l-0.5,3H-57.3z"/>
		<path d="M-48,32.4c0.3,0.4,0.6,0.7,1.1,0.9c0.4,0.2,0.9,0.3,1.4,0.3c0.7,0,1.1-0.3,1.4-0.8c0.3-0.6,0.4-1.2,0.4-1.9
			c0-0.3,0-0.6-0.1-1c-0.1-0.3-0.2-0.6-0.3-0.9c-0.1-0.3-0.3-0.5-0.6-0.7c-0.2-0.2-0.5-0.2-0.9-0.2h-1.1c-0.1,0-0.1-0.1-0.1-0.2
			v-0.1c0-0.1,0-0.1,0.1-0.1l0.9-0.1c0.4,0,0.7-0.1,1-0.4s0.5-0.7,0.6-1.1c0.1-0.4,0.2-0.8,0.2-1.2c0-0.5-0.1-1-0.4-1.3
			c-0.3-0.3-0.6-0.5-1.2-0.5c-0.4,0-0.8,0.1-1.2,0.2s-0.7,0.4-0.9,0.7c0,0,0,0,0.1,0c0,0,0,0,0.1,0c0.3,0,0.5,0.1,0.6,0.3
			c0.2,0.2,0.3,0.4,0.3,0.6c0,0.2-0.1,0.5-0.3,0.6c-0.2,0.2-0.4,0.3-0.6,0.3c-0.2,0-0.5-0.1-0.6-0.3c-0.2-0.2-0.3-0.4-0.3-0.6
			c0-0.5,0.1-0.9,0.4-1.3c0.3-0.4,0.7-0.6,1.1-0.8c0.5-0.2,0.9-0.3,1.4-0.3c0.3,0,0.7,0,1.1,0.1c0.4,0.1,0.7,0.2,1,0.4
			c0.3,0.2,0.6,0.4,0.8,0.7c0.2,0.3,0.3,0.6,0.3,1c0,0.5-0.1,0.9-0.3,1.3c-0.2,0.4-0.5,0.8-0.9,1c-0.4,0.3-0.8,0.5-1.2,0.7
			c0.5,0.1,1,0.3,1.4,0.6c0.4,0.3,0.8,0.6,1.1,1.1c0.3,0.4,0.4,0.9,0.4,1.4c0,0.6-0.2,1.2-0.5,1.7c-0.3,0.5-0.8,0.9-1.4,1.2
			c-0.6,0.3-1.1,0.4-1.8,0.4c-0.5,0-1.1-0.1-1.6-0.3c-0.5-0.2-1-0.5-1.3-0.9c-0.3-0.4-0.5-0.9-0.5-1.5c0-0.3,0.1-0.5,0.3-0.7
			c0.2-0.2,0.4-0.3,0.7-0.3c0.2,0,0.3,0,0.5,0.1c0.2,0.1,0.3,0.2,0.4,0.4c0.1,0.2,0.1,0.3,0.1,0.5c0,0.3-0.1,0.5-0.3,0.7
			C-47.5,32.3-47.7,32.4-48,32.4L-48,32.4z"/>
		<path d="M-39.7,32.8c0-0.3,0.1-0.5,0.3-0.7c0.2-0.2,0.4-0.3,0.7-0.3c0.2,0,0.3,0,0.5,0.1c0.1,0.1,0.3,0.2,0.3,0.3
			c0.1,0.1,0.1,0.3,0.1,0.5c0,0.3-0.1,0.5-0.3,0.7s-0.4,0.3-0.7,0.3c-0.3,0-0.5-0.1-0.7-0.3C-39.6,33.3-39.7,33.1-39.7,32.8z"/>
		<path d="M-32.2,34.1c-1.4,0-2.3-0.6-2.8-1.7c-0.5-1.1-0.8-2.5-0.8-4.1c0-1,0.1-1.9,0.3-2.8c0.2-0.9,0.5-1.6,1.1-2.2
			c0.5-0.6,1.3-0.9,2.2-0.9c0.8,0,1.4,0.2,1.8,0.5c0.5,0.4,0.8,0.8,1.1,1.4c0.2,0.6,0.4,1.2,0.5,1.9c0.1,0.7,0.1,1.4,0.1,2.1
			c0,1-0.1,1.9-0.3,2.7c-0.2,0.9-0.5,1.6-1.1,2.2C-30.5,33.8-31.2,34.1-32.2,34.1z M-32.2,33.7c0.6,0,1.1-0.3,1.4-1
			c0.3-0.6,0.5-1.4,0.6-2.1c0.1-0.8,0.1-1.6,0.1-2.5c0-0.9,0-1.6-0.1-2.4c-0.1-0.7-0.3-1.4-0.6-2c-0.3-0.6-0.8-0.9-1.4-0.9
			c-0.6,0-1.1,0.3-1.4,0.9c-0.3,0.6-0.5,1.2-0.6,2c-0.1,0.7-0.1,1.5-0.1,2.4c0,0.6,0,1.2,0,1.8c0,0.6,0.1,1.1,0.2,1.7
			c0.1,0.6,0.3,1.1,0.6,1.5C-33.1,33.5-32.7,33.7-32.2,33.7z"/>
		<path d="M-25,33.3c0-0.6,0.1-1.2,0.2-1.9c0.1-0.6,0.3-1.2,0.5-1.8c0.2-0.6,0.5-1.2,0.8-1.7s0.6-1.1,1-1.6l1.5-2.2H-23
			c-2,0-3,0-3.1,0.1c-0.2,0.2-0.3,0.7-0.4,1.6H-27l0.5-3.6h0.5v0c0,0.2,0.3,0.3,1,0.4c0.7,0.1,1.4,0.1,2,0.1h3.2v0.4c0,0,0,0,0,0
			c0,0,0,0,0,0l-2.3,3.3c-0.6,0.9-0.9,1.8-1.1,2.8c-0.1,1-0.2,2.3-0.2,3.9c0,0.2-0.1,0.4-0.2,0.6c-0.2,0.2-0.4,0.2-0.6,0.2
			c-0.2,0-0.4-0.1-0.6-0.2C-24.9,33.7-25,33.5-25,33.3z"/>
		<path d="M-15.2,34.1c-0.7,0-1.3-0.2-1.8-0.6c-0.5-0.4-0.8-0.9-1.1-1.5c-0.3-0.6-0.4-1.2-0.5-1.9c-0.1-0.7-0.1-1.3-0.1-2
			c0-0.9,0.2-1.8,0.5-2.7c0.3-0.9,0.9-1.6,1.5-2.2c0.7-0.6,1.5-0.9,2.4-0.9c0.4,0,0.7,0.1,1.1,0.2c0.3,0.1,0.6,0.4,0.8,0.6
			c0.2,0.3,0.3,0.6,0.3,1c0,0.2-0.1,0.4-0.2,0.6c-0.2,0.2-0.4,0.2-0.6,0.2c-0.2,0-0.4-0.1-0.6-0.2c-0.2-0.2-0.2-0.4-0.2-0.6
			c0-0.2,0.1-0.4,0.2-0.6c0.2-0.2,0.4-0.2,0.6-0.2h0.1c-0.1-0.2-0.3-0.3-0.6-0.4c-0.3-0.1-0.5-0.1-0.8-0.1c-0.3,0-0.7,0.1-1,0.2
			c-0.3,0.1-0.6,0.4-0.8,0.6c-0.2,0.3-0.4,0.5-0.6,0.8c-0.2,0.3-0.3,0.7-0.4,1.1c-0.1,0.4-0.1,0.8-0.2,1.1c0,0.3,0,0.8,0,1.3
			c0.2-0.5,0.5-0.8,0.8-1.1c0.4-0.3,0.8-0.4,1.2-0.4c0.5,0,1,0.1,1.4,0.3c0.4,0.2,0.8,0.5,1.1,0.9c0.3,0.4,0.5,0.8,0.7,1.2
			c0.2,0.5,0.2,0.9,0.2,1.4c0,0.7-0.1,1.3-0.4,1.9c-0.3,0.6-0.7,1.1-1.2,1.4C-13.9,34-14.5,34.1-15.2,34.1z M-15.2,33.6
			c0.4,0,0.8-0.1,1.1-0.3c0.3-0.2,0.5-0.5,0.6-0.8c0.1-0.3,0.2-0.7,0.2-1c0-0.3,0-0.7,0-1.2c0-0.6,0-1.2-0.1-1.6
			c-0.1-0.5-0.2-0.9-0.5-1.2c-0.3-0.3-0.7-0.5-1.3-0.5c-0.5,0-0.8,0.2-1.1,0.5c-0.3,0.3-0.5,0.7-0.6,1.2s-0.2,0.9-0.2,1.4
			c0,0.2,0,0.3,0,0.3c0,0,0,0,0,0c0,0,0,0,0,0c0,0.5,0,1,0.1,1.5c0.1,0.5,0.3,0.9,0.6,1.3C-16.1,33.4-15.7,33.6-15.2,33.6z"/>
		<path d="M14.6,33.8v-0.6c0.6,0,1.1,0,1.7-0.1c0.5-0.1,0.8-0.2,0.8-0.4v-9.3c0-0.2-0.1-0.4-0.2-0.5c-0.1-0.1-0.4-0.1-0.7-0.1h-0.7
			c-0.9,0-1.6,0.2-2,0.6c-0.2,0.2-0.4,0.5-0.4,1c-0.1,0.4-0.2,1-0.2,1.7h-0.5l0.3-3.9H23l0.3,3.9h-0.5c-0.1-0.7-0.1-1.3-0.2-1.7
			s-0.2-0.7-0.4-0.9c-0.4-0.4-1.1-0.6-2-0.6h-0.7c-0.2,0-0.4,0-0.5,0c-0.1,0-0.2,0.1-0.3,0.1c-0.1,0.1-0.1,0.2-0.1,0.4v9.3
			c0,0.2,0.3,0.4,0.8,0.4c0.5,0.1,1.1,0.1,1.7,0.1v0.6H14.6z"/>
		<path d="M30.9,31.5c-0.1,0-0.2,0-0.2-0.1c-0.1-0.1-0.1-0.2-0.1-0.2s0-0.2,0.1-0.2c0.1-0.1,0.1-0.1,0.2-0.1h10.7
			c0.1,0,0.2,0,0.2,0.1c0.1,0.1,0.1,0.1,0.1,0.2s0,0.2-0.1,0.2c-0.1,0.1-0.1,0.1-0.2,0.1H30.9z M30.9,28.2c-0.1,0-0.2,0-0.2-0.1
			c-0.1-0.1-0.1-0.1-0.1-0.2c0-0.1,0-0.2,0.1-0.2c0.1-0.1,0.1-0.1,0.2-0.1h10.7c0.1,0,0.2,0,0.2,0.1c0.1,0.1,0.1,0.1,0.1,0.2
			c0,0.1,0,0.2-0.1,0.2c-0.1,0.1-0.1,0.1-0.2,0.1H30.9z"/>
		<path d="M52.8,34.1c-1.4,0-2.3-0.6-2.8-1.7c-0.5-1.1-0.8-2.5-0.8-4.1c0-1,0.1-1.9,0.3-2.8c0.2-0.9,0.5-1.6,1.1-2.2
			c0.5-0.6,1.3-0.9,2.2-0.9c0.8,0,1.4,0.2,1.8,0.5c0.5,0.4,0.8,0.8,1.1,1.4c0.2,0.6,0.4,1.2,0.5,1.9c0.1,0.7,0.1,1.4,0.1,2.1
			c0,1-0.1,1.9-0.3,2.7c-0.2,0.9-0.5,1.6-1.1,2.2C54.5,33.8,53.8,34.1,52.8,34.1z M52.8,33.7c0.6,0,1.1-0.3,1.4-1
			c0.3-0.6,0.5-1.4,0.6-2.1c0.1-0.8,0.1-1.6,0.1-2.5c0-0.9,0-1.6-0.1-2.4c-0.1-0.7-0.3-1.4-0.6-2c-0.3-0.6-0.8-0.9-1.4-0.9
			c-0.6,0-1.1,0.3-1.4,0.9c-0.3,0.6-0.5,1.2-0.6,2c-0.1,0.7-0.1,1.5-0.1,2.4c0,0.6,0,1.2,0,1.8c0,0.6,0.1,1.1,0.2,1.7
			c0.1,0.6,0.3,1.1,0.6,1.5C51.9,33.5,52.3,33.7,52.8,33.7z"/>
		<path d="M58.5,32.8c0-0.3,0.1-0.5,0.3-0.7c0.2-0.2,0.4-0.3,0.7-0.3c0.2,0,0.3,0,0.5,0.1c0.1,0.1,0.3,0.2,0.3,0.3
			c0.1,0.1,0.1,0.3,0.1,0.5c0,0.3-0.1,0.5-0.3,0.7c-0.2,0.2-0.4,0.3-0.7,0.3c-0.3,0-0.5-0.1-0.7-0.3C58.6,33.3,58.5,33.1,58.5,32.8z
			"/>
		<path d="M62.6,33.8v-0.5c0,0,0,0,0-0.1l2.6-2.9c0.4-0.4,0.7-0.8,1-1.1c0.2-0.3,0.5-0.6,0.7-1c0.2-0.4,0.4-0.8,0.6-1.2
			c0.1-0.4,0.2-0.8,0.2-1.3c0-0.5-0.1-0.9-0.3-1.3c-0.2-0.4-0.4-0.8-0.8-1C66.4,23.2,66,23,65.5,23c-0.5,0-0.9,0.1-1.3,0.4
			c-0.4,0.3-0.7,0.7-0.8,1.2c0,0,0.1,0,0.2,0c0.3,0,0.5,0.1,0.6,0.3c0.2,0.2,0.3,0.4,0.3,0.7s-0.1,0.5-0.3,0.7
			c-0.2,0.2-0.4,0.3-0.6,0.3c-0.3,0-0.5-0.1-0.7-0.3c-0.2-0.2-0.3-0.4-0.3-0.7c0-0.4,0.1-0.8,0.2-1.2c0.2-0.4,0.4-0.7,0.7-1
			c0.3-0.3,0.6-0.5,1-0.7c0.4-0.2,0.8-0.2,1.2-0.2c0.6,0,1.2,0.1,1.8,0.4c0.6,0.3,1,0.7,1.3,1.2c0.3,0.5,0.5,1.1,0.5,1.8
			c0,0.5-0.1,1-0.3,1.4s-0.5,0.8-0.8,1.2c-0.3,0.4-0.8,0.8-1.3,1.2c-0.5,0.5-0.9,0.8-1,0.9L64,32.4h1.6c0.8,0,1.5,0,2,0
			c0.5,0,0.8,0,0.9-0.1c0.1-0.1,0.3-0.7,0.4-1.6h0.5l-0.5,3H62.6z"/>
		<path d="M73.2,33.3c0-0.6,0.1-1.2,0.2-1.9c0.1-0.6,0.3-1.2,0.5-1.8c0.2-0.6,0.5-1.2,0.8-1.7c0.3-0.6,0.6-1.1,1-1.6l1.5-2.2h-1.9
			c-2,0-3,0-3.1,0.1c-0.2,0.2-0.3,0.7-0.4,1.6h-0.5l0.5-3.6h0.5v0c0,0.2,0.3,0.3,1,0.4c0.7,0.1,1.4,0.1,2,0.1h3.2v0.4c0,0,0,0,0,0
			c0,0,0,0,0,0l-2.3,3.3c-0.6,0.9-0.9,1.8-1.1,2.8c-0.1,1-0.2,2.3-0.2,3.9c0,0.2-0.1,0.4-0.2,0.6c-0.2,0.2-0.4,0.2-0.6,0.2
			c-0.2,0-0.4-0.1-0.6-0.2C73.3,33.7,73.2,33.5,73.2,33.3z"/>
		<path d="M79.6,33.8v-0.5c0,0,0,0,0-0.1l2.6-2.9c0.4-0.4,0.7-0.8,1-1.1c0.2-0.3,0.5-0.6,0.7-1c0.2-0.4,0.4-0.8,0.6-1.2
			c0.1-0.4,0.2-0.8,0.2-1.3c0-0.5-0.1-0.9-0.3-1.3c-0.2-0.4-0.4-0.8-0.8-1C83.4,23.2,83,23,82.5,23c-0.5,0-0.9,0.1-1.3,0.4
			c-0.4,0.3-0.7,0.7-0.8,1.2c0,0,0.1,0,0.2,0c0.3,0,0.5,0.1,0.6,0.3c0.2,0.2,0.3,0.4,0.3,0.7s-0.1,0.5-0.3,0.7
			c-0.2,0.2-0.4,0.3-0.6,0.3c-0.3,0-0.5-0.1-0.7-0.3c-0.2-0.2-0.3-0.4-0.3-0.7c0-0.4,0.1-0.8,0.2-1.2c0.2-0.4,0.4-0.7,0.7-1
			c0.3-0.3,0.6-0.5,1-0.7c0.4-0.2,0.8-0.2,1.2-0.2c0.6,0,1.2,0.1,1.8,0.4c0.6,0.3,1,0.7,1.3,1.2c0.3,0.5,0.5,1.1,0.5,1.8
			c0,0.5-0.1,1-0.3,1.4c-0.2,0.4-0.5,0.8-0.8,1.2c-0.3,0.4-0.8,0.8-1.3,1.2c-0.5,0.5-0.9,0.8-1,0.9L81,32.4h1.6c0.8,0,1.5,0,2,0
			c0.5,0,0.8,0,0.9-0.1c0.1-0.1,0.3-0.7,0.4-1.6h0.5l-0.5,3H79.6z"/>
		<path d="M106.1,31.9c0-0.4,0-0.7,0.1-1.1c0.1-0.4,0.2-0.8,0.4-1.3c0.2-0.5,0.3-0.9,0.5-1.2c0.2-0.4,0.2-0.8,0.2-1
			c0-0.3-0.1-0.5-0.4-0.5c-0.4,0-0.8,0.2-1.1,0.7c-0.3,0.5-0.5,1-0.6,1.6c0,0.1-0.1,0.1-0.1,0.1h-0.2c-0.1,0-0.1,0-0.1-0.1v0
			c0.2-0.7,0.5-1.3,0.8-1.8c0.4-0.5,0.9-0.8,1.4-0.8c0.4,0,0.8,0.1,1,0.4c0.3,0.3,0.4,0.6,0.4,1c0,0.2,0,0.4-0.1,0.7
			c-0.1,0.1-0.2,0.4-0.3,0.9c-0.2,0.5-0.3,0.8-0.4,1.2c-0.1,0.3-0.2,0.6-0.2,0.9c-0.1,0.3-0.1,0.6-0.1,0.9c0,0.4,0.1,0.7,0.2,1
			c0.2,0.3,0.4,0.4,0.8,0.4c0.7,0,1.4-0.4,1.9-1.3c0,0,0-0.1,0-0.1c0,0,0-0.1,0-0.1l1.2-4.9c0-0.1,0.1-0.3,0.3-0.4
			c0.1-0.1,0.3-0.2,0.4-0.2c0.1,0,0.3,0,0.4,0.1c0.1,0.1,0.1,0.2,0.1,0.3c0,0.1,0,0.1,0,0.1l-1.2,4.9c-0.1,0.3-0.1,0.6-0.1,0.8
			c0,0.5,0.2,0.7,0.5,0.7c0.4,0,0.6-0.2,0.8-0.7c0.2-0.4,0.3-1,0.5-1.6c0-0.1,0.1-0.1,0.1-0.1h0.2c0,0,0.1,0,0.1,0.1
			c0,0,0,0.1,0,0.1c-0.1,0.5-0.2,0.9-0.3,1.3c-0.1,0.3-0.3,0.7-0.5,1c-0.2,0.3-0.5,0.4-0.9,0.4c-0.4,0-0.7-0.1-1-0.3
			c-0.3-0.2-0.5-0.5-0.6-0.8c-0.3,0.3-0.6,0.6-0.9,0.8c-0.3,0.2-0.7,0.3-1.1,0.3c-0.7,0-1.2-0.2-1.6-0.5
			C106.3,33.1,106.1,32.5,106.1,31.9z"/>
		<path d="M114.9,36.1C114.9,36.1,114.9,36,114.9,36.1l0.9-3.6c0.1-0.2,0.1-0.4,0.1-0.6c0-0.3-0.1-0.5-0.3-0.5
			c-0.2,0-0.4,0.1-0.5,0.4c-0.1,0.3-0.2,0.7-0.3,1.1c0,0,0,0,0,0c0,0,0,0-0.1,0h-0.1c0,0-0.1,0-0.1,0c0,0,0-0.1,0-0.1
			c0.1-0.3,0.2-0.6,0.2-0.9c0.1-0.2,0.2-0.5,0.4-0.6c0.2-0.2,0.4-0.3,0.6-0.3c0.3,0,0.5,0.1,0.8,0.3c0.2,0.2,0.3,0.4,0.3,0.7
			c0.2-0.3,0.5-0.5,0.8-0.7c0.3-0.2,0.6-0.3,1-0.3c0.4,0,0.7,0.1,1,0.3c0.3,0.2,0.4,0.5,0.4,0.8c0.2-0.3,0.5-0.6,0.8-0.8
			c0.3-0.2,0.7-0.3,1.1-0.3c0.4,0,0.7,0.1,1,0.3c0.2,0.2,0.4,0.5,0.4,0.9c0,0.3-0.1,0.7-0.2,1.2c-0.1,0.5-0.3,1-0.5,1.5
			c-0.1,0.3-0.2,0.5-0.2,0.7c0,0.2,0.1,0.3,0.3,0.3c0.3,0,0.6-0.2,0.8-0.5c0.2-0.3,0.3-0.7,0.4-1c0-0.1,0-0.1,0.1-0.1h0.1
			c0,0,0,0,0.1,0c0,0,0,0,0,0.1c0,0,0,0,0,0c-0.1,0.4-0.3,0.8-0.5,1.2c-0.3,0.4-0.6,0.6-1,0.6c-0.3,0-0.5-0.1-0.7-0.3
			s-0.3-0.4-0.3-0.7c0-0.1,0-0.3,0.1-0.4c0.2-0.6,0.4-1.1,0.6-1.6c0.1-0.5,0.2-0.9,0.2-1.2c0-0.2,0-0.4-0.1-0.5
			c-0.1-0.2-0.2-0.2-0.4-0.2c-0.4,0-0.8,0.1-1.1,0.4s-0.6,0.6-0.8,1c0,0.1,0,0.1,0,0.2l-0.8,3c0,0.1-0.1,0.2-0.2,0.3
			c-0.1,0.1-0.2,0.1-0.3,0.1c-0.1,0-0.2,0-0.2-0.1c-0.1-0.1-0.1-0.1-0.1-0.2c0,0,0-0.1,0-0.1l0.7-3c0.1-0.3,0.1-0.6,0.1-0.8
			c0-0.2,0-0.4-0.1-0.5c-0.1-0.2-0.2-0.2-0.5-0.2c-0.3,0-0.5,0.1-0.8,0.2c-0.2,0.1-0.5,0.3-0.6,0.5c-0.2,0.2-0.3,0.5-0.5,0.7
			l-0.8,3.2c0,0.1-0.1,0.2-0.2,0.3c-0.1,0.1-0.2,0.1-0.3,0.1c-0.1,0-0.2,0-0.2-0.1C114.9,36.3,114.9,36.2,114.9,36.1z"/>
		<path d="M126.5,36.4c-0.5,0-0.9-0.2-1.2-0.6c-0.3-0.4-0.4-0.8-0.4-1.3c0-0.5,0.1-1,0.4-1.6c0.3-0.5,0.6-1,1-1.3
			c0.4-0.4,0.9-0.5,1.4-0.5c0.2,0,0.4,0.1,0.6,0.2c0.2,0.1,0.3,0.3,0.4,0.5c0.1-0.3,0.3-0.5,0.5-0.5c0.1,0,0.2,0,0.2,0.1
			c0.1,0.1,0.1,0.1,0.1,0.2c0,0,0,0,0,0c0,0,0,0,0,0l-0.8,3.3c-0.1,0.2-0.1,0.4-0.1,0.6c0,0.3,0.1,0.5,0.3,0.5
			c0.2,0,0.4-0.2,0.6-0.5s0.2-0.7,0.3-1.1c0-0.1,0.1-0.1,0.1-0.1h0.1c0,0,0,0,0.1,0c0,0,0,0.1,0,0.1c-0.1,0.5-0.3,1-0.5,1.3
			c-0.2,0.3-0.4,0.5-0.8,0.5c-0.3,0-0.5-0.1-0.7-0.2c-0.2-0.2-0.3-0.4-0.4-0.6C127.5,36.2,127,36.4,126.5,36.4z M126.5,36.1
			c0.3,0,0.6-0.1,0.8-0.3c0.3-0.2,0.5-0.5,0.7-0.7c0,0,0,0,0,0l0.6-2.5l0,0c0-0.3-0.1-0.5-0.3-0.7c-0.2-0.2-0.4-0.3-0.6-0.3
			s-0.5,0.1-0.7,0.3c-0.2,0.2-0.4,0.5-0.6,0.8c-0.1,0.3-0.3,0.8-0.4,1.3c-0.1,0.5-0.2,1-0.2,1.3c0,0.3,0.1,0.5,0.2,0.7
			C126.1,36,126.2,36.1,126.5,36.1z"/>
		<path d="M131.7,36c0.1,0.1,0.3,0.1,0.6,0.1c0.2,0,0.5-0.1,0.6-0.3c0.2-0.2,0.3-0.5,0.4-0.8l0.5-2.1c0.1-0.4,0.1-0.6,0.1-0.8
			c0-0.2-0.1-0.4-0.2-0.5c-0.1-0.1-0.3-0.2-0.5-0.2c-0.2,0-0.5,0.1-0.7,0.2c-0.2,0.2-0.4,0.4-0.5,0.6c-0.1,0.2-0.3,0.5-0.3,0.7
			c0,0-0.1,0.1-0.1,0.1h-0.1c-0.1,0-0.1,0-0.1-0.1v0c0.1-0.3,0.2-0.6,0.4-0.8c0.2-0.3,0.4-0.5,0.7-0.7c0.3-0.2,0.5-0.3,0.8-0.3
			c0.3,0,0.5,0.1,0.8,0.2c0.2,0.1,0.4,0.4,0.5,0.6c0.1-0.2,0.3-0.4,0.5-0.6c0.2-0.2,0.4-0.2,0.7-0.2c0.2,0,0.3,0,0.5,0.1
			c0.2,0.1,0.3,0.2,0.4,0.3c0.1,0.1,0.2,0.3,0.2,0.4c0,0.2-0.1,0.4-0.2,0.5c-0.1,0.1-0.3,0.2-0.5,0.2c-0.1,0-0.2,0-0.3-0.1
			c-0.1-0.1-0.1-0.2-0.1-0.3c0-0.2,0.1-0.3,0.2-0.4c0.1-0.1,0.2-0.2,0.4-0.2c-0.1-0.1-0.3-0.2-0.6-0.2c-0.3,0-0.5,0.1-0.7,0.3
			c-0.2,0.2-0.3,0.5-0.4,0.8l-0.5,2.1c-0.1,0.3-0.1,0.6-0.1,0.8c0,0.2,0.1,0.4,0.2,0.5c0.1,0.1,0.3,0.2,0.4,0.2c0.4,0,0.7-0.2,1-0.5
			c0.3-0.3,0.5-0.7,0.6-1c0-0.1,0-0.1,0.1-0.1h0.1c0,0,0.1,0,0.1,0c0,0,0,0,0,0.1c0,0,0,0,0,0c-0.1,0.5-0.3,0.9-0.7,1.2
			s-0.8,0.5-1.2,0.5c-0.3,0-0.5-0.1-0.8-0.2c-0.2-0.2-0.4-0.4-0.5-0.6c-0.1,0.2-0.3,0.4-0.5,0.6c-0.2,0.2-0.4,0.3-0.7,0.3
			c-0.2,0-0.3,0-0.5-0.1c-0.2-0.1-0.3-0.2-0.4-0.3c-0.1-0.1-0.2-0.3-0.2-0.5c0-0.2,0.1-0.3,0.2-0.5c0.1-0.1,0.3-0.2,0.5-0.2
			c0.1,0,0.2,0,0.3,0.1c0.1,0.1,0.1,0.2,0.1,0.3c0,0.2-0.1,0.3-0.2,0.4C132,35.9,131.8,35.9,131.7,36z"/>
		<path d="M145.3,31.5c-0.1,0-0.2,0-0.2-0.1c-0.1-0.1-0.1-0.2-0.1-0.2s0-0.2,0.1-0.2c0.1-0.1,0.1-0.1,0.2-0.1H156
			c0.1,0,0.2,0,0.2,0.1c0.1,0.1,0.1,0.1,0.1,0.2s0,0.2-0.1,0.2c-0.1,0.1-0.1,0.1-0.2,0.1H145.3z M145.3,28.2c-0.1,0-0.2,0-0.2-0.1
			c-0.1-0.1-0.1-0.1-0.1-0.2c0-0.1,0-0.2,0.1-0.2c0.1-0.1,0.1-0.1,0.2-0.1H156c0.1,0,0.2,0,0.2,0.1c0.1,0.1,0.1,0.1,0.1,0.2
			c0,0.1,0,0.2-0.1,0.2c-0.1,0.1-0.1,0.1-0.2,0.1H145.3z"/>
		<path d="M167.2,34.1c-1.4,0-2.3-0.6-2.8-1.7c-0.5-1.1-0.8-2.5-0.8-4.1c0-1,0.1-1.9,0.3-2.8c0.2-0.9,0.5-1.6,1.1-2.2
			c0.5-0.6,1.3-0.9,2.2-0.9c0.8,0,1.4,0.2,1.8,0.5c0.5,0.4,0.8,0.8,1.1,1.4c0.2,0.6,0.4,1.2,0.5,1.9s0.1,1.4,0.1,2.1
			c0,1-0.1,1.9-0.3,2.7s-0.5,1.6-1.1,2.2C168.9,33.8,168.2,34.1,167.2,34.1z M167.2,33.7c0.6,0,1.1-0.3,1.4-1
			c0.3-0.6,0.5-1.4,0.6-2.1c0.1-0.8,0.1-1.6,0.1-2.5c0-0.9,0-1.6-0.1-2.4c-0.1-0.7-0.3-1.4-0.6-2c-0.3-0.6-0.8-0.9-1.4-0.9
			c-0.6,0-1.1,0.3-1.4,0.9c-0.3,0.6-0.5,1.2-0.6,2c-0.1,0.7-0.1,1.5-0.1,2.4c0,0.6,0,1.2,0,1.8c0,0.6,0.1,1.1,0.2,1.7
			c0.1,0.6,0.3,1.1,0.6,1.5C166.3,33.5,166.7,33.7,167.2,33.7z"/>
		<path d="M172.9,32.8c0-0.3,0.1-0.5,0.3-0.7c0.2-0.2,0.4-0.3,0.7-0.3c0.2,0,0.3,0,0.5,0.1c0.1,0.1,0.3,0.2,0.3,0.3
			c0.1,0.1,0.1,0.3,0.1,0.5c0,0.3-0.1,0.5-0.3,0.7s-0.4,0.3-0.7,0.3c-0.3,0-0.5-0.1-0.7-0.3C173,33.3,172.9,33.1,172.9,32.8z"/>
		<path d="M177,33.8v-0.5c0,0,0,0,0-0.1l2.6-2.9c0.4-0.4,0.7-0.8,1-1.1c0.2-0.3,0.5-0.6,0.7-1c0.2-0.4,0.4-0.8,0.6-1.2
			c0.1-0.4,0.2-0.8,0.2-1.3c0-0.5-0.1-0.9-0.3-1.3c-0.2-0.4-0.4-0.8-0.8-1c-0.3-0.3-0.8-0.4-1.2-0.4c-0.5,0-0.9,0.1-1.3,0.4
			c-0.4,0.3-0.7,0.7-0.8,1.2c0,0,0.1,0,0.2,0c0.3,0,0.5,0.1,0.6,0.3c0.2,0.2,0.3,0.4,0.3,0.7c0,0.3-0.1,0.5-0.3,0.7
			c-0.2,0.2-0.4,0.3-0.6,0.3c-0.3,0-0.5-0.1-0.7-0.3c-0.2-0.2-0.3-0.4-0.3-0.7c0-0.4,0.1-0.8,0.2-1.2c0.2-0.4,0.4-0.7,0.7-1
			c0.3-0.3,0.6-0.5,1-0.7c0.4-0.2,0.8-0.2,1.2-0.2c0.6,0,1.2,0.1,1.8,0.4c0.6,0.3,1,0.7,1.3,1.2c0.3,0.5,0.5,1.1,0.5,1.8
			c0,0.5-0.1,1-0.3,1.4s-0.5,0.8-0.8,1.2c-0.3,0.4-0.8,0.8-1.3,1.2c-0.5,0.5-0.9,0.8-1,0.9l-1.9,1.9h1.6c0.8,0,1.5,0,2,0
			c0.5,0,0.8,0,0.9-0.1c0.1-0.1,0.3-0.7,0.4-1.6h0.5l-0.5,3H177z"/>
		<path d="M188.9,34.1c-1.4,0-2.3-0.6-2.8-1.7c-0.5-1.1-0.8-2.5-0.8-4.1c0-1,0.1-1.9,0.3-2.8c0.2-0.9,0.5-1.6,1.1-2.2
			c0.5-0.6,1.3-0.9,2.2-0.9c0.8,0,1.4,0.2,1.8,0.5c0.5,0.4,0.8,0.8,1.1,1.4c0.2,0.6,0.4,1.2,0.5,1.9s0.1,1.4,0.1,2.1
			c0,1-0.1,1.9-0.3,2.7s-0.5,1.6-1.1,2.2C190.6,33.8,189.9,34.1,188.9,34.1z M188.9,33.7c0.6,0,1.1-0.3,1.4-1
			c0.3-0.6,0.5-1.4,0.6-2.1c0.1-0.8,0.1-1.6,0.1-2.5c0-0.9,0-1.6-0.1-2.4c-0.1-0.7-0.3-1.4-0.6-2c-0.3-0.6-0.8-0.9-1.4-0.9
			c-0.6,0-1.1,0.3-1.4,0.9c-0.3,0.6-0.5,1.2-0.6,2c-0.1,0.7-0.1,1.5-0.1,2.4c0,0.6,0,1.2,0,1.8c0,0.6,0.1,1.1,0.2,1.7
			c0.1,0.6,0.3,1.1,0.6,1.5C188,33.5,188.4,33.7,188.9,33.7z"/>
		<path d="M197.4,34.1c-1.4,0-2.3-0.6-2.8-1.7c-0.5-1.1-0.8-2.5-0.8-4.1c0-1,0.1-1.9,0.3-2.8c0.2-0.9,0.5-1.6,1.1-2.2
			c0.5-0.6,1.3-0.9,2.2-0.9c0.8,0,1.4,0.2,1.8,0.5c0.5,0.4,0.8,0.8,1.1,1.4c0.2,0.6,0.4,1.2,0.5,1.9s0.1,1.4,0.1,2.1
			c0,1-0.1,1.9-0.3,2.7s-0.5,1.6-1.1,2.2C199.1,33.8,198.4,34.1,197.4,34.1z M197.4,33.7c0.6,0,1.1-0.3,1.4-1
			c0.3-0.6,0.5-1.4,0.6-2.1c0.1-0.8,0.1-1.6,0.1-2.5c0-0.9,0-1.6-0.1-2.4c-0.1-0.7-0.3-1.4-0.6-2c-0.3-0.6-0.8-0.9-1.4-0.9
			c-0.6,0-1.1,0.3-1.4,0.9c-0.3,0.6-0.5,1.2-0.6,2c-0.1,0.7-0.1,1.5-0.1,2.4c0,0.6,0,1.2,0,1.8c0,0.6,0.1,1.1,0.2,1.7
			c0.1,0.6,0.3,1.1,0.6,1.5C196.5,33.5,196.9,33.7,197.4,33.7z"/>
	</g>
	<g>
		<path class="st5" d="M56.9,247.9l5.5-32.9l5.5-30.4l5.5-26.4l5.5-21.1l5.5-14.8l5.5-7.8l5.5-0.7l5.5,6.4l5.5,13l5.5,18.7l5.5,23.3
			l5.5,26.6l5.5,28.4l5.5,28.7l5.5,27.5l5.5,24.8l5.5,20.9l5.5,16l5.5,10.4l5.5,4.3l5.5-1.8l5.5-7.7l5.5-13.1l5.5-17.6l5.5-21.1
			l5.5-23.5l5.5-24.5l5.5-24.3l5.5-22.7l5.5-20l5.5-16.3l5.5-11.9l5.5-6.9l5.5-1.7l5.5,3.5l5.5,8.4l5.5,12.8l5.5,16.3l5.5,19
			l5.5,20.5l5.5,21l5.5,20.3l5.5,18.6l5.5,16l5.5,12.6l5.5,8.6l5.5,4.2l5.5-0.3l5.5-4.7l5.5-8.7l5.5-12.2l5.5-14.9l5.5-16.8
			l5.5-17.8l5.5-17.8l5.5-16.9l5.5-15.1l5.5-12.6l5.5-9.5l5.5-5.9l5.5-2.1l5.5,1.7l5.5,5.4l5.5,8.6l5.5,11.4l5.5,13.5l5.5,14.8
			l5.5,15.3l5.5,15l5.5,14l5.5,12.2l5.5,9.8l5.5,6.9l5.5,3.8l5.5,0.5l5.5-2.7l5.5-5.7l5.5-8.3l5.5-10.5l5.5-12l5.5-12.9l5.5-13.1
			l5.5-12.6l5.5-11.4l5.5-9.7l5.5-7.5l5.5-4.9l5.5-2.2l5.5,0.6l5.5,3.3l5.5,5.8l5.5,7.9l5.5,9.5l5.5,10.6l5.5,11.2l5.5,11.1
			l5.5,10.4l5.5,9.2l5.5,7.6l5.5,5.6l5.5,3.3l5.5,0.9l5.5-1.4l5.5-3.7l5.5-5.7l5.5-7.3l5.5-8.6l5.5-9.3l5.5-9.6l5.5-9.3l5.5-8.6
			l5.5-7.4l5.5-5.8l5.5-4l5.5-2l5.5,0l5.5,2l5.5,3.8l5.5,5.4l5.5,6.7l5.5,7.6l5.5,8.1l5.5,8.1l5.5,7.8l5.5,7l5.5,5.8l5.5,4.4
			l5.5,2.8l5.5,1.1l5.5-0.7l5.5-2.3l5.5-3.8l5.5-5.1l5.5-6.1l5.5-6.7l5.5-7l5.5-6.9l5.5-6.4l5.5-5.6l5.5-4.5l5.5-3.3l5.5-1.8
			l5.5-0.3l5.5,1.1l5.5,2.5l5.5,3.7l5.5,4.7l5.5,5.4l5.5,5.9l5.5,6"/>
	</g>
	<g>
		<path class="st1" d="M871.8,104.4V88.5h-49.4v15.9H871.8z"/>
	</g>
	<g transform="translate(887.5,55.5)">
		<path d="M-21.1,44.7v-4.9h-0.8v2.8c0,0.2,0,0.4-0.1,0.6c-0.1,0.2-0.2,0.4-0.3,0.5s-0.3,0.2-0.5,0.3c-0.2,0.1-0.4,0.1-0.6,0.1
			c-0.3,0-0.6-0.1-0.7-0.3c-0.2-0.2-0.3-0.4-0.3-0.7v-3.3h-0.8V43c0,0.3,0,0.5,0.1,0.7c0.1,0.2,0.1,0.4,0.3,0.6s0.3,0.3,0.5,0.4
			c0.2,0.1,0.5,0.1,0.8,0.1c0.4,0,0.7-0.1,0.9-0.2c0.3-0.1,0.5-0.4,0.7-0.7h0v0.8H-21.1z"/>
	</g>
	<g>
		<line class="st5" x1="826.7" y1="96.5" x2="858.5" y2="96.5"/>
	</g>
	<g>
		<path class="st6" d="M822.4,104.4V88.5h49.4v15.9H822.4z"/>
	</g>
</g>
</svg>
